solid Default
  facet normal -7.071068e-01 0.000000e+00 7.071068e-01
    outer loop
      vertex -6.000000e+00 5.000000e+00 6.000000e+00
      vertex -7.000000e+00 5.000000e+00 5.000000e+00
      vertex -6.000000e+00 -5.000000e+00 6.000000e+00
    endloop
  endfacet
  facet normal -7.071068e-01 0.000000e+00 7.071068e-01
    outer loop
      vertex -6.000000e+00 -5.000000e+00 6.000000e+00
      vertex -7.000000e+00 5.000000e+00 5.000000e+00
      vertex -7.000000e+00 -5.000000e+00 5.000000e+00
    endloop
  endfacet
  facet normal 7.071068e-01 0.000000e+00 7.071068e-01
    outer loop
      vertex -5.000000e+00 5.000000e+00 5.000000e+00
      vertex -6.000000e+00 5.000000e+00 6.000000e+00
      vertex -5.000000e+00 -5.000000e+00 5.000000e+00
    endloop
  endfacet
  facet normal 7.071068e-01 0.000000e+00 7.071068e-01
    outer loop
      vertex -5.000000e+00 -5.000000e+00 5.000000e+00
      vertex -6.000000e+00 5.000000e+00 6.000000e+00
      vertex -6.000000e+00 -5.000000e+00 6.000000e+00
    endloop
  endfacet
  facet normal -7.071068e-01 0.000000e+00 7.071068e-01
    outer loop
      vertex -4.000000e+00 5.000000e+00 6.000000e+00
      vertex -5.000000e+00 5.000000e+00 5.000000e+00
      vertex -4.000000e+00 -5.000000e+00 6.000000e+00
    endloop
  endfacet
  facet normal -7.071068e-01 0.000000e+00 7.071068e-01
    outer loop
      vertex -4.000000e+00 -5.000000e+00 6.000000e+00
      vertex -5.000000e+00 5.000000e+00 5.000000e+00
      vertex -5.000000e+00 -5.000000e+00 5.000000e+00
    endloop
  endfacet
  facet normal 7.071068e-01 0.000000e+00 7.071068e-01
    outer loop
      vertex -3.000000e+00 5.000000e+00 5.000000e+00
      vertex -4.000000e+00 5.000000e+00 6.000000e+00
      vertex -3.000000e+00 -5.000000e+00 5.000000e+00
    endloop
  endfacet
  facet normal 7.071068e-01 0.000000e+00 7.071068e-01
    outer loop
      vertex -3.000000e+00 -5.000000e+00 5.000000e+00
      vertex -4.000000e+00 5.000000e+00 6.000000e+00
      vertex -4.000000e+00 -5.000000e+00 6.000000e+00
    endloop
  endfacet
  facet normal -7.071068e-01 0.000000e+00 7.071068e-01
    outer loop
      vertex -2.000000e+00 5.000000e+00 6.000000e+00
      vertex -3.000000e+00 5.000000e+00 5.000000e+00
      vertex -2.000000e+00 -5.000000e+00 6.000000e+00
    endloop
  endfacet
  facet normal -7.071068e-01 0.000000e+00 7.071068e-01
    outer loop
      vertex -2.000000e+00 -5.000000e+00 6.000000e+00
      vertex -3.000000e+00 5.000000e+00 5.000000e+00
      vertex -3.000000e+00 -5.000000e+00 5.000000e+00
    endloop
  endfacet
  facet normal 7.071068e-01 0.000000e+00 7.071068e-01
    outer loop
      vertex -1.000000e+00 5.000000e+00 5.000000e+00
      vertex -2.000000e+00 5.000000e+00 6.000000e+00
      vertex -1.000000e+00 -5.000000e+00 5.000000e+00
    endloop
  endfacet
  facet normal 7.071068e-01 0.000000e+00 7.071068e-01
    outer loop
      vertex -1.000000e+00 -5.000000e+00 5.000000e+00
      vertex -2.000000e+00 5.000000e+00 6.000000e+00
      vertex -2.000000e+00 -5.000000e+00 6.000000e+00
    endloop
  endfacet
  facet normal -7.071068e-01 0.000000e+00 7.071068e-01
    outer loop
      vertex 0.000000e+00 5.000000e+00 6.000000e+00
      vertex -1.000000e+00 5.000000e+00 5.000000e+00
      vertex 0.000000e+00 -5.000000e+00 6.000000e+00
    endloop
  endfacet
  facet normal -7.071068e-01 0.000000e+00 7.071068e-01
    outer loop
      vertex 0.000000e+00 -5.000000e+00 6.000000e+00
      vertex -1.000000e+00 5.000000e+00 5.000000e+00
      vertex -1.000000e+00 -5.000000e+00 5.000000e+00
    endloop
  endfacet
  facet normal 7.071068e-01 0.000000e+00 7.071068e-01
    outer loop
      vertex 1.000000e+00 5.000000e+00 5.000000e+00
      vertex 0.000000e+00 5.000000e+00 6.000000e+00
      vertex 1.000000e+00 -5.000000e+00 5.000000e+00
    endloop
  endfacet
  facet normal 7.071068e-01 0.000000e+00 7.071068e-01
    outer loop
      vertex 1.000000e+00 -5.000000e+00 5.000000e+00
      vertex 0.000000e+00 5.000000e+00 6.000000e+00
      vertex 0.000000e+00 -5.000000e+00 6.000000e+00
    endloop
  endfacet
  facet normal -7.071068e-01 0.000000e+00 7.071068e-01
    outer loop
      vertex 2.000000e+00 5.000000e+00 6.000000e+00
      vertex 1.000000e+00 5.000000e+00 5.000000e+00
      vertex 2.000000e+00 -5.000000e+00 6.000000e+00
    endloop
  endfacet
  facet normal -7.071068e-01 0.000000e+00 7.071068e-01
    outer loop
      vertex 2.000000e+00 -5.000000e+00 6.000000e+00
      vertex 1.000000e+00 5.000000e+00 5.000000e+00
      vertex 1.000000e+00 -5.000000e+00 5.000000e+00
    endloop
  endfacet
  facet normal 7.071068e-01 0.000000e+00 7.071068e-01
    outer loop
      vertex 3.000000e+00 5.000000e+00 5.000000e+00
      vertex 2.000000e+00 5.000000e+00 6.000000e+00
      vertex 3.000000e+00 -5.000000e+00 5.000000e+00
    endloop
  endfacet
  facet normal 7.071068e-01 0.000000e+00 7.071068e-01
    outer loop
      vertex 3.000000e+00 -5.000000e+00 5.000000e+00
      vertex 2.000000e+00 5.000000e+00 6.000000e+00
      vertex 2.000000e+00 -5.000000e+00 6.000000e+00
    endloop
  endfacet
  facet normal -7.071068e-01 0.000000e+00 7.071068e-01
    outer loop
      vertex 4.000000e+00 5.000000e+00 6.000000e+00
      vertex 3.000000e+00 5.000000e+00 5.000000e+00
      vertex 4.000000e+00 -5.000000e+00 6.000000e+00
    endloop
  endfacet
  facet normal -7.071068e-01 0.000000e+00 7.071068e-01
    outer loop
      vertex 4.000000e+00 -5.000000e+00 6.000000e+00
      vertex 3.000000e+00 5.000000e+00 5.000000e+00
      vertex 3.000000e+00 -5.000000e+00 5.000000e+00
    endloop
  endfacet
  facet normal 7.071068e-01 0.000000e+00 7.071068e-01
    outer loop
      vertex 5.000000e+00 5.000000e+00 5.000000e+00
      vertex 4.000000e+00 5.000000e+00 6.000000e+00
      vertex 5.000000e+00 -5.000000e+00 5.000000e+00
    endloop
  endfacet
  facet normal 7.071068e-01 0.000000e+00 7.071068e-01
    outer loop
      vertex 5.000000e+00 -5.000000e+00 5.000000e+00
      vertex 4.000000e+00 5.000000e+00 6.000000e+00
      vertex 4.000000e+00 -5.000000e+00 6.000000e+00
    endloop
  endfacet
  facet normal -7.071068e-01 0.000000e+00 7.071068e-01
    outer loop
      vertex 6.000000e+00 5.000000e+00 6.000000e+00
      vertex 5.000000e+00 5.000000e+00 5.000000e+00
      vertex 6.000000e+00 -5.000000e+00 6.000000e+00
    endloop
  endfacet
  facet normal -7.071068e-01 0.000000e+00 7.071068e-01
    outer loop
      vertex 6.000000e+00 -5.000000e+00 6.000000e+00
      vertex 5.000000e+00 5.000000e+00 5.000000e+00
      vertex 5.000000e+00 -5.000000e+00 5.000000e+00
    endloop
  endfacet
  facet normal 7.071068e-01 0.000000e+00 7.071068e-01
    outer loop
      vertex 7.000000e+00 5.000000e+00 5.000000e+00
      vertex 6.000000e+00 5.000000e+00 6.000000e+00
      vertex 7.000000e+00 -5.000000e+00 5.000000e+00
    endloop
  endfacet
  facet normal 7.071068e-01 0.000000e+00 7.071068e-01
    outer loop
      vertex 7.000000e+00 -5.000000e+00 5.000000e+00
      vertex 6.000000e+00 5.000000e+00 6.000000e+00
      vertex 6.000000e+00 -5.000000e+00 6.000000e+00
    endloop
  endfacet
  facet normal -7.071068e-01 0.000000e+00 7.071068e-01
    outer loop
      vertex 8.000000e+00 5.000000e+00 6.000000e+00
      vertex 7.000000e+00 5.000000e+00 5.000000e+00
      vertex 8.000000e+00 -5.000000e+00 6.000000e+00
    endloop
  endfacet
  facet normal -7.071068e-01 0.000000e+00 7.071068e-01
    outer loop
      vertex 8.000000e+00 -5.000000e+00 6.000000e+00
      vertex 7.000000e+00 5.000000e+00 5.000000e+00
      vertex 7.000000e+00 -5.000000e+00 5.000000e+00
    endloop
  endfacet
  facet normal 7.071068e-01 0.000000e+00 7.071068e-01
    outer loop
      vertex 9.000000e+00 5.000000e+00 5.000000e+00
      vertex 8.000000e+00 5.000000e+00 6.000000e+00
      vertex 9.000000e+00 -5.000000e+00 5.000000e+00
    endloop
  endfacet
  facet normal 7.071068e-01 0.000000e+00 7.071068e-01
    outer loop
      vertex 9.000000e+00 -5.000000e+00 5.000000e+00
      vertex 8.000000e+00 5.000000e+00 6.000000e+00
      vertex 8.000000e+00 -5.000000e+00 6.000000e+00
    endloop
  endfacet
  facet normal -7.071068e-01 0.000000e+00 7.071068e-01
    outer loop
      vertex 1.000000e+01 5.000000e+00 6.000000e+00
      vertex 9.000000e+00 5.000000e+00 5.000000e+00
      vertex 1.000000e+01 -5.000000e+00 6.000000e+00
    endloop
  endfacet
  facet normal -7.071068e-01 0.000000e+00 7.071068e-01
    outer loop
      vertex 1.000000e+01 -5.000000e+00 6.000000e+00
      vertex 9.000000e+00 5.000000e+00 5.000000e+00
      vertex 9.000000e+00 -5.000000e+00 5.000000e+00
    endloop
  endfacet
  facet normal 7.071068e-01 0.000000e+00 7.071068e-01
    outer loop
      vertex 1.100000e+01 5.000000e+00 5.000000e+00
      vertex 1.000000e+01 5.000000e+00 6.000000e+00
      vertex 1.100000e+01 -5.000000e+00 5.000000e+00
    endloop
  endfacet
  facet normal 7.071068e-01 0.000000e+00 7.071068e-01
    outer loop
      vertex 1.100000e+01 -5.000000e+00 5.000000e+00
      vertex 1.000000e+01 5.000000e+00 6.000000e+00
      vertex 1.000000e+01 -5.000000e+00 6.000000e+00
    endloop
  endfacet
  facet normal -7.071068e-01 0.000000e+00 7.071068e-01
    outer loop
      vertex 1.200000e+01 5.000000e+00 6.000000e+00
      vertex 1.100000e+01 5.000000e+00 5.000000e+00
      vertex 1.200000e+01 -5.000000e+00 6.000000e+00
    endloop
  endfacet
  facet normal -7.071068e-01 0.000000e+00 7.071068e-01
    outer loop
      vertex 1.200000e+01 -5.000000e+00 6.000000e+00
      vertex 1.100000e+01 5.000000e+00 5.000000e+00
      vertex 1.100000e+01 -5.000000e+00 5.000000e+00
    endloop
  endfacet
  facet normal 7.071068e-01 0.000000e+00 7.071068e-01
    outer loop
      vertex 1.300000e+01 5.000000e+00 5.000000e+00
      vertex 1.200000e+01 5.000000e+00 6.000000e+00
      vertex 1.300000e+01 -5.000000e+00 5.000000e+00
    endloop
  endfacet
  facet normal 7.071068e-01 0.000000e+00 7.071068e-01
    outer loop
      vertex 1.300000e+01 -5.000000e+00 5.000000e+00
      vertex 1.200000e+01 5.000000e+00 6.000000e+00
      vertex 1.200000e+01 -5.000000e+00 6.000000e+00
    endloop
  endfacet
  facet normal -7.071068e-01 0.000000e+00 7.071068e-01
    outer loop
      vertex 1.400000e+01 5.000000e+00 6.000000e+00
      vertex 1.300000e+01 5.000000e+00 5.000000e+00
      vertex 1.400000e+01 -5.000000e+00 6.000000e+00
    endloop
  endfacet
  facet normal -7.071068e-01 0.000000e+00 7.071068e-01
    outer loop
      vertex 1.400000e+01 -5.000000e+00 6.000000e+00
      vertex 1.300000e+01 5.000000e+00 5.000000e+00
      vertex 1.300000e+01 -5.000000e+00 5.000000e+00
    endloop
  endfacet
  facet normal 7.071068e-01 0.000000e+00 7.071068e-01
    outer loop
      vertex 1.500000e+01 5.000000e+00 5.000000e+00
      vertex 1.400000e+01 5.000000e+00 6.000000e+00
      vertex 1.500000e+01 -5.000000e+00 5.000000e+00
    endloop
  endfacet
  facet normal 7.071068e-01 0.000000e+00 7.071068e-01
    outer loop
      vertex 1.500000e+01 -5.000000e+00 5.000000e+00
      vertex 1.400000e+01 5.000000e+00 6.000000e+00
      vertex 1.400000e+01 -5.000000e+00 6.000000e+00
    endloop
  endfacet
  facet normal -7.071068e-01 0.000000e+00 7.071068e-01
    outer loop
      vertex 1.600000e+01 5.000000e+00 6.000000e+00
      vertex 1.500000e+01 5.000000e+00 5.000000e+00
      vertex 1.600000e+01 -5.000000e+00 6.000000e+00
    endloop
  endfacet
  facet normal -7.071068e-01 0.000000e+00 7.071068e-01
    outer loop
      vertex 1.600000e+01 -5.000000e+00 6.000000e+00
      vertex 1.500000e+01 5.000000e+00 5.000000e+00
      vertex 1.500000e+01 -5.000000e+00 5.000000e+00
    endloop
  endfacet
  facet normal 7.071068e-01 0.000000e+00 7.071068e-01
    outer loop
      vertex 1.700000e+01 5.000000e+00 5.000000e+00
      vertex 1.600000e+01 5.000000e+00 6.000000e+00
      vertex 1.700000e+01 -5.000000e+00 5.000000e+00
    endloop
  endfacet
  facet normal 7.071068e-01 0.000000e+00 7.071068e-01
    outer loop
      vertex 1.700000e+01 -5.000000e+00 5.000000e+00
      vertex 1.600000e+01 5.000000e+00 6.000000e+00
      vertex 1.600000e+01 -5.000000e+00 6.000000e+00
    endloop
  endfacet
  facet normal -7.071068e-01 0.000000e+00 7.071068e-01
    outer loop
      vertex 1.800000e+01 5.000000e+00 6.000000e+00
      vertex 1.700000e+01 5.000000e+00 5.000000e+00
      vertex 1.800000e+01 -5.000000e+00 6.000000e+00
    endloop
  endfacet
  facet normal -7.071068e-01 0.000000e+00 7.071068e-01
    outer loop
      vertex 1.800000e+01 -5.000000e+00 6.000000e+00
      vertex 1.700000e+01 5.000000e+00 5.000000e+00
      vertex 1.700000e+01 -5.000000e+00 5.000000e+00
    endloop
  endfacet
  facet normal 7.071068e-01 0.000000e+00 7.071068e-01
    outer loop
      vertex 1.900000e+01 5.000000e+00 5.000000e+00
      vertex 1.800000e+01 5.000000e+00 6.000000e+00
      vertex 1.900000e+01 -5.000000e+00 5.000000e+00
    endloop
  endfacet
  facet normal 7.071068e-01 0.000000e+00 7.071068e-01
    outer loop
      vertex 1.900000e+01 -5.000000e+00 5.000000e+00
      vertex 1.800000e+01 5.000000e+00 6.000000e+00
      vertex 1.800000e+01 -5.000000e+00 6.000000e+00
    endloop
  endfacet
  facet normal -7.071068e-01 0.000000e+00 7.071068e-01
    outer loop
      vertex 2.000000e+01 5.000000e+00 6.000000e+00
      vertex 1.900000e+01 5.000000e+00 5.000000e+00
      vertex 2.000000e+01 -5.000000e+00 6.000000e+00
    endloop
  endfacet
  facet normal -7.071068e-01 0.000000e+00 7.071068e-01
    outer loop
      vertex 2.000000e+01 -5.000000e+00 6.000000e+00
      vertex 1.900000e+01 5.000000e+00 5.000000e+00
      vertex 1.900000e+01 -5.000000e+00 5.000000e+00
    endloop
  endfacet
  facet normal 7.071068e-01 0.000000e+00 7.071068e-01
    outer loop
      vertex 2.100000e+01 5.000000e+00 5.000000e+00
      vertex 2.000000e+01 5.000000e+00 6.000000e+00
      vertex 2.100000e+01 -5.000000e+00 5.000000e+00
    endloop
  endfacet
  facet normal 7.071068e-01 0.000000e+00 7.071068e-01
    outer loop
      vertex 2.100000e+01 -5.000000e+00 5.000000e+00
      vertex 2.000000e+01 5.000000e+00 6.000000e+00
      vertex 2.000000e+01 -5.000000e+00 6.000000e+00
    endloop
  endfacet
  facet normal -7.071068e-01 0.000000e+00 7.071068e-01
    outer loop
      vertex 2.200000e+01 5.000000e+00 6.000000e+00
      vertex 2.100000e+01 5.000000e+00 5.000000e+00
      vertex 2.200000e+01 -5.000000e+00 6.000000e+00
    endloop
  endfacet
  facet normal -7.071068e-01 0.000000e+00 7.071068e-01
    outer loop
      vertex 2.200000e+01 -5.000000e+00 6.000000e+00
      vertex 2.100000e+01 5.000000e+00 5.000000e+00
      vertex 2.100000e+01 -5.000000e+00 5.000000e+00
    endloop
  endfacet
  facet normal 7.071068e-01 0.000000e+00 7.071068e-01
    outer loop
      vertex 2.300000e+01 5.000000e+00 5.000000e+00
      vertex 2.200000e+01 5.000000e+00 6.000000e+00
      vertex 2.300000e+01 -5.000000e+00 5.000000e+00
    endloop
  endfacet
  facet normal 7.071068e-01 0.000000e+00 7.071068e-01
    outer loop
      vertex 2.300000e+01 -5.000000e+00 5.000000e+00
      vertex 2.200000e+01 5.000000e+00 6.000000e+00
      vertex 2.200000e+01 -5.000000e+00 6.000000e+00
    endloop
  endfacet
  facet normal -7.071068e-01 0.000000e+00 7.071068e-01
    outer loop
      vertex 2.400000e+01 5.000000e+00 6.000000e+00
      vertex 2.300000e+01 5.000000e+00 5.000000e+00
      vertex 2.400000e+01 -5.000000e+00 6.000000e+00
    endloop
  endfacet
  facet normal -7.071068e-01 0.000000e+00 7.071068e-01
    outer loop
      vertex 2.400000e+01 -5.000000e+00 6.000000e+00
      vertex 2.300000e+01 5.000000e+00 5.000000e+00
      vertex 2.300000e+01 -5.000000e+00 5.000000e+00
    endloop
  endfacet
  facet normal 7.071068e-01 0.000000e+00 7.071068e-01
    outer loop
      vertex 2.500000e+01 5.000000e+00 5.000000e+00
      vertex 2.400000e+01 5.000000e+00 6.000000e+00
      vertex 2.500000e+01 -5.000000e+00 5.000000e+00
    endloop
  endfacet
  facet normal 7.071068e-01 0.000000e+00 7.071068e-01
    outer loop
      vertex 2.500000e+01 -5.000000e+00 5.000000e+00
      vertex 2.400000e+01 5.000000e+00 6.000000e+00
      vertex 2.400000e+01 -5.000000e+00 6.000000e+00
    endloop
  endfacet
  facet normal -7.071068e-01 0.000000e+00 7.071068e-01
    outer loop
      vertex 2.600000e+01 5.000000e+00 6.000000e+00
      vertex 2.500000e+01 5.000000e+00 5.000000e+00
      vertex 2.600000e+01 -5.000000e+00 6.000000e+00
    endloop
  endfacet
  facet normal -7.071068e-01 0.000000e+00 7.071068e-01
    outer loop
      vertex 2.600000e+01 -5.000000e+00 6.000000e+00
      vertex 2.500000e+01 5.000000e+00 5.000000e+00
      vertex 2.500000e+01 -5.000000e+00 5.000000e+00
    endloop
  endfacet
  facet normal 7.071068e-01 0.000000e+00 7.071068e-01
    outer loop
      vertex 2.700000e+01 5.000000e+00 5.000000e+00
      vertex 2.600000e+01 5.000000e+00 6.000000e+00
      vertex 2.700000e+01 -5.000000e+00 5.000000e+00
    endloop
  endfacet
  facet normal 7.071068e-01 0.000000e+00 7.071068e-01
    outer loop
      vertex 2.700000e+01 -5.000000e+00 5.000000e+00
      vertex 2.600000e+01 5.000000e+00 6.000000e+00
      vertex 2.600000e+01 -5.000000e+00 6.000000e+00
    endloop
  endfacet
  facet normal -7.071068e-01 0.000000e+00 7.071068e-01
    outer loop
      vertex 2.800000e+01 5.000000e+00 6.000000e+00
      vertex 2.700000e+01 5.000000e+00 5.000000e+00
      vertex 2.800000e+01 -5.000000e+00 6.000000e+00
    endloop
  endfacet
  facet normal -7.071068e-01 0.000000e+00 7.071068e-01
    outer loop
      vertex 2.800000e+01 -5.000000e+00 6.000000e+00
      vertex 2.700000e+01 5.000000e+00 5.000000e+00
      vertex 2.700000e+01 -5.000000e+00 5.000000e+00
    endloop
  endfacet
  facet normal 7.071068e-01 0.000000e+00 7.071068e-01
    outer loop
      vertex 2.900000e+01 5.000000e+00 5.000000e+00
      vertex 2.800000e+01 5.000000e+00 6.000000e+00
      vertex 2.900000e+01 -5.000000e+00 5.000000e+00
    endloop
  endfacet
  facet normal 7.071068e-01 0.000000e+00 7.071068e-01
    outer loop
      vertex 2.900000e+01 -5.000000e+00 5.000000e+00
      vertex 2.800000e+01 5.000000e+00 6.000000e+00
      vertex 2.800000e+01 -5.000000e+00 6.000000e+00
    endloop
  endfacet
  facet normal -7.071068e-01 0.000000e+00 7.071068e-01
    outer loop
      vertex 3.000000e+01 5.000000e+00 6.000000e+00
      vertex 2.900000e+01 5.000000e+00 5.000000e+00
      vertex 3.000000e+01 -5.000000e+00 6.000000e+00
    endloop
  endfacet
  facet normal -7.071068e-01 0.000000e+00 7.071068e-01
    outer loop
      vertex 3.000000e+01 -5.000000e+00 6.000000e+00
      vertex 2.900000e+01 5.000000e+00 5.000000e+00
      vertex 2.900000e+01 -5.000000e+00 5.000000e+00
    endloop
  endfacet
  facet normal 7.071068e-01 0.000000e+00 7.071068e-01
    outer loop
      vertex 3.100000e+01 5.000000e+00 5.000000e+00
      vertex 3.000000e+01 5.000000e+00 6.000000e+00
      vertex 3.100000e+01 -5.000000e+00 5.000000e+00
    endloop
  endfacet
  facet normal 7.071068e-01 0.000000e+00 7.071068e-01
    outer loop
      vertex 3.100000e+01 -5.000000e+00 5.000000e+00
      vertex 3.000000e+01 5.000000e+00 6.000000e+00
      vertex 3.000000e+01 -5.000000e+00 6.000000e+00
    endloop
  endfacet
  facet normal -7.071068e-01 0.000000e+00 7.071068e-01
    outer loop
      vertex 3.200000e+01 5.000000e+00 6.000000e+00
      vertex 3.100000e+01 5.000000e+00 5.000000e+00
      vertex 3.200000e+01 -5.000000e+00 6.000000e+00
    endloop
  endfacet
  facet normal -7.071068e-01 0.000000e+00 7.071068e-01
    outer loop
      vertex 3.200000e+01 -5.000000e+00 6.000000e+00
      vertex 3.100000e+01 5.000000e+00 5.000000e+00
      vertex 3.100000e+01 -5.000000e+00 5.000000e+00
    endloop
  endfacet
  facet normal 7.071068e-01 0.000000e+00 7.071068e-01
    outer loop
      vertex 3.300000e+01 5.000000e+00 5.000000e+00
      vertex 3.200000e+01 5.000000e+00 6.000000e+00
      vertex 3.300000e+01 -5.000000e+00 5.000000e+00
    endloop
  endfacet
  facet normal 7.071068e-01 0.000000e+00 7.071068e-01
    outer loop
      vertex 3.300000e+01 -5.000000e+00 5.000000e+00
      vertex 3.200000e+01 5.000000e+00 6.000000e+00
      vertex 3.200000e+01 -5.000000e+00 6.000000e+00
    endloop
  endfacet
  facet normal -7.071068e-01 0.000000e+00 7.071068e-01
    outer loop
      vertex 3.400000e+01 5.000000e+00 6.000000e+00
      vertex 3.300000e+01 5.000000e+00 5.000000e+00
      vertex 3.400000e+01 -5.000000e+00 6.000000e+00
    endloop
  endfacet
  facet normal -7.071068e-01 0.000000e+00 7.071068e-01
    outer loop
      vertex 3.400000e+01 -5.000000e+00 6.000000e+00
      vertex 3.300000e+01 5.000000e+00 5.000000e+00
      vertex 3.300000e+01 -5.000000e+00 5.000000e+00
    endloop
  endfacet
  facet normal 7.071068e-01 0.000000e+00 7.071068e-01
    outer loop
      vertex 3.500000e+01 5.000000e+00 5.000000e+00
      vertex 3.400000e+01 5.000000e+00 6.000000e+00
      vertex 3.500000e+01 -5.000000e+00 5.000000e+00
    endloop
  endfacet
  facet normal 7.071068e-01 0.000000e+00 7.071068e-01
    outer loop
      vertex 3.500000e+01 -5.000000e+00 5.000000e+00
      vertex 3.400000e+01 5.000000e+00 6.000000e+00
      vertex 3.400000e+01 -5.000000e+00 6.000000e+00
    endloop
  endfacet
  facet normal -7.071068e-01 0.000000e+00 7.071068e-01
    outer loop
      vertex 3.600000e+01 5.000000e+00 6.000000e+00
      vertex 3.500000e+01 5.000000e+00 5.000000e+00
      vertex 3.600000e+01 -5.000000e+00 6.000000e+00
    endloop
  endfacet
  facet normal -7.071068e-01 0.000000e+00 7.071068e-01
    outer loop
      vertex 3.600000e+01 -5.000000e+00 6.000000e+00
      vertex 3.500000e+01 5.000000e+00 5.000000e+00
      vertex 3.500000e+01 -5.000000e+00 5.000000e+00
    endloop
  endfacet
  facet normal 7.071068e-01 0.000000e+00 7.071068e-01
    outer loop
      vertex 3.700000e+01 5.000000e+00 5.000000e+00
      vertex 3.600000e+01 5.000000e+00 6.000000e+00
      vertex 3.700000e+01 -5.000000e+00 5.000000e+00
    endloop
  endfacet
  facet normal 7.071068e-01 0.000000e+00 7.071068e-01
    outer loop
      vertex 3.700000e+01 -5.000000e+00 5.000000e+00
      vertex 3.600000e+01 5.000000e+00 6.000000e+00
      vertex 3.600000e+01 -5.000000e+00 6.000000e+00
    endloop
  endfacet
  facet normal -7.071068e-01 0.000000e+00 7.071068e-01
    outer loop
      vertex 3.800000e+01 5.000000e+00 6.000000e+00
      vertex 3.700000e+01 5.000000e+00 5.000000e+00
      vertex 3.800000e+01 -5.000000e+00 6.000000e+00
    endloop
  endfacet
  facet normal -7.071068e-01 0.000000e+00 7.071068e-01
    outer loop
      vertex 3.800000e+01 -5.000000e+00 6.000000e+00
      vertex 3.700000e+01 5.000000e+00 5.000000e+00
      vertex 3.700000e+01 -5.000000e+00 5.000000e+00
    endloop
  endfacet
  facet normal 7.071068e-01 0.000000e+00 7.071068e-01
    outer loop
      vertex 3.900000e+01 5.000000e+00 5.000000e+00
      vertex 3.800000e+01 5.000000e+00 6.000000e+00
      vertex 3.900000e+01 -5.000000e+00 5.000000e+00
    endloop
  endfacet
  facet normal 7.071068e-01 0.000000e+00 7.071068e-01
    outer loop
      vertex 3.900000e+01 -5.000000e+00 5.000000e+00
      vertex 3.800000e+01 5.000000e+00 6.000000e+00
      vertex 3.800000e+01 -5.000000e+00 6.000000e+00
    endloop
  endfacet
  facet normal -7.071068e-01 0.000000e+00 7.071068e-01
    outer loop
      vertex 4.000000e+01 5.000000e+00 6.000000e+00
      vertex 3.900000e+01 5.000000e+00 5.000000e+00
      vertex 4.000000e+01 -5.000000e+00 6.000000e+00
    endloop
  endfacet
  facet normal -7.071068e-01 0.000000e+00 7.071068e-01
    outer loop
      vertex 4.000000e+01 -5.000000e+00 6.000000e+00
      vertex 3.900000e+01 5.000000e+00 5.000000e+00
      vertex 3.900000e+01 -5.000000e+00 5.000000e+00
    endloop
  endfacet
  facet normal 7.071068e-01 0.000000e+00 7.071068e-01
    outer loop
      vertex -7.000000e+00 5.000000e+00 5.000000e+00
      vertex -8.000000e+00 5.000000e+00 6.000000e+00
      vertex -7.000000e+00 -5.000000e+00 5.000000e+00
    endloop
  endfacet
  facet normal 7.071068e-01 0.000000e+00 7.071068e-01
    outer loop
      vertex -7.000000e+00 -5.000000e+00 5.000000e+00
      vertex -8.000000e+00 5.000000e+00 6.000000e+00
      vertex -8.000000e+00 -5.000000e+00 6.000000e+00
    endloop
  endfacet
  facet normal -7.071068e-01 0.000000e+00 7.071068e-01
    outer loop
      vertex -8.000000e+00 5.000000e+00 6.000000e+00
      vertex -9.000000e+00 5.000000e+00 5.000000e+00
      vertex -8.000000e+00 -5.000000e+00 6.000000e+00
    endloop
  endfacet
  facet normal -7.071068e-01 0.000000e+00 7.071068e-01
    outer loop
      vertex -8.000000e+00 -5.000000e+00 6.000000e+00
      vertex -9.000000e+00 5.000000e+00 5.000000e+00
      vertex -9.000000e+00 -5.000000e+00 5.000000e+00
    endloop
  endfacet
  facet normal 7.071068e-01 0.000000e+00 7.071068e-01
    outer loop
      vertex -9.000000e+00 5.000000e+00 5.000000e+00
      vertex -1.000000e+01 5.000000e+00 6.000000e+00
      vertex -9.000000e+00 -5.000000e+00 5.000000e+00
    endloop
  endfacet
  facet normal 7.071068e-01 0.000000e+00 7.071068e-01
    outer loop
      vertex -9.000000e+00 -5.000000e+00 5.000000e+00
      vertex -1.000000e+01 5.000000e+00 6.000000e+00
      vertex -1.000000e+01 -5.000000e+00 6.000000e+00
    endloop
  endfacet
  facet normal -7.071068e-01 0.000000e+00 7.071068e-01
    outer loop
      vertex -1.000000e+01 5.000000e+00 6.000000e+00
      vertex -1.100000e+01 5.000000e+00 5.000000e+00
      vertex -1.000000e+01 -5.000000e+00 6.000000e+00
    endloop
  endfacet
  facet normal -7.071068e-01 0.000000e+00 7.071068e-01
    outer loop
      vertex -1.000000e+01 -5.000000e+00 6.000000e+00
      vertex -1.100000e+01 5.000000e+00 5.000000e+00
      vertex -1.100000e+01 -5.000000e+00 5.000000e+00
    endloop
  endfacet
  facet normal 7.071068e-01 0.000000e+00 7.071068e-01
    outer loop
      vertex -1.100000e+01 5.000000e+00 5.000000e+00
      vertex -1.200000e+01 5.000000e+00 6.000000e+00
      vertex -1.100000e+01 -5.000000e+00 5.000000e+00
    endloop
  endfacet
  facet normal 7.071068e-01 0.000000e+00 7.071068e-01
    outer loop
      vertex -1.100000e+01 -5.000000e+00 5.000000e+00
      vertex -1.200000e+01 5.000000e+00 6.000000e+00
      vertex -1.200000e+01 -5.000000e+00 6.000000e+00
    endloop
  endfacet
  facet normal -7.071068e-01 0.000000e+00 7.071068e-01
    outer loop
      vertex -1.200000e+01 5.000000e+00 6.000000e+00
      vertex -1.300000e+01 5.000000e+00 5.000000e+00
      vertex -1.200000e+01 -5.000000e+00 6.000000e+00
    endloop
  endfacet
  facet normal -7.071068e-01 0.000000e+00 7.071068e-01
    outer loop
      vertex -1.200000e+01 -5.000000e+00 6.000000e+00
      vertex -1.300000e+01 5.000000e+00 5.000000e+00
      vertex -1.300000e+01 -5.000000e+00 5.000000e+00
    endloop
  endfacet
  facet normal 7.071068e-01 0.000000e+00 7.071068e-01
    outer loop
      vertex -1.300000e+01 5.000000e+00 5.000000e+00
      vertex -1.400000e+01 5.000000e+00 6.000000e+00
      vertex -1.300000e+01 -5.000000e+00 5.000000e+00
    endloop
  endfacet
  facet normal 7.071068e-01 0.000000e+00 7.071068e-01
    outer loop
      vertex -1.300000e+01 -5.000000e+00 5.000000e+00
      vertex -1.400000e+01 5.000000e+00 6.000000e+00
      vertex -1.400000e+01 -5.000000e+00 6.000000e+00
    endloop
  endfacet
  facet normal -7.071068e-01 0.000000e+00 7.071068e-01
    outer loop
      vertex -1.400000e+01 5.000000e+00 6.000000e+00
      vertex -1.500000e+01 5.000000e+00 5.000000e+00
      vertex -1.400000e+01 -5.000000e+00 6.000000e+00
    endloop
  endfacet
  facet normal -7.071068e-01 0.000000e+00 7.071068e-01
    outer loop
      vertex -1.400000e+01 -5.000000e+00 6.000000e+00
      vertex -1.500000e+01 5.000000e+00 5.000000e+00
      vertex -1.500000e+01 -5.000000e+00 5.000000e+00
    endloop
  endfacet
  facet normal 7.071068e-01 0.000000e+00 7.071068e-01
    outer loop
      vertex -1.500000e+01 5.000000e+00 5.000000e+00
      vertex -1.600000e+01 5.000000e+00 6.000000e+00
      vertex -1.500000e+01 -5.000000e+00 5.000000e+00
    endloop
  endfacet
  facet normal 7.071068e-01 0.000000e+00 7.071068e-01
    outer loop
      vertex -1.500000e+01 -5.000000e+00 5.000000e+00
      vertex -1.600000e+01 5.000000e+00 6.000000e+00
      vertex -1.600000e+01 -5.000000e+00 6.000000e+00
    endloop
  endfacet
  facet normal -7.071068e-01 0.000000e+00 7.071068e-01
    outer loop
      vertex -1.600000e+01 5.000000e+00 6.000000e+00
      vertex -1.700000e+01 5.000000e+00 5.000000e+00
      vertex -1.600000e+01 -5.000000e+00 6.000000e+00
    endloop
  endfacet
  facet normal -7.071068e-01 0.000000e+00 7.071068e-01
    outer loop
      vertex -1.600000e+01 -5.000000e+00 6.000000e+00
      vertex -1.700000e+01 5.000000e+00 5.000000e+00
      vertex -1.700000e+01 -5.000000e+00 5.000000e+00
    endloop
  endfacet
  facet normal 7.071068e-01 0.000000e+00 7.071068e-01
    outer loop
      vertex -1.700000e+01 5.000000e+00 5.000000e+00
      vertex -1.800000e+01 5.000000e+00 6.000000e+00
      vertex -1.700000e+01 -5.000000e+00 5.000000e+00
    endloop
  endfacet
  facet normal 7.071068e-01 0.000000e+00 7.071068e-01
    outer loop
      vertex -1.700000e+01 -5.000000e+00 5.000000e+00
      vertex -1.800000e+01 5.000000e+00 6.000000e+00
      vertex -1.800000e+01 -5.000000e+00 6.000000e+00
    endloop
  endfacet
  facet normal -7.071068e-01 0.000000e+00 7.071068e-01
    outer loop
      vertex -1.800000e+01 5.000000e+00 6.000000e+00
      vertex -1.900000e+01 5.000000e+00 5.000000e+00
      vertex -1.800000e+01 -5.000000e+00 6.000000e+00
    endloop
  endfacet
  facet normal -7.071068e-01 0.000000e+00 7.071068e-01
    outer loop
      vertex -1.800000e+01 -5.000000e+00 6.000000e+00
      vertex -1.900000e+01 5.000000e+00 5.000000e+00
      vertex -1.900000e+01 -5.000000e+00 5.000000e+00
    endloop
  endfacet
  facet normal 7.071068e-01 0.000000e+00 7.071068e-01
    outer loop
      vertex -2.300000e+01 5.000000e+00 5.000000e+00
      vertex -2.400000e+01 5.000000e+00 6.000000e+00
      vertex -2.300000e+01 -5.000000e+00 5.000000e+00
    endloop
  endfacet
  facet normal 7.071068e-01 0.000000e+00 7.071068e-01
    outer loop
      vertex -2.300000e+01 -5.000000e+00 5.000000e+00
      vertex -2.400000e+01 5.000000e+00 6.000000e+00
      vertex -2.400000e+01 -5.000000e+00 6.000000e+00
    endloop
  endfacet
  facet normal -7.071068e-01 0.000000e+00 7.071068e-01
    outer loop
      vertex -2.400000e+01 5.000000e+00 6.000000e+00
      vertex -2.500000e+01 5.000000e+00 5.000000e+00
      vertex -2.400000e+01 -5.000000e+00 6.000000e+00
    endloop
  endfacet
  facet normal -7.071068e-01 0.000000e+00 7.071068e-01
    outer loop
      vertex -2.400000e+01 -5.000000e+00 6.000000e+00
      vertex -2.500000e+01 5.000000e+00 5.000000e+00
      vertex -2.500000e+01 -5.000000e+00 5.000000e+00
    endloop
  endfacet
  facet normal 7.071068e-01 0.000000e+00 7.071068e-01
    outer loop
      vertex -1.900000e+01 5.000000e+00 5.000000e+00
      vertex -2.000000e+01 5.000000e+00 6.000000e+00
      vertex -1.900000e+01 -5.000000e+00 5.000000e+00
    endloop
  endfacet
  facet normal 7.071068e-01 0.000000e+00 7.071068e-01
    outer loop
      vertex -1.900000e+01 -5.000000e+00 5.000000e+00
      vertex -2.000000e+01 5.000000e+00 6.000000e+00
      vertex -2.000000e+01 -5.000000e+00 6.000000e+00
    endloop
  endfacet
  facet normal -7.071068e-01 0.000000e+00 7.071068e-01
    outer loop
      vertex -2.000000e+01 5.000000e+00 6.000000e+00
      vertex -2.100000e+01 5.000000e+00 5.000000e+00
      vertex -2.000000e+01 -5.000000e+00 6.000000e+00
    endloop
  endfacet
  facet normal -7.071068e-01 0.000000e+00 7.071068e-01
    outer loop
      vertex -2.000000e+01 -5.000000e+00 6.000000e+00
      vertex -2.100000e+01 5.000000e+00 5.000000e+00
      vertex -2.100000e+01 -5.000000e+00 5.000000e+00
    endloop
  endfacet
  facet normal 7.071068e-01 0.000000e+00 7.071068e-01
    outer loop
      vertex -2.100000e+01 5.000000e+00 5.000000e+00
      vertex -2.200000e+01 5.000000e+00 6.000000e+00
      vertex -2.100000e+01 -5.000000e+00 5.000000e+00
    endloop
  endfacet
  facet normal 7.071068e-01 0.000000e+00 7.071068e-01
    outer loop
      vertex -2.100000e+01 -5.000000e+00 5.000000e+00
      vertex -2.200000e+01 5.000000e+00 6.000000e+00
      vertex -2.200000e+01 -5.000000e+00 6.000000e+00
    endloop
  endfacet
  facet normal -7.071068e-01 0.000000e+00 7.071068e-01
    outer loop
      vertex -2.200000e+01 5.000000e+00 6.000000e+00
      vertex -2.300000e+01 5.000000e+00 5.000000e+00
      vertex -2.200000e+01 -5.000000e+00 6.000000e+00
    endloop
  endfacet
  facet normal -7.071068e-01 0.000000e+00 7.071068e-01
    outer loop
      vertex -2.200000e+01 -5.000000e+00 6.000000e+00
      vertex -2.300000e+01 5.000000e+00 5.000000e+00
      vertex -2.300000e+01 -5.000000e+00 5.000000e+00
    endloop
  endfacet
  facet normal 7.071068e-01 0.000000e+00 7.071068e-01
    outer loop
      vertex -2.500000e+01 5.000000e+00 5.000000e+00
      vertex -2.600000e+01 5.000000e+00 6.000000e+00
      vertex -2.500000e+01 -5.000000e+00 5.000000e+00
    endloop
  endfacet
  facet normal 7.071068e-01 0.000000e+00 7.071068e-01
    outer loop
      vertex -2.500000e+01 -5.000000e+00 5.000000e+00
      vertex -2.600000e+01 5.000000e+00 6.000000e+00
      vertex -2.600000e+01 -5.000000e+00 6.000000e+00
    endloop
  endfacet
  facet normal -7.071068e-01 0.000000e+00 7.071068e-01
    outer loop
      vertex -2.600000e+01 5.000000e+00 6.000000e+00
      vertex -2.700000e+01 5.000000e+00 5.000000e+00
      vertex -2.600000e+01 -5.000000e+00 6.000000e+00
    endloop
  endfacet
  facet normal -7.071068e-01 0.000000e+00 7.071068e-01
    outer loop
      vertex -2.600000e+01 -5.000000e+00 6.000000e+00
      vertex -2.700000e+01 5.000000e+00 5.000000e+00
      vertex -2.700000e+01 -5.000000e+00 5.000000e+00
    endloop
  endfacet
  facet normal 7.071068e-01 0.000000e+00 7.071068e-01
    outer loop
      vertex -2.700000e+01 5.000000e+00 5.000000e+00
      vertex -2.800000e+01 5.000000e+00 6.000000e+00
      vertex -2.700000e+01 -5.000000e+00 5.000000e+00
    endloop
  endfacet
  facet normal 7.071068e-01 0.000000e+00 7.071068e-01
    outer loop
      vertex -2.700000e+01 -5.000000e+00 5.000000e+00
      vertex -2.800000e+01 5.000000e+00 6.000000e+00
      vertex -2.800000e+01 -5.000000e+00 6.000000e+00
    endloop
  endfacet
  facet normal -7.071068e-01 0.000000e+00 7.071068e-01
    outer loop
      vertex -2.800000e+01 5.000000e+00 6.000000e+00
      vertex -2.900000e+01 5.000000e+00 5.000000e+00
      vertex -2.800000e+01 -5.000000e+00 6.000000e+00
    endloop
  endfacet
  facet normal -7.071068e-01 0.000000e+00 7.071068e-01
    outer loop
      vertex -2.800000e+01 -5.000000e+00 6.000000e+00
      vertex -2.900000e+01 5.000000e+00 5.000000e+00
      vertex -2.900000e+01 -5.000000e+00 5.000000e+00
    endloop
  endfacet
  facet normal 7.071068e-01 0.000000e+00 7.071068e-01
    outer loop
      vertex -3.700000e+01 5.000000e+00 5.000000e+00
      vertex -3.800000e+01 5.000000e+00 6.000000e+00
      vertex -3.700000e+01 -5.000000e+00 5.000000e+00
    endloop
  endfacet
  facet normal 7.071068e-01 0.000000e+00 7.071068e-01
    outer loop
      vertex -3.700000e+01 -5.000000e+00 5.000000e+00
      vertex -3.800000e+01 5.000000e+00 6.000000e+00
      vertex -3.800000e+01 -5.000000e+00 6.000000e+00
    endloop
  endfacet
  facet normal -7.071068e-01 0.000000e+00 7.071068e-01
    outer loop
      vertex -3.800000e+01 5.000000e+00 6.000000e+00
      vertex -3.900000e+01 5.000000e+00 5.000000e+00
      vertex -3.800000e+01 -5.000000e+00 6.000000e+00
    endloop
  endfacet
  facet normal -7.071068e-01 0.000000e+00 7.071068e-01
    outer loop
      vertex -3.800000e+01 -5.000000e+00 6.000000e+00
      vertex -3.900000e+01 5.000000e+00 5.000000e+00
      vertex -3.900000e+01 -5.000000e+00 5.000000e+00
    endloop
  endfacet
  facet normal 7.071068e-01 0.000000e+00 7.071068e-01
    outer loop
      vertex -2.900000e+01 5.000000e+00 5.000000e+00
      vertex -3.000000e+01 5.000000e+00 6.000000e+00
      vertex -2.900000e+01 -5.000000e+00 5.000000e+00
    endloop
  endfacet
  facet normal 7.071068e-01 0.000000e+00 7.071068e-01
    outer loop
      vertex -2.900000e+01 -5.000000e+00 5.000000e+00
      vertex -3.000000e+01 5.000000e+00 6.000000e+00
      vertex -3.000000e+01 -5.000000e+00 6.000000e+00
    endloop
  endfacet
  facet normal -7.071068e-01 0.000000e+00 7.071068e-01
    outer loop
      vertex -3.000000e+01 5.000000e+00 6.000000e+00
      vertex -3.100000e+01 5.000000e+00 5.000000e+00
      vertex -3.000000e+01 -5.000000e+00 6.000000e+00
    endloop
  endfacet
  facet normal -7.071068e-01 0.000000e+00 7.071068e-01
    outer loop
      vertex -3.000000e+01 -5.000000e+00 6.000000e+00
      vertex -3.100000e+01 5.000000e+00 5.000000e+00
      vertex -3.100000e+01 -5.000000e+00 5.000000e+00
    endloop
  endfacet
  facet normal 7.071068e-01 0.000000e+00 7.071068e-01
    outer loop
      vertex -3.100000e+01 5.000000e+00 5.000000e+00
      vertex -3.200000e+01 5.000000e+00 6.000000e+00
      vertex -3.100000e+01 -5.000000e+00 5.000000e+00
    endloop
  endfacet
  facet normal 7.071068e-01 0.000000e+00 7.071068e-01
    outer loop
      vertex -3.100000e+01 -5.000000e+00 5.000000e+00
      vertex -3.200000e+01 5.000000e+00 6.000000e+00
      vertex -3.200000e+01 -5.000000e+00 6.000000e+00
    endloop
  endfacet
  facet normal -7.071068e-01 0.000000e+00 7.071068e-01
    outer loop
      vertex -3.200000e+01 5.000000e+00 6.000000e+00
      vertex -3.300000e+01 5.000000e+00 5.000000e+00
      vertex -3.200000e+01 -5.000000e+00 6.000000e+00
    endloop
  endfacet
  facet normal -7.071068e-01 0.000000e+00 7.071068e-01
    outer loop
      vertex -3.200000e+01 -5.000000e+00 6.000000e+00
      vertex -3.300000e+01 5.000000e+00 5.000000e+00
      vertex -3.300000e+01 -5.000000e+00 5.000000e+00
    endloop
  endfacet
  facet normal 7.071068e-01 0.000000e+00 7.071068e-01
    outer loop
      vertex -3.300000e+01 5.000000e+00 5.000000e+00
      vertex -3.400000e+01 5.000000e+00 6.000000e+00
      vertex -3.300000e+01 -5.000000e+00 5.000000e+00
    endloop
  endfacet
  facet normal 7.071068e-01 0.000000e+00 7.071068e-01
    outer loop
      vertex -3.300000e+01 -5.000000e+00 5.000000e+00
      vertex -3.400000e+01 5.000000e+00 6.000000e+00
      vertex -3.400000e+01 -5.000000e+00 6.000000e+00
    endloop
  endfacet
  facet normal -7.071068e-01 0.000000e+00 7.071068e-01
    outer loop
      vertex -3.400000e+01 5.000000e+00 6.000000e+00
      vertex -3.500000e+01 5.000000e+00 5.000000e+00
      vertex -3.400000e+01 -5.000000e+00 6.000000e+00
    endloop
  endfacet
  facet normal -7.071068e-01 0.000000e+00 7.071068e-01
    outer loop
      vertex -3.400000e+01 -5.000000e+00 6.000000e+00
      vertex -3.500000e+01 5.000000e+00 5.000000e+00
      vertex -3.500000e+01 -5.000000e+00 5.000000e+00
    endloop
  endfacet
  facet normal 7.071068e-01 0.000000e+00 7.071068e-01
    outer loop
      vertex -3.500000e+01 5.000000e+00 5.000000e+00
      vertex -3.600000e+01 5.000000e+00 6.000000e+00
      vertex -3.500000e+01 -5.000000e+00 5.000000e+00
    endloop
  endfacet
  facet normal 7.071068e-01 0.000000e+00 7.071068e-01
    outer loop
      vertex -3.500000e+01 -5.000000e+00 5.000000e+00
      vertex -3.600000e+01 5.000000e+00 6.000000e+00
      vertex -3.600000e+01 -5.000000e+00 6.000000e+00
    endloop
  endfacet
  facet normal -7.071068e-01 0.000000e+00 7.071068e-01
    outer loop
      vertex -3.600000e+01 5.000000e+00 6.000000e+00
      vertex -3.700000e+01 5.000000e+00 5.000000e+00
      vertex -3.600000e+01 -5.000000e+00 6.000000e+00
    endloop
  endfacet
  facet normal -7.071068e-01 0.000000e+00 7.071068e-01
    outer loop
      vertex -3.600000e+01 -5.000000e+00 6.000000e+00
      vertex -3.700000e+01 5.000000e+00 5.000000e+00
      vertex -3.700000e+01 -5.000000e+00 5.000000e+00
    endloop
  endfacet
  facet normal 7.071068e-01 0.000000e+00 7.071068e-01
    outer loop
      vertex -3.900000e+01 5.000000e+00 5.000000e+00
      vertex -4.000000e+01 5.000000e+00 6.000000e+00
      vertex -3.900000e+01 -5.000000e+00 5.000000e+00
    endloop
  endfacet
  facet normal 7.071068e-01 0.000000e+00 7.071068e-01
    outer loop
      vertex -3.900000e+01 -5.000000e+00 5.000000e+00
      vertex -4.000000e+01 5.000000e+00 6.000000e+00
      vertex -4.000000e+01 -5.000000e+00 6.000000e+00
    endloop
  endfacet
  facet normal -1.000000e+00 -0.000000e+00 -0.000000e+00
    outer loop
      vertex -4.000000e+01 5.000000e+00 6.000000e+00
      vertex -4.000000e+01 5.000000e+00 0.000000e+00
      vertex -4.000000e+01 -5.000000e+00 6.000000e+00
    endloop
  endfacet
  facet normal -1.000000e+00 -0.000000e+00 -0.000000e+00
    outer loop
      vertex -4.000000e+01 -5.000000e+00 6.000000e+00
      vertex -4.000000e+01 5.000000e+00 0.000000e+00
      vertex -4.000000e+01 -5.000000e+00 0.000000e+00
    endloop
  endfacet
  facet normal 0.000000e+00 1.000000e+00 0.000000e+00
    outer loop
      vertex 4.000000e+01 5.000000e+00 6.000000e+00
      vertex 4.000000e+01 5.000000e+00 0.000000e+00
      vertex 3.900000e+01 5.000000e+00 5.000000e+00
    endloop
  endfacet
  facet normal 0.000000e+00 1.000000e+00 0.000000e+00
    outer loop
      vertex 3.900000e+01 5.000000e+00 5.000000e+00
      vertex 4.000000e+01 5.000000e+00 0.000000e+00
      vertex 3.700000e+01 5.000000e+00 5.000000e+00
    endloop
  endfacet
  facet normal 0.000000e+00 1.000000e+00 0.000000e+00
    outer loop
      vertex 3.800000e+01 5.000000e+00 6.000000e+00
      vertex 3.900000e+01 5.000000e+00 5.000000e+00
      vertex 3.700000e+01 5.000000e+00 5.000000e+00
    endloop
  endfacet
  facet normal 0.000000e+00 1.000000e+00 0.000000e+00
    outer loop
      vertex -4.000000e+01 5.000000e+00 0.000000e+00
      vertex 1.000000e+00 5.000000e+00 5.000000e+00
      vertex 4.000000e+01 5.000000e+00 0.000000e+00
    endloop
  endfacet
  facet normal 0.000000e+00 1.000000e+00 0.000000e+00
    outer loop
      vertex -4.000000e+01 5.000000e+00 0.000000e+00
      vertex -1.000000e+00 5.000000e+00 5.000000e+00
      vertex 1.000000e+00 5.000000e+00 5.000000e+00
    endloop
  endfacet
  facet normal 0.000000e+00 1.000000e+00 0.000000e+00
    outer loop
      vertex -4.000000e+01 5.000000e+00 0.000000e+00
      vertex -3.000000e+00 5.000000e+00 5.000000e+00
      vertex -1.000000e+00 5.000000e+00 5.000000e+00
    endloop
  endfacet
  facet normal 0.000000e+00 1.000000e+00 0.000000e+00
    outer loop
      vertex -4.000000e+01 5.000000e+00 0.000000e+00
      vertex -5.000000e+00 5.000000e+00 5.000000e+00
      vertex -3.000000e+00 5.000000e+00 5.000000e+00
    endloop
  endfacet
  facet normal 0.000000e+00 1.000000e+00 0.000000e+00
    outer loop
      vertex -4.000000e+01 5.000000e+00 0.000000e+00
      vertex -7.000000e+00 5.000000e+00 5.000000e+00
      vertex -5.000000e+00 5.000000e+00 5.000000e+00
    endloop
  endfacet
  facet normal 0.000000e+00 1.000000e+00 0.000000e+00
    outer loop
      vertex -4.000000e+01 5.000000e+00 0.000000e+00
      vertex -9.000000e+00 5.000000e+00 5.000000e+00
      vertex -7.000000e+00 5.000000e+00 5.000000e+00
    endloop
  endfacet
  facet normal 0.000000e+00 1.000000e+00 0.000000e+00
    outer loop
      vertex -4.000000e+01 5.000000e+00 0.000000e+00
      vertex -1.100000e+01 5.000000e+00 5.000000e+00
      vertex -9.000000e+00 5.000000e+00 5.000000e+00
    endloop
  endfacet
  facet normal 0.000000e+00 1.000000e+00 0.000000e+00
    outer loop
      vertex -4.000000e+01 5.000000e+00 0.000000e+00
      vertex -1.300000e+01 5.000000e+00 5.000000e+00
      vertex -1.100000e+01 5.000000e+00 5.000000e+00
    endloop
  endfacet
  facet normal 0.000000e+00 1.000000e+00 0.000000e+00
    outer loop
      vertex -4.000000e+01 5.000000e+00 0.000000e+00
      vertex -1.500000e+01 5.000000e+00 5.000000e+00
      vertex -1.300000e+01 5.000000e+00 5.000000e+00
    endloop
  endfacet
  facet normal 0.000000e+00 1.000000e+00 0.000000e+00
    outer loop
      vertex -4.000000e+01 5.000000e+00 0.000000e+00
      vertex -1.700000e+01 5.000000e+00 5.000000e+00
      vertex -1.500000e+01 5.000000e+00 5.000000e+00
    endloop
  endfacet
  facet normal 0.000000e+00 1.000000e+00 0.000000e+00
    outer loop
      vertex -4.000000e+01 5.000000e+00 0.000000e+00
      vertex -1.900000e+01 5.000000e+00 5.000000e+00
      vertex -1.700000e+01 5.000000e+00 5.000000e+00
    endloop
  endfacet
  facet normal 0.000000e+00 1.000000e+00 0.000000e+00
    outer loop
      vertex -4.000000e+01 5.000000e+00 0.000000e+00
      vertex -2.100000e+01 5.000000e+00 5.000000e+00
      vertex -1.900000e+01 5.000000e+00 5.000000e+00
    endloop
  endfacet
  facet normal 0.000000e+00 1.000000e+00 0.000000e+00
    outer loop
      vertex -4.000000e+01 5.000000e+00 0.000000e+00
      vertex -2.300000e+01 5.000000e+00 5.000000e+00
      vertex -2.100000e+01 5.000000e+00 5.000000e+00
    endloop
  endfacet
  facet normal 0.000000e+00 1.000000e+00 0.000000e+00
    outer loop
      vertex -4.000000e+01 5.000000e+00 0.000000e+00
      vertex -2.500000e+01 5.000000e+00 5.000000e+00
      vertex -2.300000e+01 5.000000e+00 5.000000e+00
    endloop
  endfacet
  facet normal 0.000000e+00 1.000000e+00 0.000000e+00
    outer loop
      vertex -4.000000e+01 5.000000e+00 0.000000e+00
      vertex -2.700000e+01 5.000000e+00 5.000000e+00
      vertex -2.500000e+01 5.000000e+00 5.000000e+00
    endloop
  endfacet
  facet normal 0.000000e+00 1.000000e+00 0.000000e+00
    outer loop
      vertex -4.000000e+01 5.000000e+00 0.000000e+00
      vertex -2.900000e+01 5.000000e+00 5.000000e+00
      vertex -2.700000e+01 5.000000e+00 5.000000e+00
    endloop
  endfacet
  facet normal 0.000000e+00 1.000000e+00 0.000000e+00
    outer loop
      vertex -4.000000e+01 5.000000e+00 0.000000e+00
      vertex -3.100000e+01 5.000000e+00 5.000000e+00
      vertex -2.900000e+01 5.000000e+00 5.000000e+00
    endloop
  endfacet
  facet normal 0.000000e+00 1.000000e+00 0.000000e+00
    outer loop
      vertex -4.000000e+01 5.000000e+00 0.000000e+00
      vertex -3.300000e+01 5.000000e+00 5.000000e+00
      vertex -3.100000e+01 5.000000e+00 5.000000e+00
    endloop
  endfacet
  facet normal 0.000000e+00 1.000000e+00 0.000000e+00
    outer loop
      vertex -4.000000e+01 5.000000e+00 0.000000e+00
      vertex -3.500000e+01 5.000000e+00 5.000000e+00
      vertex -3.300000e+01 5.000000e+00 5.000000e+00
    endloop
  endfacet
  facet normal 0.000000e+00 1.000000e+00 0.000000e+00
    outer loop
      vertex -4.000000e+01 5.000000e+00 0.000000e+00
      vertex -3.700000e+01 5.000000e+00 5.000000e+00
      vertex -3.500000e+01 5.000000e+00 5.000000e+00
    endloop
  endfacet
  facet normal 0.000000e+00 1.000000e+00 0.000000e+00
    outer loop
      vertex -4.000000e+01 5.000000e+00 0.000000e+00
      vertex -3.900000e+01 5.000000e+00 5.000000e+00
      vertex -3.700000e+01 5.000000e+00 5.000000e+00
    endloop
  endfacet
  facet normal 0.000000e+00 1.000000e+00 0.000000e+00
    outer loop
      vertex -4.000000e+01 5.000000e+00 0.000000e+00
      vertex -4.000000e+01 5.000000e+00 6.000000e+00
      vertex -3.900000e+01 5.000000e+00 5.000000e+00
    endloop
  endfacet
  facet normal 0.000000e+00 1.000000e+00 0.000000e+00
    outer loop
      vertex -3.900000e+01 5.000000e+00 5.000000e+00
      vertex -3.800000e+01 5.000000e+00 6.000000e+00
      vertex -3.700000e+01 5.000000e+00 5.000000e+00
    endloop
  endfacet
  facet normal 0.000000e+00 1.000000e+00 0.000000e+00
    outer loop
      vertex -3.700000e+01 5.000000e+00 5.000000e+00
      vertex -3.600000e+01 5.000000e+00 6.000000e+00
      vertex -3.500000e+01 5.000000e+00 5.000000e+00
    endloop
  endfacet
  facet normal 0.000000e+00 1.000000e+00 0.000000e+00
    outer loop
      vertex -3.500000e+01 5.000000e+00 5.000000e+00
      vertex -3.400000e+01 5.000000e+00 6.000000e+00
      vertex -3.300000e+01 5.000000e+00 5.000000e+00
    endloop
  endfacet
  facet normal 0.000000e+00 1.000000e+00 0.000000e+00
    outer loop
      vertex -3.300000e+01 5.000000e+00 5.000000e+00
      vertex -3.200000e+01 5.000000e+00 6.000000e+00
      vertex -3.100000e+01 5.000000e+00 5.000000e+00
    endloop
  endfacet
  facet normal 0.000000e+00 1.000000e+00 0.000000e+00
    outer loop
      vertex -3.100000e+01 5.000000e+00 5.000000e+00
      vertex -3.000000e+01 5.000000e+00 6.000000e+00
      vertex -2.900000e+01 5.000000e+00 5.000000e+00
    endloop
  endfacet
  facet normal 0.000000e+00 1.000000e+00 0.000000e+00
    outer loop
      vertex -2.900000e+01 5.000000e+00 5.000000e+00
      vertex -2.800000e+01 5.000000e+00 6.000000e+00
      vertex -2.700000e+01 5.000000e+00 5.000000e+00
    endloop
  endfacet
  facet normal 0.000000e+00 1.000000e+00 0.000000e+00
    outer loop
      vertex -2.700000e+01 5.000000e+00 5.000000e+00
      vertex -2.600000e+01 5.000000e+00 6.000000e+00
      vertex -2.500000e+01 5.000000e+00 5.000000e+00
    endloop
  endfacet
  facet normal 0.000000e+00 1.000000e+00 0.000000e+00
    outer loop
      vertex -2.500000e+01 5.000000e+00 5.000000e+00
      vertex -2.400000e+01 5.000000e+00 6.000000e+00
      vertex -2.300000e+01 5.000000e+00 5.000000e+00
    endloop
  endfacet
  facet normal 0.000000e+00 1.000000e+00 0.000000e+00
    outer loop
      vertex -2.300000e+01 5.000000e+00 5.000000e+00
      vertex -2.200000e+01 5.000000e+00 6.000000e+00
      vertex -2.100000e+01 5.000000e+00 5.000000e+00
    endloop
  endfacet
  facet normal 0.000000e+00 1.000000e+00 0.000000e+00
    outer loop
      vertex -2.100000e+01 5.000000e+00 5.000000e+00
      vertex -2.000000e+01 5.000000e+00 6.000000e+00
      vertex -1.900000e+01 5.000000e+00 5.000000e+00
    endloop
  endfacet
  facet normal 0.000000e+00 1.000000e+00 0.000000e+00
    outer loop
      vertex -1.900000e+01 5.000000e+00 5.000000e+00
      vertex -1.800000e+01 5.000000e+00 6.000000e+00
      vertex -1.700000e+01 5.000000e+00 5.000000e+00
    endloop
  endfacet
  facet normal 0.000000e+00 1.000000e+00 0.000000e+00
    outer loop
      vertex -1.700000e+01 5.000000e+00 5.000000e+00
      vertex -1.600000e+01 5.000000e+00 6.000000e+00
      vertex -1.500000e+01 5.000000e+00 5.000000e+00
    endloop
  endfacet
  facet normal 0.000000e+00 1.000000e+00 0.000000e+00
    outer loop
      vertex -1.500000e+01 5.000000e+00 5.000000e+00
      vertex -1.400000e+01 5.000000e+00 6.000000e+00
      vertex -1.300000e+01 5.000000e+00 5.000000e+00
    endloop
  endfacet
  facet normal 0.000000e+00 1.000000e+00 0.000000e+00
    outer loop
      vertex -1.300000e+01 5.000000e+00 5.000000e+00
      vertex -1.200000e+01 5.000000e+00 6.000000e+00
      vertex -1.100000e+01 5.000000e+00 5.000000e+00
    endloop
  endfacet
  facet normal 0.000000e+00 1.000000e+00 0.000000e+00
    outer loop
      vertex -1.100000e+01 5.000000e+00 5.000000e+00
      vertex -1.000000e+01 5.000000e+00 6.000000e+00
      vertex -9.000000e+00 5.000000e+00 5.000000e+00
    endloop
  endfacet
  facet normal 0.000000e+00 1.000000e+00 0.000000e+00
    outer loop
      vertex -9.000000e+00 5.000000e+00 5.000000e+00
      vertex -8.000000e+00 5.000000e+00 6.000000e+00
      vertex -7.000000e+00 5.000000e+00 5.000000e+00
    endloop
  endfacet
  facet normal 0.000000e+00 1.000000e+00 0.000000e+00
    outer loop
      vertex -7.000000e+00 5.000000e+00 5.000000e+00
      vertex -6.000000e+00 5.000000e+00 6.000000e+00
      vertex -5.000000e+00 5.000000e+00 5.000000e+00
    endloop
  endfacet
  facet normal 0.000000e+00 1.000000e+00 0.000000e+00
    outer loop
      vertex -5.000000e+00 5.000000e+00 5.000000e+00
      vertex -4.000000e+00 5.000000e+00 6.000000e+00
      vertex -3.000000e+00 5.000000e+00 5.000000e+00
    endloop
  endfacet
  facet normal 0.000000e+00 1.000000e+00 0.000000e+00
    outer loop
      vertex -3.000000e+00 5.000000e+00 5.000000e+00
      vertex -2.000000e+00 5.000000e+00 6.000000e+00
      vertex -1.000000e+00 5.000000e+00 5.000000e+00
    endloop
  endfacet
  facet normal 0.000000e+00 1.000000e+00 0.000000e+00
    outer loop
      vertex -1.000000e+00 5.000000e+00 5.000000e+00
      vertex 0.000000e+00 5.000000e+00 6.000000e+00
      vertex 1.000000e+00 5.000000e+00 5.000000e+00
    endloop
  endfacet
  facet normal 0.000000e+00 1.000000e+00 0.000000e+00
    outer loop
      vertex 2.000000e+00 5.000000e+00 6.000000e+00
      vertex 3.000000e+00 5.000000e+00 5.000000e+00
      vertex 1.000000e+00 5.000000e+00 5.000000e+00
    endloop
  endfacet
  facet normal 0.000000e+00 1.000000e+00 0.000000e+00
    outer loop
      vertex 1.000000e+00 5.000000e+00 5.000000e+00
      vertex 3.000000e+00 5.000000e+00 5.000000e+00
      vertex 4.000000e+01 5.000000e+00 0.000000e+00
    endloop
  endfacet
  facet normal 0.000000e+00 1.000000e+00 0.000000e+00
    outer loop
      vertex 4.000000e+01 5.000000e+00 0.000000e+00
      vertex 3.000000e+00 5.000000e+00 5.000000e+00
      vertex 5.000000e+00 5.000000e+00 5.000000e+00
    endloop
  endfacet
  facet normal 0.000000e+00 1.000000e+00 0.000000e+00
    outer loop
      vertex 7.000000e+00 5.000000e+00 5.000000e+00
      vertex 5.000000e+00 5.000000e+00 5.000000e+00
      vertex 6.000000e+00 5.000000e+00 6.000000e+00
    endloop
  endfacet
  facet normal 0.000000e+00 1.000000e+00 0.000000e+00
    outer loop
      vertex 7.000000e+00 5.000000e+00 5.000000e+00
      vertex 4.000000e+01 5.000000e+00 0.000000e+00
      vertex 5.000000e+00 5.000000e+00 5.000000e+00
    endloop
  endfacet
  facet normal 0.000000e+00 1.000000e+00 0.000000e+00
    outer loop
      vertex 7.000000e+00 5.000000e+00 5.000000e+00
      vertex 9.000000e+00 5.000000e+00 5.000000e+00
      vertex 4.000000e+01 5.000000e+00 0.000000e+00
    endloop
  endfacet
  facet normal 0.000000e+00 1.000000e+00 0.000000e+00
    outer loop
      vertex 7.000000e+00 5.000000e+00 5.000000e+00
      vertex 8.000000e+00 5.000000e+00 6.000000e+00
      vertex 9.000000e+00 5.000000e+00 5.000000e+00
    endloop
  endfacet
  facet normal 0.000000e+00 1.000000e+00 0.000000e+00
    outer loop
      vertex 3.000000e+00 5.000000e+00 5.000000e+00
      vertex 4.000000e+00 5.000000e+00 6.000000e+00
      vertex 5.000000e+00 5.000000e+00 5.000000e+00
    endloop
  endfacet
  facet normal 0.000000e+00 1.000000e+00 0.000000e+00
    outer loop
      vertex 1.000000e+01 5.000000e+00 6.000000e+00
      vertex 1.100000e+01 5.000000e+00 5.000000e+00
      vertex 9.000000e+00 5.000000e+00 5.000000e+00
    endloop
  endfacet
  facet normal 0.000000e+00 1.000000e+00 0.000000e+00
    outer loop
      vertex 9.000000e+00 5.000000e+00 5.000000e+00
      vertex 1.100000e+01 5.000000e+00 5.000000e+00
      vertex 4.000000e+01 5.000000e+00 0.000000e+00
    endloop
  endfacet
  facet normal 0.000000e+00 1.000000e+00 0.000000e+00
    outer loop
      vertex 4.000000e+01 5.000000e+00 0.000000e+00
      vertex 1.100000e+01 5.000000e+00 5.000000e+00
      vertex 1.300000e+01 5.000000e+00 5.000000e+00
    endloop
  endfacet
  facet normal 0.000000e+00 1.000000e+00 0.000000e+00
    outer loop
      vertex 1.500000e+01 5.000000e+00 5.000000e+00
      vertex 1.300000e+01 5.000000e+00 5.000000e+00
      vertex 1.400000e+01 5.000000e+00 6.000000e+00
    endloop
  endfacet
  facet normal 0.000000e+00 1.000000e+00 0.000000e+00
    outer loop
      vertex 1.500000e+01 5.000000e+00 5.000000e+00
      vertex 4.000000e+01 5.000000e+00 0.000000e+00
      vertex 1.300000e+01 5.000000e+00 5.000000e+00
    endloop
  endfacet
  facet normal 0.000000e+00 1.000000e+00 0.000000e+00
    outer loop
      vertex 1.500000e+01 5.000000e+00 5.000000e+00
      vertex 1.700000e+01 5.000000e+00 5.000000e+00
      vertex 4.000000e+01 5.000000e+00 0.000000e+00
    endloop
  endfacet
  facet normal 0.000000e+00 1.000000e+00 0.000000e+00
    outer loop
      vertex 1.500000e+01 5.000000e+00 5.000000e+00
      vertex 1.600000e+01 5.000000e+00 6.000000e+00
      vertex 1.700000e+01 5.000000e+00 5.000000e+00
    endloop
  endfacet
  facet normal 0.000000e+00 1.000000e+00 0.000000e+00
    outer loop
      vertex 1.100000e+01 5.000000e+00 5.000000e+00
      vertex 1.200000e+01 5.000000e+00 6.000000e+00
      vertex 1.300000e+01 5.000000e+00 5.000000e+00
    endloop
  endfacet
  facet normal 0.000000e+00 1.000000e+00 0.000000e+00
    outer loop
      vertex 1.800000e+01 5.000000e+00 6.000000e+00
      vertex 1.900000e+01 5.000000e+00 5.000000e+00
      vertex 1.700000e+01 5.000000e+00 5.000000e+00
    endloop
  endfacet
  facet normal 0.000000e+00 1.000000e+00 0.000000e+00
    outer loop
      vertex 1.700000e+01 5.000000e+00 5.000000e+00
      vertex 1.900000e+01 5.000000e+00 5.000000e+00
      vertex 4.000000e+01 5.000000e+00 0.000000e+00
    endloop
  endfacet
  facet normal 0.000000e+00 1.000000e+00 0.000000e+00
    outer loop
      vertex 4.000000e+01 5.000000e+00 0.000000e+00
      vertex 1.900000e+01 5.000000e+00 5.000000e+00
      vertex 2.100000e+01 5.000000e+00 5.000000e+00
    endloop
  endfacet
  facet normal 0.000000e+00 1.000000e+00 0.000000e+00
    outer loop
      vertex 2.300000e+01 5.000000e+00 5.000000e+00
      vertex 2.100000e+01 5.000000e+00 5.000000e+00
      vertex 2.200000e+01 5.000000e+00 6.000000e+00
    endloop
  endfacet
  facet normal 0.000000e+00 1.000000e+00 0.000000e+00
    outer loop
      vertex 2.300000e+01 5.000000e+00 5.000000e+00
      vertex 4.000000e+01 5.000000e+00 0.000000e+00
      vertex 2.100000e+01 5.000000e+00 5.000000e+00
    endloop
  endfacet
  facet normal 0.000000e+00 1.000000e+00 0.000000e+00
    outer loop
      vertex 2.300000e+01 5.000000e+00 5.000000e+00
      vertex 2.500000e+01 5.000000e+00 5.000000e+00
      vertex 4.000000e+01 5.000000e+00 0.000000e+00
    endloop
  endfacet
  facet normal 0.000000e+00 1.000000e+00 0.000000e+00
    outer loop
      vertex 2.300000e+01 5.000000e+00 5.000000e+00
      vertex 2.400000e+01 5.000000e+00 6.000000e+00
      vertex 2.500000e+01 5.000000e+00 5.000000e+00
    endloop
  endfacet
  facet normal 0.000000e+00 1.000000e+00 0.000000e+00
    outer loop
      vertex 1.900000e+01 5.000000e+00 5.000000e+00
      vertex 2.000000e+01 5.000000e+00 6.000000e+00
      vertex 2.100000e+01 5.000000e+00 5.000000e+00
    endloop
  endfacet
  facet normal 0.000000e+00 1.000000e+00 0.000000e+00
    outer loop
      vertex 2.600000e+01 5.000000e+00 6.000000e+00
      vertex 2.700000e+01 5.000000e+00 5.000000e+00
      vertex 2.500000e+01 5.000000e+00 5.000000e+00
    endloop
  endfacet
  facet normal 0.000000e+00 1.000000e+00 0.000000e+00
    outer loop
      vertex 2.500000e+01 5.000000e+00 5.000000e+00
      vertex 2.700000e+01 5.000000e+00 5.000000e+00
      vertex 4.000000e+01 5.000000e+00 0.000000e+00
    endloop
  endfacet
  facet normal 0.000000e+00 1.000000e+00 0.000000e+00
    outer loop
      vertex 4.000000e+01 5.000000e+00 0.000000e+00
      vertex 2.700000e+01 5.000000e+00 5.000000e+00
      vertex 2.900000e+01 5.000000e+00 5.000000e+00
    endloop
  endfacet
  facet normal 0.000000e+00 1.000000e+00 0.000000e+00
    outer loop
      vertex 3.100000e+01 5.000000e+00 5.000000e+00
      vertex 2.900000e+01 5.000000e+00 5.000000e+00
      vertex 3.000000e+01 5.000000e+00 6.000000e+00
    endloop
  endfacet
  facet normal 0.000000e+00 1.000000e+00 0.000000e+00
    outer loop
      vertex 3.100000e+01 5.000000e+00 5.000000e+00
      vertex 4.000000e+01 5.000000e+00 0.000000e+00
      vertex 2.900000e+01 5.000000e+00 5.000000e+00
    endloop
  endfacet
  facet normal 0.000000e+00 1.000000e+00 0.000000e+00
    outer loop
      vertex 3.100000e+01 5.000000e+00 5.000000e+00
      vertex 3.300000e+01 5.000000e+00 5.000000e+00
      vertex 4.000000e+01 5.000000e+00 0.000000e+00
    endloop
  endfacet
  facet normal 0.000000e+00 1.000000e+00 0.000000e+00
    outer loop
      vertex 3.100000e+01 5.000000e+00 5.000000e+00
      vertex 3.200000e+01 5.000000e+00 6.000000e+00
      vertex 3.300000e+01 5.000000e+00 5.000000e+00
    endloop
  endfacet
  facet normal 0.000000e+00 1.000000e+00 0.000000e+00
    outer loop
      vertex 2.700000e+01 5.000000e+00 5.000000e+00
      vertex 2.800000e+01 5.000000e+00 6.000000e+00
      vertex 2.900000e+01 5.000000e+00 5.000000e+00
    endloop
  endfacet
  facet normal 0.000000e+00 1.000000e+00 0.000000e+00
    outer loop
      vertex 3.400000e+01 5.000000e+00 6.000000e+00
      vertex 3.500000e+01 5.000000e+00 5.000000e+00
      vertex 3.300000e+01 5.000000e+00 5.000000e+00
    endloop
  endfacet
  facet normal 0.000000e+00 1.000000e+00 0.000000e+00
    outer loop
      vertex 3.300000e+01 5.000000e+00 5.000000e+00
      vertex 3.500000e+01 5.000000e+00 5.000000e+00
      vertex 4.000000e+01 5.000000e+00 0.000000e+00
    endloop
  endfacet
  facet normal 0.000000e+00 1.000000e+00 0.000000e+00
    outer loop
      vertex 4.000000e+01 5.000000e+00 0.000000e+00
      vertex 3.500000e+01 5.000000e+00 5.000000e+00
      vertex 3.700000e+01 5.000000e+00 5.000000e+00
    endloop
  endfacet
  facet normal 0.000000e+00 1.000000e+00 0.000000e+00
    outer loop
      vertex 3.700000e+01 5.000000e+00 5.000000e+00
      vertex 3.500000e+01 5.000000e+00 5.000000e+00
      vertex 3.600000e+01 5.000000e+00 6.000000e+00
    endloop
  endfacet
  facet normal 1.000000e+00 0.000000e+00 0.000000e+00
    outer loop
      vertex 4.000000e+01 -5.000000e+00 6.000000e+00
      vertex 4.000000e+01 -5.000000e+00 0.000000e+00
      vertex 4.000000e+01 5.000000e+00 6.000000e+00
    endloop
  endfacet
  facet normal 1.000000e+00 0.000000e+00 0.000000e+00
    outer loop
      vertex 4.000000e+01 5.000000e+00 6.000000e+00
      vertex 4.000000e+01 -5.000000e+00 0.000000e+00
      vertex 4.000000e+01 5.000000e+00 0.000000e+00
    endloop
  endfacet
  facet normal 0.000000e+00 -1.000000e+00 0.000000e+00
    outer loop
      vertex 3.800000e+01 -5.000000e+00 6.000000e+00
      vertex 3.700000e+01 -5.000000e+00 5.000000e+00
      vertex 3.900000e+01 -5.000000e+00 5.000000e+00
    endloop
  endfacet
  facet normal -0.000000e+00 -1.000000e+00 -0.000000e+00
    outer loop
      vertex 3.900000e+01 -5.000000e+00 5.000000e+00
      vertex 3.700000e+01 -5.000000e+00 5.000000e+00
      vertex 4.000000e+01 -5.000000e+00 0.000000e+00
    endloop
  endfacet
  facet normal 0.000000e+00 -1.000000e+00 0.000000e+00
    outer loop
      vertex 4.000000e+01 -5.000000e+00 6.000000e+00
      vertex 3.900000e+01 -5.000000e+00 5.000000e+00
      vertex 4.000000e+01 -5.000000e+00 0.000000e+00
    endloop
  endfacet
  facet normal 0.000000e+00 -1.000000e+00 0.000000e+00
    outer loop
      vertex 3.600000e+01 -5.000000e+00 6.000000e+00
      vertex 3.500000e+01 -5.000000e+00 5.000000e+00
      vertex 3.700000e+01 -5.000000e+00 5.000000e+00
    endloop
  endfacet
  facet normal -0.000000e+00 -1.000000e+00 -0.000000e+00
    outer loop
      vertex 3.700000e+01 -5.000000e+00 5.000000e+00
      vertex 3.500000e+01 -5.000000e+00 5.000000e+00
      vertex 4.000000e+01 -5.000000e+00 0.000000e+00
    endloop
  endfacet
  facet normal 0.000000e+00 -1.000000e+00 0.000000e+00
    outer loop
      vertex 4.000000e+01 -5.000000e+00 0.000000e+00
      vertex 3.500000e+01 -5.000000e+00 5.000000e+00
      vertex 3.300000e+01 -5.000000e+00 5.000000e+00
    endloop
  endfacet
  facet normal 0.000000e+00 -1.000000e+00 0.000000e+00
    outer loop
      vertex 3.100000e+01 -5.000000e+00 5.000000e+00
      vertex 3.300000e+01 -5.000000e+00 5.000000e+00
      vertex 3.200000e+01 -5.000000e+00 6.000000e+00
    endloop
  endfacet
  facet normal 0.000000e+00 -1.000000e+00 0.000000e+00
    outer loop
      vertex 3.100000e+01 -5.000000e+00 5.000000e+00
      vertex 4.000000e+01 -5.000000e+00 0.000000e+00
      vertex 3.300000e+01 -5.000000e+00 5.000000e+00
    endloop
  endfacet
  facet normal -0.000000e+00 -1.000000e+00 -0.000000e+00
    outer loop
      vertex 3.100000e+01 -5.000000e+00 5.000000e+00
      vertex 2.900000e+01 -5.000000e+00 5.000000e+00
      vertex 4.000000e+01 -5.000000e+00 0.000000e+00
    endloop
  endfacet
  facet normal 0.000000e+00 -1.000000e+00 0.000000e+00
    outer loop
      vertex 3.100000e+01 -5.000000e+00 5.000000e+00
      vertex 3.000000e+01 -5.000000e+00 6.000000e+00
      vertex 2.900000e+01 -5.000000e+00 5.000000e+00
    endloop
  endfacet
  facet normal 0.000000e+00 -1.000000e+00 0.000000e+00
    outer loop
      vertex 3.500000e+01 -5.000000e+00 5.000000e+00
      vertex 3.400000e+01 -5.000000e+00 6.000000e+00
      vertex 3.300000e+01 -5.000000e+00 5.000000e+00
    endloop
  endfacet
  facet normal 0.000000e+00 -1.000000e+00 0.000000e+00
    outer loop
      vertex 2.800000e+01 -5.000000e+00 6.000000e+00
      vertex 2.700000e+01 -5.000000e+00 5.000000e+00
      vertex 2.900000e+01 -5.000000e+00 5.000000e+00
    endloop
  endfacet
  facet normal -0.000000e+00 -1.000000e+00 -0.000000e+00
    outer loop
      vertex 2.900000e+01 -5.000000e+00 5.000000e+00
      vertex 2.700000e+01 -5.000000e+00 5.000000e+00
      vertex 4.000000e+01 -5.000000e+00 0.000000e+00
    endloop
  endfacet
  facet normal 0.000000e+00 -1.000000e+00 0.000000e+00
    outer loop
      vertex 4.000000e+01 -5.000000e+00 0.000000e+00
      vertex 2.700000e+01 -5.000000e+00 5.000000e+00
      vertex 2.500000e+01 -5.000000e+00 5.000000e+00
    endloop
  endfacet
  facet normal 0.000000e+00 -1.000000e+00 0.000000e+00
    outer loop
      vertex 2.300000e+01 -5.000000e+00 5.000000e+00
      vertex 2.500000e+01 -5.000000e+00 5.000000e+00
      vertex 2.400000e+01 -5.000000e+00 6.000000e+00
    endloop
  endfacet
  facet normal 0.000000e+00 -1.000000e+00 0.000000e+00
    outer loop
      vertex 2.300000e+01 -5.000000e+00 5.000000e+00
      vertex 4.000000e+01 -5.000000e+00 0.000000e+00
      vertex 2.500000e+01 -5.000000e+00 5.000000e+00
    endloop
  endfacet
  facet normal -0.000000e+00 -1.000000e+00 -0.000000e+00
    outer loop
      vertex 2.300000e+01 -5.000000e+00 5.000000e+00
      vertex 2.100000e+01 -5.000000e+00 5.000000e+00
      vertex 4.000000e+01 -5.000000e+00 0.000000e+00
    endloop
  endfacet
  facet normal 0.000000e+00 -1.000000e+00 0.000000e+00
    outer loop
      vertex 2.300000e+01 -5.000000e+00 5.000000e+00
      vertex 2.200000e+01 -5.000000e+00 6.000000e+00
      vertex 2.100000e+01 -5.000000e+00 5.000000e+00
    endloop
  endfacet
  facet normal 0.000000e+00 -1.000000e+00 0.000000e+00
    outer loop
      vertex 2.700000e+01 -5.000000e+00 5.000000e+00
      vertex 2.600000e+01 -5.000000e+00 6.000000e+00
      vertex 2.500000e+01 -5.000000e+00 5.000000e+00
    endloop
  endfacet
  facet normal 0.000000e+00 -1.000000e+00 0.000000e+00
    outer loop
      vertex 2.000000e+01 -5.000000e+00 6.000000e+00
      vertex 1.900000e+01 -5.000000e+00 5.000000e+00
      vertex 2.100000e+01 -5.000000e+00 5.000000e+00
    endloop
  endfacet
  facet normal -0.000000e+00 -1.000000e+00 -0.000000e+00
    outer loop
      vertex 2.100000e+01 -5.000000e+00 5.000000e+00
      vertex 1.900000e+01 -5.000000e+00 5.000000e+00
      vertex 4.000000e+01 -5.000000e+00 0.000000e+00
    endloop
  endfacet
  facet normal 0.000000e+00 -1.000000e+00 0.000000e+00
    outer loop
      vertex 4.000000e+01 -5.000000e+00 0.000000e+00
      vertex 1.900000e+01 -5.000000e+00 5.000000e+00
      vertex 1.700000e+01 -5.000000e+00 5.000000e+00
    endloop
  endfacet
  facet normal 0.000000e+00 -1.000000e+00 0.000000e+00
    outer loop
      vertex 1.500000e+01 -5.000000e+00 5.000000e+00
      vertex 1.700000e+01 -5.000000e+00 5.000000e+00
      vertex 1.600000e+01 -5.000000e+00 6.000000e+00
    endloop
  endfacet
  facet normal 0.000000e+00 -1.000000e+00 0.000000e+00
    outer loop
      vertex 1.500000e+01 -5.000000e+00 5.000000e+00
      vertex 4.000000e+01 -5.000000e+00 0.000000e+00
      vertex 1.700000e+01 -5.000000e+00 5.000000e+00
    endloop
  endfacet
  facet normal -0.000000e+00 -1.000000e+00 -0.000000e+00
    outer loop
      vertex 1.500000e+01 -5.000000e+00 5.000000e+00
      vertex 1.300000e+01 -5.000000e+00 5.000000e+00
      vertex 4.000000e+01 -5.000000e+00 0.000000e+00
    endloop
  endfacet
  facet normal 0.000000e+00 -1.000000e+00 0.000000e+00
    outer loop
      vertex 1.500000e+01 -5.000000e+00 5.000000e+00
      vertex 1.400000e+01 -5.000000e+00 6.000000e+00
      vertex 1.300000e+01 -5.000000e+00 5.000000e+00
    endloop
  endfacet
  facet normal 0.000000e+00 -1.000000e+00 0.000000e+00
    outer loop
      vertex 1.900000e+01 -5.000000e+00 5.000000e+00
      vertex 1.800000e+01 -5.000000e+00 6.000000e+00
      vertex 1.700000e+01 -5.000000e+00 5.000000e+00
    endloop
  endfacet
  facet normal 0.000000e+00 -1.000000e+00 0.000000e+00
    outer loop
      vertex 1.200000e+01 -5.000000e+00 6.000000e+00
      vertex 1.100000e+01 -5.000000e+00 5.000000e+00
      vertex 1.300000e+01 -5.000000e+00 5.000000e+00
    endloop
  endfacet
  facet normal -0.000000e+00 -1.000000e+00 -0.000000e+00
    outer loop
      vertex 1.300000e+01 -5.000000e+00 5.000000e+00
      vertex 1.100000e+01 -5.000000e+00 5.000000e+00
      vertex 4.000000e+01 -5.000000e+00 0.000000e+00
    endloop
  endfacet
  facet normal 0.000000e+00 -1.000000e+00 0.000000e+00
    outer loop
      vertex 4.000000e+01 -5.000000e+00 0.000000e+00
      vertex 1.100000e+01 -5.000000e+00 5.000000e+00
      vertex 9.000000e+00 -5.000000e+00 5.000000e+00
    endloop
  endfacet
  facet normal 0.000000e+00 -1.000000e+00 0.000000e+00
    outer loop
      vertex 7.000000e+00 -5.000000e+00 5.000000e+00
      vertex 9.000000e+00 -5.000000e+00 5.000000e+00
      vertex 8.000000e+00 -5.000000e+00 6.000000e+00
    endloop
  endfacet
  facet normal 0.000000e+00 -1.000000e+00 0.000000e+00
    outer loop
      vertex 7.000000e+00 -5.000000e+00 5.000000e+00
      vertex 4.000000e+01 -5.000000e+00 0.000000e+00
      vertex 9.000000e+00 -5.000000e+00 5.000000e+00
    endloop
  endfacet
  facet normal -0.000000e+00 -1.000000e+00 -0.000000e+00
    outer loop
      vertex 7.000000e+00 -5.000000e+00 5.000000e+00
      vertex 5.000000e+00 -5.000000e+00 5.000000e+00
      vertex 4.000000e+01 -5.000000e+00 0.000000e+00
    endloop
  endfacet
  facet normal 0.000000e+00 -1.000000e+00 0.000000e+00
    outer loop
      vertex 7.000000e+00 -5.000000e+00 5.000000e+00
      vertex 6.000000e+00 -5.000000e+00 6.000000e+00
      vertex 5.000000e+00 -5.000000e+00 5.000000e+00
    endloop
  endfacet
  facet normal 0.000000e+00 -1.000000e+00 0.000000e+00
    outer loop
      vertex 1.100000e+01 -5.000000e+00 5.000000e+00
      vertex 1.000000e+01 -5.000000e+00 6.000000e+00
      vertex 9.000000e+00 -5.000000e+00 5.000000e+00
    endloop
  endfacet
  facet normal 0.000000e+00 -1.000000e+00 0.000000e+00
    outer loop
      vertex 4.000000e+00 -5.000000e+00 6.000000e+00
      vertex 3.000000e+00 -5.000000e+00 5.000000e+00
      vertex 5.000000e+00 -5.000000e+00 5.000000e+00
    endloop
  endfacet
  facet normal -0.000000e+00 -1.000000e+00 -0.000000e+00
    outer loop
      vertex 5.000000e+00 -5.000000e+00 5.000000e+00
      vertex 3.000000e+00 -5.000000e+00 5.000000e+00
      vertex 4.000000e+01 -5.000000e+00 0.000000e+00
    endloop
  endfacet
  facet normal 0.000000e+00 -1.000000e+00 0.000000e+00
    outer loop
      vertex 4.000000e+01 -5.000000e+00 0.000000e+00
      vertex 3.000000e+00 -5.000000e+00 5.000000e+00
      vertex 1.000000e+00 -5.000000e+00 5.000000e+00
    endloop
  endfacet
  facet normal 0.000000e+00 -1.000000e+00 0.000000e+00
    outer loop
      vertex -4.000000e+01 -5.000000e+00 0.000000e+00
      vertex 1.000000e+00 -5.000000e+00 5.000000e+00
      vertex -1.000000e+00 -5.000000e+00 5.000000e+00
    endloop
  endfacet
  facet normal 0.000000e+00 -1.000000e+00 0.000000e+00
    outer loop
      vertex -3.000000e+00 -5.000000e+00 5.000000e+00
      vertex -1.000000e+00 -5.000000e+00 5.000000e+00
      vertex -2.000000e+00 -5.000000e+00 6.000000e+00
    endloop
  endfacet
  facet normal 0.000000e+00 -1.000000e+00 0.000000e+00
    outer loop
      vertex -3.000000e+00 -5.000000e+00 5.000000e+00
      vertex -4.000000e+01 -5.000000e+00 0.000000e+00
      vertex -1.000000e+00 -5.000000e+00 5.000000e+00
    endloop
  endfacet
  facet normal 0.000000e+00 -1.000000e+00 0.000000e+00
    outer loop
      vertex -3.000000e+00 -5.000000e+00 5.000000e+00
      vertex -5.000000e+00 -5.000000e+00 5.000000e+00
      vertex -4.000000e+01 -5.000000e+00 0.000000e+00
    endloop
  endfacet
  facet normal 0.000000e+00 -1.000000e+00 0.000000e+00
    outer loop
      vertex -3.000000e+00 -5.000000e+00 5.000000e+00
      vertex -4.000000e+00 -5.000000e+00 6.000000e+00
      vertex -5.000000e+00 -5.000000e+00 5.000000e+00
    endloop
  endfacet
  facet normal 0.000000e+00 -1.000000e+00 0.000000e+00
    outer loop
      vertex 3.000000e+00 -5.000000e+00 5.000000e+00
      vertex 2.000000e+00 -5.000000e+00 6.000000e+00
      vertex 1.000000e+00 -5.000000e+00 5.000000e+00
    endloop
  endfacet
  facet normal 0.000000e+00 -1.000000e+00 0.000000e+00
    outer loop
      vertex 1.000000e+00 -5.000000e+00 5.000000e+00
      vertex 0.000000e+00 -5.000000e+00 6.000000e+00
      vertex -1.000000e+00 -5.000000e+00 5.000000e+00
    endloop
  endfacet
  facet normal 0.000000e+00 -1.000000e+00 0.000000e+00
    outer loop
      vertex -6.000000e+00 -5.000000e+00 6.000000e+00
      vertex -7.000000e+00 -5.000000e+00 5.000000e+00
      vertex -5.000000e+00 -5.000000e+00 5.000000e+00
    endloop
  endfacet
  facet normal 0.000000e+00 -1.000000e+00 0.000000e+00
    outer loop
      vertex -5.000000e+00 -5.000000e+00 5.000000e+00
      vertex -7.000000e+00 -5.000000e+00 5.000000e+00
      vertex -4.000000e+01 -5.000000e+00 0.000000e+00
    endloop
  endfacet
  facet normal 0.000000e+00 -1.000000e+00 0.000000e+00
    outer loop
      vertex -4.000000e+01 -5.000000e+00 0.000000e+00
      vertex -7.000000e+00 -5.000000e+00 5.000000e+00
      vertex -9.000000e+00 -5.000000e+00 5.000000e+00
    endloop
  endfacet
  facet normal 0.000000e+00 -1.000000e+00 0.000000e+00
    outer loop
      vertex -1.100000e+01 -5.000000e+00 5.000000e+00
      vertex -9.000000e+00 -5.000000e+00 5.000000e+00
      vertex -1.000000e+01 -5.000000e+00 6.000000e+00
    endloop
  endfacet
  facet normal 0.000000e+00 -1.000000e+00 0.000000e+00
    outer loop
      vertex -1.100000e+01 -5.000000e+00 5.000000e+00
      vertex -4.000000e+01 -5.000000e+00 0.000000e+00
      vertex -9.000000e+00 -5.000000e+00 5.000000e+00
    endloop
  endfacet
  facet normal 0.000000e+00 -1.000000e+00 0.000000e+00
    outer loop
      vertex -1.100000e+01 -5.000000e+00 5.000000e+00
      vertex -1.300000e+01 -5.000000e+00 5.000000e+00
      vertex -4.000000e+01 -5.000000e+00 0.000000e+00
    endloop
  endfacet
  facet normal 0.000000e+00 -1.000000e+00 0.000000e+00
    outer loop
      vertex -1.100000e+01 -5.000000e+00 5.000000e+00
      vertex -1.200000e+01 -5.000000e+00 6.000000e+00
      vertex -1.300000e+01 -5.000000e+00 5.000000e+00
    endloop
  endfacet
  facet normal 0.000000e+00 -1.000000e+00 0.000000e+00
    outer loop
      vertex -7.000000e+00 -5.000000e+00 5.000000e+00
      vertex -8.000000e+00 -5.000000e+00 6.000000e+00
      vertex -9.000000e+00 -5.000000e+00 5.000000e+00
    endloop
  endfacet
  facet normal 0.000000e+00 -1.000000e+00 0.000000e+00
    outer loop
      vertex -1.400000e+01 -5.000000e+00 6.000000e+00
      vertex -1.500000e+01 -5.000000e+00 5.000000e+00
      vertex -1.300000e+01 -5.000000e+00 5.000000e+00
    endloop
  endfacet
  facet normal 0.000000e+00 -1.000000e+00 0.000000e+00
    outer loop
      vertex -1.300000e+01 -5.000000e+00 5.000000e+00
      vertex -1.500000e+01 -5.000000e+00 5.000000e+00
      vertex -4.000000e+01 -5.000000e+00 0.000000e+00
    endloop
  endfacet
  facet normal 0.000000e+00 -1.000000e+00 0.000000e+00
    outer loop
      vertex -4.000000e+01 -5.000000e+00 0.000000e+00
      vertex -1.500000e+01 -5.000000e+00 5.000000e+00
      vertex -1.700000e+01 -5.000000e+00 5.000000e+00
    endloop
  endfacet
  facet normal 0.000000e+00 -1.000000e+00 0.000000e+00
    outer loop
      vertex -1.900000e+01 -5.000000e+00 5.000000e+00
      vertex -1.700000e+01 -5.000000e+00 5.000000e+00
      vertex -1.800000e+01 -5.000000e+00 6.000000e+00
    endloop
  endfacet
  facet normal 0.000000e+00 -1.000000e+00 0.000000e+00
    outer loop
      vertex -1.900000e+01 -5.000000e+00 5.000000e+00
      vertex -4.000000e+01 -5.000000e+00 0.000000e+00
      vertex -1.700000e+01 -5.000000e+00 5.000000e+00
    endloop
  endfacet
  facet normal 0.000000e+00 -1.000000e+00 0.000000e+00
    outer loop
      vertex -1.900000e+01 -5.000000e+00 5.000000e+00
      vertex -2.100000e+01 -5.000000e+00 5.000000e+00
      vertex -4.000000e+01 -5.000000e+00 0.000000e+00
    endloop
  endfacet
  facet normal 0.000000e+00 -1.000000e+00 0.000000e+00
    outer loop
      vertex -1.900000e+01 -5.000000e+00 5.000000e+00
      vertex -2.000000e+01 -5.000000e+00 6.000000e+00
      vertex -2.100000e+01 -5.000000e+00 5.000000e+00
    endloop
  endfacet
  facet normal 0.000000e+00 -1.000000e+00 0.000000e+00
    outer loop
      vertex -1.500000e+01 -5.000000e+00 5.000000e+00
      vertex -1.600000e+01 -5.000000e+00 6.000000e+00
      vertex -1.700000e+01 -5.000000e+00 5.000000e+00
    endloop
  endfacet
  facet normal 0.000000e+00 -1.000000e+00 0.000000e+00
    outer loop
      vertex -2.200000e+01 -5.000000e+00 6.000000e+00
      vertex -2.300000e+01 -5.000000e+00 5.000000e+00
      vertex -2.100000e+01 -5.000000e+00 5.000000e+00
    endloop
  endfacet
  facet normal 0.000000e+00 -1.000000e+00 0.000000e+00
    outer loop
      vertex -2.100000e+01 -5.000000e+00 5.000000e+00
      vertex -2.300000e+01 -5.000000e+00 5.000000e+00
      vertex -4.000000e+01 -5.000000e+00 0.000000e+00
    endloop
  endfacet
  facet normal 0.000000e+00 -1.000000e+00 0.000000e+00
    outer loop
      vertex -4.000000e+01 -5.000000e+00 0.000000e+00
      vertex -2.300000e+01 -5.000000e+00 5.000000e+00
      vertex -2.500000e+01 -5.000000e+00 5.000000e+00
    endloop
  endfacet
  facet normal 0.000000e+00 -1.000000e+00 0.000000e+00
    outer loop
      vertex -2.700000e+01 -5.000000e+00 5.000000e+00
      vertex -2.500000e+01 -5.000000e+00 5.000000e+00
      vertex -2.600000e+01 -5.000000e+00 6.000000e+00
    endloop
  endfacet
  facet normal 0.000000e+00 -1.000000e+00 0.000000e+00
    outer loop
      vertex -2.700000e+01 -5.000000e+00 5.000000e+00
      vertex -4.000000e+01 -5.000000e+00 0.000000e+00
      vertex -2.500000e+01 -5.000000e+00 5.000000e+00
    endloop
  endfacet
  facet normal 0.000000e+00 -1.000000e+00 0.000000e+00
    outer loop
      vertex -2.700000e+01 -5.000000e+00 5.000000e+00
      vertex -2.900000e+01 -5.000000e+00 5.000000e+00
      vertex -4.000000e+01 -5.000000e+00 0.000000e+00
    endloop
  endfacet
  facet normal 0.000000e+00 -1.000000e+00 0.000000e+00
    outer loop
      vertex -2.700000e+01 -5.000000e+00 5.000000e+00
      vertex -2.800000e+01 -5.000000e+00 6.000000e+00
      vertex -2.900000e+01 -5.000000e+00 5.000000e+00
    endloop
  endfacet
  facet normal 0.000000e+00 -1.000000e+00 0.000000e+00
    outer loop
      vertex -2.300000e+01 -5.000000e+00 5.000000e+00
      vertex -2.400000e+01 -5.000000e+00 6.000000e+00
      vertex -2.500000e+01 -5.000000e+00 5.000000e+00
    endloop
  endfacet
  facet normal 0.000000e+00 -1.000000e+00 0.000000e+00
    outer loop
      vertex -3.000000e+01 -5.000000e+00 6.000000e+00
      vertex -3.100000e+01 -5.000000e+00 5.000000e+00
      vertex -2.900000e+01 -5.000000e+00 5.000000e+00
    endloop
  endfacet
  facet normal 0.000000e+00 -1.000000e+00 0.000000e+00
    outer loop
      vertex -2.900000e+01 -5.000000e+00 5.000000e+00
      vertex -3.100000e+01 -5.000000e+00 5.000000e+00
      vertex -4.000000e+01 -5.000000e+00 0.000000e+00
    endloop
  endfacet
  facet normal 0.000000e+00 -1.000000e+00 0.000000e+00
    outer loop
      vertex -4.000000e+01 -5.000000e+00 0.000000e+00
      vertex -3.100000e+01 -5.000000e+00 5.000000e+00
      vertex -3.300000e+01 -5.000000e+00 5.000000e+00
    endloop
  endfacet
  facet normal 0.000000e+00 -1.000000e+00 0.000000e+00
    outer loop
      vertex -3.500000e+01 -5.000000e+00 5.000000e+00
      vertex -3.300000e+01 -5.000000e+00 5.000000e+00
      vertex -3.400000e+01 -5.000000e+00 6.000000e+00
    endloop
  endfacet
  facet normal 0.000000e+00 -1.000000e+00 0.000000e+00
    outer loop
      vertex -3.500000e+01 -5.000000e+00 5.000000e+00
      vertex -4.000000e+01 -5.000000e+00 0.000000e+00
      vertex -3.300000e+01 -5.000000e+00 5.000000e+00
    endloop
  endfacet
  facet normal 0.000000e+00 -1.000000e+00 0.000000e+00
    outer loop
      vertex -3.500000e+01 -5.000000e+00 5.000000e+00
      vertex -3.700000e+01 -5.000000e+00 5.000000e+00
      vertex -4.000000e+01 -5.000000e+00 0.000000e+00
    endloop
  endfacet
  facet normal 0.000000e+00 -1.000000e+00 0.000000e+00
    outer loop
      vertex -3.500000e+01 -5.000000e+00 5.000000e+00
      vertex -3.600000e+01 -5.000000e+00 6.000000e+00
      vertex -3.700000e+01 -5.000000e+00 5.000000e+00
    endloop
  endfacet
  facet normal 0.000000e+00 -1.000000e+00 0.000000e+00
    outer loop
      vertex -3.100000e+01 -5.000000e+00 5.000000e+00
      vertex -3.200000e+01 -5.000000e+00 6.000000e+00
      vertex -3.300000e+01 -5.000000e+00 5.000000e+00
    endloop
  endfacet
  facet normal 0.000000e+00 -1.000000e+00 0.000000e+00
    outer loop
      vertex -3.800000e+01 -5.000000e+00 6.000000e+00
      vertex -3.900000e+01 -5.000000e+00 5.000000e+00
      vertex -3.700000e+01 -5.000000e+00 5.000000e+00
    endloop
  endfacet
  facet normal 0.000000e+00 -1.000000e+00 0.000000e+00
    outer loop
      vertex -3.700000e+01 -5.000000e+00 5.000000e+00
      vertex -3.900000e+01 -5.000000e+00 5.000000e+00
      vertex -4.000000e+01 -5.000000e+00 0.000000e+00
    endloop
  endfacet
  facet normal 0.000000e+00 -1.000000e+00 0.000000e+00
    outer loop
      vertex -4.000000e+01 -5.000000e+00 0.000000e+00
      vertex -3.900000e+01 -5.000000e+00 5.000000e+00
      vertex -4.000000e+01 -5.000000e+00 6.000000e+00
    endloop
  endfacet
  facet normal 0.000000e+00 -1.000000e+00 0.000000e+00
    outer loop
      vertex -4.000000e+01 -5.000000e+00 0.000000e+00
      vertex 4.000000e+01 -5.000000e+00 0.000000e+00
      vertex 1.000000e+00 -5.000000e+00 5.000000e+00
    endloop
  endfacet
  facet normal 0.000000e+00 0.000000e+00 -1.000000e+00
    outer loop
      vertex 4.000000e+01 -5.000000e+00 0.000000e+00
      vertex -4.000000e+01 -5.000000e+00 0.000000e+00
      vertex 4.000000e+01 5.000000e+00 0.000000e+00
    endloop
  endfacet
  facet normal 0.000000e+00 0.000000e+00 -1.000000e+00
    outer loop
      vertex 4.000000e+01 5.000000e+00 0.000000e+00
      vertex -4.000000e+01 -5.000000e+00 0.000000e+00
      vertex -4.000000e+01 5.000000e+00 0.000000e+00
    endloop
  endfacet
endsolid Default
