solid OpenSCAD_Model
  facet normal 0 0 -1
    outer loop
      vertex -30 0 -10
      vertex -29.3444 6.23735 -10
      vertex -29.3444 -6.23735 -10
    endloop
  endfacet
  facet normal 0 0 -1
    outer loop
      vertex -29.3444 -6.23735 -10
      vertex -29.3444 6.23735 -10
      vertex -27.4064 12.2021 -10
    endloop
  endfacet
  facet normal 0 0 -1
    outer loop
      vertex -29.3444 -6.23735 -10
      vertex -27.4064 12.2021 -10
      vertex -24.2705 17.6336 -10
    endloop
  endfacet
  facet normal 0 0 -1
    outer loop
      vertex -29.3444 -6.23735 -10
      vertex -24.2705 17.6336 -10
      vertex -20.0739 22.2943 -10
    endloop
  endfacet
  facet normal 0 0 -1
    outer loop
      vertex -26.8019 0.867767 -10
      vertex -20.0739 22.2943 -10
      vertex -15 25.9808 -10
    endloop
  endfacet
  facet normal 0 0 -1
    outer loop
      vertex -25.445 1.94986 -10
      vertex -15 25.9808 -10
      vertex -9.27051 28.5317 -10
    endloop
  endfacet
  facet normal 0 0 -1
    outer loop
      vertex -23.753 1.56366 -10
      vertex -9.27051 28.5317 -10
      vertex -3.13585 29.8357 -10
    endloop
  endfacet
  facet normal 0 0 -1
    outer loop
      vertex -1.80194 25.8678 -10
      vertex -3.13585 29.8357 -10
      vertex 3.13585 29.8357 -10
    endloop
  endfacet
  facet normal 0 0 -1
    outer loop
      vertex 1.24698 26.5637 -10
      vertex 3.13585 29.8357 -10
      vertex 9.27051 28.5317 -10
    endloop
  endfacet
  facet normal 0 0 -1
    outer loop
      vertex -23.753 -1.56366 -10
      vertex 9.27051 28.5317 -10
      vertex 15 25.9808 -10
    endloop
  endfacet
  facet normal 0 0 -1
    outer loop
      vertex -1.14981 10.9397 -10
      vertex 15 25.9808 -10
      vertex 20.0739 22.2943 -10
    endloop
  endfacet
  facet normal 0 0 -1
    outer loop
      vertex 5.5 9.52628 -10
      vertex 20.0739 22.2943 -10
      vertex 24.2705 17.6336 -10
    endloop
  endfacet
  facet normal 0 0 -1
    outer loop
      vertex 8.89919 6.46564 -10
      vertex 24.2705 17.6336 -10
      vertex 27.4064 12.2021 -10
    endloop
  endfacet
  facet normal 0 0 -1
    outer loop
      vertex 10.7596 2.28703 -10
      vertex 27.4064 12.2021 -10
      vertex 29.3444 6.23735 -10
    endloop
  endfacet
  facet normal 0 0 -1
    outer loop
      vertex 26.247 1.56366 -10
      vertex 29.3444 6.23735 -10
      vertex 30 0 -10
    endloop
  endfacet
  facet normal 0 0 -1
    outer loop
      vertex 26.247 -1.56366 -10
      vertex 30 0 -10
      vertex 29.3444 -6.23735 -10
    endloop
  endfacet
  facet normal 0 0 -1
    outer loop
      vertex 7.36044 -8.17459 -10
      vertex 29.3444 -6.23735 -10
      vertex 27.4064 -12.2021 -10
    endloop
  endfacet
  facet normal 0 0 -1
    outer loop
      vertex 1.14981 -10.9397 -10
      vertex 27.4064 -12.2021 -10
      vertex 24.2705 -17.6336 -10
    endloop
  endfacet
  facet normal 0 0 -1
    outer loop
      vertex -29.3444 -6.23735 -10
      vertex 24.2705 -17.6336 -10
      vertex 20.0739 -22.2943 -10
    endloop
  endfacet
  facet normal 0 0 -1
    outer loop
      vertex -29.3444 -6.23735 -10
      vertex 20.0739 -22.2943 -10
      vertex 15 -25.9808 -10
    endloop
  endfacet
  facet normal 0 0 -1
    outer loop
      vertex 1.24698 -23.4363 -10
      vertex 15 -25.9808 -10
      vertex 9.27051 -28.5317 -10
    endloop
  endfacet
  facet normal 0 0 -1
    outer loop
      vertex 1.24698 -26.5637 -10
      vertex 9.27051 -28.5317 -10
      vertex 3.13585 -29.8357 -10
    endloop
  endfacet
  facet normal 0 0 -1
    outer loop
      vertex -29.3444 -6.23735 -10
      vertex 3.13585 -29.8357 -10
      vertex -3.13585 -29.8357 -10
    endloop
  endfacet
  facet normal 0 0 -1
    outer loop
      vertex -29.3444 -6.23735 -10
      vertex -3.13585 -29.8357 -10
      vertex -9.27051 -28.5317 -10
    endloop
  endfacet
  facet normal 0 0 -1
    outer loop
      vertex -29.3444 -6.23735 -10
      vertex -9.27051 -28.5317 -10
      vertex -15 -25.9808 -10
    endloop
  endfacet
  facet normal 0 0 -1
    outer loop
      vertex -29.3444 -6.23735 -10
      vertex -15 -25.9808 -10
      vertex -20.0739 -22.2943 -10
    endloop
  endfacet
  facet normal 0 0 -1
    outer loop
      vertex -29.3444 -6.23735 -10
      vertex -20.0739 -22.2943 -10
      vertex -24.2705 -17.6336 -10
    endloop
  endfacet
  facet normal 0 0 -1
    outer loop
      vertex -29.3444 -6.23735 -10
      vertex -24.2705 -17.6336 -10
      vertex -27.4064 -12.2021 -10
    endloop
  endfacet
  facet normal 0 0 -1
    outer loop
      vertex -29.3444 -6.23735 -10
      vertex -20.0739 22.2943 -10
      vertex -26.8019 0.867767 -10
    endloop
  endfacet
  facet normal 0 0 -1
    outer loop
      vertex -25.445 -1.94986 -10
      vertex -29.3444 -6.23735 -10
      vertex -26.8019 -0.867767 -10
    endloop
  endfacet
  facet normal 0 0 -1
    outer loop
      vertex -1.14981 10.9397 -10
      vertex 20.0739 22.2943 -10
      vertex 1.14981 10.9397 -10
    endloop
  endfacet
  facet normal 0 0 -1
    outer loop
      vertex -23.753 -1.56366 -10
      vertex -29.3444 -6.23735 -10
      vertex -25.445 -1.94986 -10
    endloop
  endfacet
  facet normal 0 0 -1
    outer loop
      vertex 2 25 -10
      vertex 9.27051 28.5317 -10
      vertex 1.24698 23.4363 -10
    endloop
  endfacet
  facet normal 0 0 -1
    outer loop
      vertex -29.3444 -6.23735 -10
      vertex -23.753 -1.56366 -10
      vertex 15 25.9808 -10
    endloop
  endfacet
  facet normal 0 0 -1
    outer loop
      vertex -23.753 1.56366 -10
      vertex -0.445042 23.0501 -10
      vertex 1.24698 23.4363 -10
    endloop
  endfacet
  facet normal 0 0 -1
    outer loop
      vertex -23.753 1.56366 -10
      vertex -1.80194 24.1322 -10
      vertex -0.445042 23.0501 -10
    endloop
  endfacet
  facet normal 0 0 -1
    outer loop
      vertex -23.753 1.56366 -10
      vertex 9.27051 28.5317 -10
      vertex -23 0 -10
    endloop
  endfacet
  facet normal 0 0 -1
    outer loop
      vertex -23.753 1.56366 -10
      vertex -3.13585 29.8357 -10
      vertex -1.80194 25.8678 -10
    endloop
  endfacet
  facet normal 0 0 -1
    outer loop
      vertex -11 0 -10
      vertex -29.3444 -6.23735 -10
      vertex -10.7596 2.28703 -10
    endloop
  endfacet
  facet normal 0 0 -1
    outer loop
      vertex -10.7596 -2.28703 -10
      vertex -29.3444 -6.23735 -10
      vertex -11 0 -10
    endloop
  endfacet
  facet normal 0 0 -1
    outer loop
      vertex -10.049 -4.4741 -10
      vertex -29.3444 -6.23735 -10
      vertex -10.7596 -2.28703 -10
    endloop
  endfacet
  facet normal 0 0 -1
    outer loop
      vertex -8.89919 -6.46564 -10
      vertex -29.3444 -6.23735 -10
      vertex -10.049 -4.4741 -10
    endloop
  endfacet
  facet normal 0 0 -1
    outer loop
      vertex -5.5 -9.52628 -10
      vertex -29.3444 -6.23735 -10
      vertex -7.36044 -8.17459 -10
    endloop
  endfacet
  facet normal 0 0 -1
    outer loop
      vertex -29.3444 -6.23735 -10
      vertex -8.89919 -6.46564 -10
      vertex -7.36044 -8.17459 -10
    endloop
  endfacet
  facet normal 0 0 -1
    outer loop
      vertex 1.14981 -10.9397 -10
      vertex 24.2705 -17.6336 -10
      vertex -1.14981 -10.9397 -10
    endloop
  endfacet
  facet normal 0 0 -1
    outer loop
      vertex -29.3444 -6.23735 -10
      vertex -5.5 -9.52628 -10
      vertex -3.39919 -10.4616 -10
    endloop
  endfacet
  facet normal 0 0 -1
    outer loop
      vertex -29.3444 -6.23735 -10
      vertex -3.39919 -10.4616 -10
      vertex 24.2705 -17.6336 -10
    endloop
  endfacet
  facet normal 0 0 -1
    outer loop
      vertex -3.39919 -10.4616 -10
      vertex -1.14981 -10.9397 -10
      vertex 24.2705 -17.6336 -10
    endloop
  endfacet
  facet normal 0 0 -1
    outer loop
      vertex 3.39919 -10.4616 -10
      vertex 27.4064 -12.2021 -10
      vertex 1.14981 -10.9397 -10
    endloop
  endfacet
  facet normal 0 0 -1
    outer loop
      vertex 5.5 -9.52628 -10
      vertex 27.4064 -12.2021 -10
      vertex 3.39919 -10.4616 -10
    endloop
  endfacet
  facet normal 0 0 -1
    outer loop
      vertex 7.36044 -8.17459 -10
      vertex 27.4064 -12.2021 -10
      vertex 5.5 -9.52628 -10
    endloop
  endfacet
  facet normal 0 0 -1
    outer loop
      vertex 8.89919 -6.46564 -10
      vertex 29.3444 -6.23735 -10
      vertex 7.36044 -8.17459 -10
    endloop
  endfacet
  facet normal 0 0 -1
    outer loop
      vertex 10.049 -4.4741 -10
      vertex 29.3444 -6.23735 -10
      vertex 8.89919 -6.46564 -10
    endloop
  endfacet
  facet normal 0 0 -1
    outer loop
      vertex 10.049 4.4741 -10
      vertex 27.4064 12.2021 -10
      vertex 10.7596 2.28703 -10
    endloop
  endfacet
  facet normal 0 0 -1
    outer loop
      vertex 7.36044 8.17459 -10
      vertex 24.2705 17.6336 -10
      vertex 8.89919 6.46564 -10
    endloop
  endfacet
  facet normal 0 0 -1
    outer loop
      vertex 5.5 9.52628 -10
      vertex 24.2705 17.6336 -10
      vertex 7.36044 8.17459 -10
    endloop
  endfacet
  facet normal 0 0 -1
    outer loop
      vertex 3.39919 10.4616 -10
      vertex 20.0739 22.2943 -10
      vertex 5.5 9.52628 -10
    endloop
  endfacet
  facet normal 0 0 -1
    outer loop
      vertex 1.14981 10.9397 -10
      vertex 20.0739 22.2943 -10
      vertex 3.39919 10.4616 -10
    endloop
  endfacet
  facet normal 0 0 -1
    outer loop
      vertex -3.39919 10.4616 -10
      vertex 15 25.9808 -10
      vertex -1.14981 10.9397 -10
    endloop
  endfacet
  facet normal 0 0 -1
    outer loop
      vertex -8.89919 6.46564 -10
      vertex -29.3444 -6.23735 -10
      vertex -7.36044 8.17459 -10
    endloop
  endfacet
  facet normal 0 0 -1
    outer loop
      vertex -5.5 9.52628 -10
      vertex 15 25.9808 -10
      vertex -3.39919 10.4616 -10
    endloop
  endfacet
  facet normal 0 0 -1
    outer loop
      vertex -29.3444 -6.23735 -10
      vertex 15 25.9808 -10
      vertex -5.5 9.52628 -10
    endloop
  endfacet
  facet normal 0 0 -1
    outer loop
      vertex -29.3444 -6.23735 -10
      vertex -5.5 9.52628 -10
      vertex -7.36044 8.17459 -10
    endloop
  endfacet
  facet normal 0 0 -1
    outer loop
      vertex -10.049 4.4741 -10
      vertex -29.3444 -6.23735 -10
      vertex -8.89919 6.46564 -10
    endloop
  endfacet
  facet normal 0 0 -1
    outer loop
      vertex -10.7596 2.28703 -10
      vertex -29.3444 -6.23735 -10
      vertex -10.049 4.4741 -10
    endloop
  endfacet
  facet normal 0 0 -1
    outer loop
      vertex -1.80194 -24.1322 -10
      vertex -29.3444 -6.23735 -10
      vertex -0.445042 -23.0501 -10
    endloop
  endfacet
  facet normal 0 0 -1
    outer loop
      vertex 1.24698 -23.4363 -10
      vertex 9.27051 -28.5317 -10
      vertex 2 -25 -10
    endloop
  endfacet
  facet normal 0 0 -1
    outer loop
      vertex -29.3444 -6.23735 -10
      vertex -1.80194 -24.1322 -10
      vertex -1.80194 -25.8678 -10
    endloop
  endfacet
  facet normal 0 0 -1
    outer loop
      vertex -29.3444 -6.23735 -10
      vertex -1.80194 -25.8678 -10
      vertex 3.13585 -29.8357 -10
    endloop
  endfacet
  facet normal 0 0 -1
    outer loop
      vertex -1.80194 -25.8678 -10
      vertex -0.445042 -26.9499 -10
      vertex 3.13585 -29.8357 -10
    endloop
  endfacet
  facet normal 0 0 -1
    outer loop
      vertex -0.445042 -23.0501 -10
      vertex -29.3444 -6.23735 -10
      vertex 1.24698 -23.4363 -10
    endloop
  endfacet
  facet normal 0 0 -1
    outer loop
      vertex 2 -25 -10
      vertex 9.27051 -28.5317 -10
      vertex 1.24698 -26.5637 -10
    endloop
  endfacet
  facet normal 0 0 -1
    outer loop
      vertex 1.24698 -26.5637 -10
      vertex 3.13585 -29.8357 -10
      vertex -0.445042 -26.9499 -10
    endloop
  endfacet
  facet normal 0 0 -1
    outer loop
      vertex -29.3444 -6.23735 -10
      vertex 15 -25.9808 -10
      vertex 1.24698 -23.4363 -10
    endloop
  endfacet
  facet normal 0 0 -1
    outer loop
      vertex -1.80194 24.1322 -10
      vertex -23.753 1.56366 -10
      vertex -1.80194 25.8678 -10
    endloop
  endfacet
  facet normal 0 0 -1
    outer loop
      vertex 23.1981 -0.867767 -10
      vertex 10.7596 -2.28703 -10
      vertex 11 0 -10
    endloop
  endfacet
  facet normal 0 0 -1
    outer loop
      vertex -23.753 1.56366 -10
      vertex 1.24698 23.4363 -10
      vertex 9.27051 28.5317 -10
    endloop
  endfacet
  facet normal 0 0 -1
    outer loop
      vertex -0.445042 26.9499 -10
      vertex -1.80194 25.8678 -10
      vertex 3.13585 29.8357 -10
    endloop
  endfacet
  facet normal 0 0 -1
    outer loop
      vertex 8.89919 6.46564 -10
      vertex 27.4064 12.2021 -10
      vertex 10.049 4.4741 -10
    endloop
  endfacet
  facet normal 0 0 -1
    outer loop
      vertex 1.24698 26.5637 -10
      vertex 9.27051 28.5317 -10
      vertex 2 25 -10
    endloop
  endfacet
  facet normal 0 0 -1
    outer loop
      vertex 23.1981 -0.867767 -10
      vertex 11 0 -10
      vertex 23.1981 0.867767 -10
    endloop
  endfacet
  facet normal 0 0 -1
    outer loop
      vertex -0.445042 26.9499 -10
      vertex 3.13585 29.8357 -10
      vertex 1.24698 26.5637 -10
    endloop
  endfacet
  facet normal 0 0 -1
    outer loop
      vertex -23 0 -10
      vertex 9.27051 28.5317 -10
      vertex -23.753 -1.56366 -10
    endloop
  endfacet
  facet normal 0 0 -1
    outer loop
      vertex 11 0 -10
      vertex 29.3444 6.23735 -10
      vertex 23.1981 0.867767 -10
    endloop
  endfacet
  facet normal 0 0 -1
    outer loop
      vertex 24.555 -1.94986 -10
      vertex 10.049 -4.4741 -10
      vertex 23.1981 -0.867767 -10
    endloop
  endfacet
  facet normal 0 0 -1
    outer loop
      vertex 10.7596 -2.28703 -10
      vertex 23.1981 -0.867767 -10
      vertex 10.049 -4.4741 -10
    endloop
  endfacet
  facet normal 0 0 -1
    outer loop
      vertex 27 0 -10
      vertex 30 0 -10
      vertex 26.247 -1.56366 -10
    endloop
  endfacet
  facet normal 0 0 -1
    outer loop
      vertex 10.049 -4.4741 -10
      vertex 24.555 -1.94986 -10
      vertex 29.3444 -6.23735 -10
    endloop
  endfacet
  facet normal 0 0 -1
    outer loop
      vertex 24.555 -1.94986 -10
      vertex 26.247 -1.56366 -10
      vertex 29.3444 -6.23735 -10
    endloop
  endfacet
  facet normal 0 0 -1
    outer loop
      vertex 10.7596 2.28703 -10
      vertex 29.3444 6.23735 -10
      vertex 11 0 -10
    endloop
  endfacet
  facet normal 0 0 -1
    outer loop
      vertex 24.555 1.94986 -10
      vertex 29.3444 6.23735 -10
      vertex 26.247 1.56366 -10
    endloop
  endfacet
  facet normal 0 0 -1
    outer loop
      vertex 23.1981 0.867767 -10
      vertex 29.3444 6.23735 -10
      vertex 24.555 1.94986 -10
    endloop
  endfacet
  facet normal 0 0 -1
    outer loop
      vertex -26.8019 0.867767 -10
      vertex -15 25.9808 -10
      vertex -25.445 1.94986 -10
    endloop
  endfacet
  facet normal 0 0 -1
    outer loop
      vertex -26.8019 -0.867767 -10
      vertex -29.3444 -6.23735 -10
      vertex -26.8019 0.867767 -10
    endloop
  endfacet
  facet normal 0 0 -1
    outer loop
      vertex 26.247 1.56366 -10
      vertex 30 0 -10
      vertex 27 0 -10
    endloop
  endfacet
  facet normal 0 0 -1
    outer loop
      vertex -25.445 1.94986 -10
      vertex -9.27051 28.5317 -10
      vertex -23.753 1.56366 -10
    endloop
  endfacet
  facet normal -0.778252 0.0817976 0.622602
    outer loop
      vertex -30 0 -10
      vertex -26.8019 0.570884 -6.07743
      vertex -29.3444 6.23735 -10
    endloop
  endfacet
  facet normal -0.778252 0.0817976 0.622602
    outer loop
      vertex -29.3444 6.23735 -10
      vertex -26.8019 0.570884 -6.07743
      vertex -26.8019 0.867767 -6.11643
    endloop
  endfacet
  facet normal -0.778252 0.0817976 0.622602
    outer loop
      vertex -29.3444 6.23735 -10
      vertex -26.8019 0.867767 -6.11643
      vertex -25.445 1.94986 -4.56248
    endloop
  endfacet
  facet normal -0.778252 0.0817976 0.622602
    outer loop
      vertex -25.445 1.94986 -4.56248
      vertex -23.753 1.56366 -2.39671
      vertex -29.3444 6.23735 -10
    endloop
  endfacet
  facet normal -0.778252 0.0817976 0.622602
    outer loop
      vertex -23.753 1.56366 -2.39671
      vertex -23.5541 1.15065 -2.09383
      vertex -13.6941 2.91076 10
    endloop
  endfacet
  facet normal -0.778252 0.0817976 0.622602
    outer loop
      vertex -23.753 1.56366 -2.39671
      vertex -13.6941 2.91076 10
      vertex -29.3444 6.23735 -10
    endloop
  endfacet
  facet normal -0.778252 0.0817977 0.622602
    outer loop
      vertex -26.8019 0.570884 -6.07743
      vertex -30 0 -10
      vertex -26.8019 0 -6.00242
    endloop
  endfacet
  facet normal -0.778252 -0.0817976 0.622602
    outer loop
      vertex -30 0 -10
      vertex -29.3444 -6.23735 -10
      vertex -26.8019 0 -6.00242
    endloop
  endfacet
  facet normal -0.778252 -0.0817976 0.622602
    outer loop
      vertex -23.753 -1.56366 -2.39671
      vertex -29.3444 -6.23735 -10
      vertex -14 0 10
    endloop
  endfacet
  facet normal -0.778252 -0.0817976 0.622602
    outer loop
      vertex -23 0 -1.25
      vertex -23.753 -1.56366 -2.39671
      vertex -14 0 10
    endloop
  endfacet
  facet normal -0.778252 -0.0817976 0.622602
    outer loop
      vertex -26.8019 -0.867767 -6.11643
      vertex -29.3444 -6.23735 -10
      vertex -25.445 -1.94986 -4.56248
    endloop
  endfacet
  facet normal -0.778252 -0.0817976 0.622602
    outer loop
      vertex -26.8019 0 -6.00242
      vertex -29.3444 -6.23735 -10
      vertex -26.8019 -0.867767 -6.11643
    endloop
  endfacet
  facet normal -0.778252 -0.0817976 0.622602
    outer loop
      vertex -25.445 -1.94986 -4.56248
      vertex -29.3444 -6.23735 -10
      vertex -23.753 -1.56366 -2.39671
    endloop
  endfacet
  facet normal -0.778252 -0.0817977 0.622602
    outer loop
      vertex -14 0 10
      vertex -29.3444 -6.23735 -10
      vertex -13.6941 -2.91076 10
    endloop
  endfacet
  facet normal -0.744239 -0.241818 0.622602
    outer loop
      vertex -13.6941 -2.91076 10
      vertex -29.3444 -6.23735 -10
      vertex -27.4064 -12.2021 -10
    endloop
  endfacet
  facet normal -0.744239 -0.241818 0.622602
    outer loop
      vertex -13.6941 -2.91076 10
      vertex -27.4064 -12.2021 -10
      vertex -12.7896 -5.69431 10
    endloop
  endfacet
  facet normal -0.677699 -0.391269 0.622602
    outer loop
      vertex -12.7896 -5.69431 10
      vertex -27.4064 -12.2021 -10
      vertex -24.2705 -17.6336 -10
    endloop
  endfacet
  facet normal -0.677699 -0.391269 0.622602
    outer loop
      vertex -12.7896 -5.69431 10
      vertex -24.2705 -17.6336 -10
      vertex -11.3262 -8.22899 10
    endloop
  endfacet
  facet normal -0.58154 -0.523621 0.622602
    outer loop
      vertex -11.3262 -8.22899 10
      vertex -24.2705 -17.6336 -10
      vertex -20.0739 -22.2943 -10
    endloop
  endfacet
  facet normal -0.58154 -0.523621 0.622602
    outer loop
      vertex -11.3262 -8.22899 10
      vertex -20.0739 -22.2943 -10
      vertex -9.36783 -10.404 10
    endloop
  endfacet
  facet normal -0.459965 -0.633087 0.622602
    outer loop
      vertex -9.36783 -10.404 10
      vertex -20.0739 -22.2943 -10
      vertex -15 -25.9808 -10
    endloop
  endfacet
  facet normal -0.459965 -0.633087 0.622602
    outer loop
      vertex -9.36783 -10.404 10
      vertex -15 -25.9808 -10
      vertex -7 -12.1244 10
    endloop
  endfacet
  facet normal -0.318287 -0.714885 0.622602
    outer loop
      vertex -7 -12.1244 10
      vertex -15 -25.9808 -10
      vertex -9.27051 -28.5317 -10
    endloop
  endfacet
  facet normal -0.318287 -0.714885 0.622602
    outer loop
      vertex -7 -12.1244 10
      vertex -9.27051 -28.5317 -10
      vertex -4.32624 -13.3148 10
    endloop
  endfacet
  facet normal -0.162699 -0.765439 0.622602
    outer loop
      vertex -4.32624 -13.3148 10
      vertex -9.27051 -28.5317 -10
      vertex -3.13585 -29.8357 -10
    endloop
  endfacet
  facet normal -0.162699 -0.765439 0.622602
    outer loop
      vertex -1.4634 -13.9233 10
      vertex -4.32624 -13.3148 10
      vertex -3.13585 -29.8357 -10
    endloop
  endfacet
  facet normal 0 -0.782539 0.622602
    outer loop
      vertex -1.80194 -25.8678 -5.01282
      vertex -3.13585 -29.8357 -10
      vertex 3.13585 -29.8357 -10
    endloop
  endfacet
  facet normal 0 -0.782539 0.622602
    outer loop
      vertex -0.445042 -26.9499 -6.37288
      vertex -1.80194 -25.8678 -5.01282
      vertex 3.13585 -29.8357 -10
    endloop
  endfacet
  facet normal 0 -0.782539 0.622602
    outer loop
      vertex -1.80194 -24.1322 -2.83145
      vertex -3.13585 -29.8357 -10
      vertex -1.80194 -25.8678 -5.01282
    endloop
  endfacet
  facet normal 0 -0.782539 0.622602
    outer loop
      vertex 1.24698 -23.4363 -1.95679
      vertex 2 -25 -3.92213
      vertex -1.4634 -13.9233 10
    endloop
  endfacet
  facet normal 0 -0.782539 0.622602
    outer loop
      vertex -1.4634 -13.9233 10
      vertex -3.13585 -29.8357 -10
      vertex -1.80194 -24.1322 -2.83145
    endloop
  endfacet
  facet normal 0 -0.782539 0.622602
    outer loop
      vertex -1.4634 -13.9233 10
      vertex -0.445042 -23.0501 -1.47139
      vertex 1.24698 -23.4363 -1.95679
    endloop
  endfacet
  facet normal 0 -0.782539 0.622602
    outer loop
      vertex 1.4634 -13.9233 10
      vertex 2 -25 -3.92213
      vertex 3.13585 -29.8357 -10
    endloop
  endfacet
  facet normal 0 -0.782539 0.622602
    outer loop
      vertex 1.4634 -13.9233 10
      vertex -1.4634 -13.9233 10
      vertex 2 -25 -3.92213
    endloop
  endfacet
  facet normal 0 -0.782539 0.622602
    outer loop
      vertex 1.24698 -26.5637 -5.88748
      vertex -0.445042 -26.9499 -6.37288
      vertex 3.13585 -29.8357 -10
    endloop
  endfacet
  facet normal 0 -0.782539 0.622602
    outer loop
      vertex -1.80194 -24.1322 -2.83145
      vertex -0.445042 -23.0501 -1.47139
      vertex -1.4634 -13.9233 10
    endloop
  endfacet
  facet normal 0 -0.782539 0.622602
    outer loop
      vertex 2 -25 -3.92213
      vertex 1.24698 -26.5637 -5.88748
      vertex 3.13585 -29.8357 -10
    endloop
  endfacet
  facet normal 0.162699 -0.765439 0.622602
    outer loop
      vertex 9.27051 -28.5317 -10
      vertex 1.4634 -13.9233 10
      vertex 3.13585 -29.8357 -10
    endloop
  endfacet
  facet normal 0.162699 -0.765439 0.622602
    outer loop
      vertex 4.32624 -13.3148 10
      vertex 1.4634 -13.9233 10
      vertex 9.27051 -28.5317 -10
    endloop
  endfacet
  facet normal 0.318287 -0.714885 0.622602
    outer loop
      vertex 15 -25.9808 -10
      vertex 4.32624 -13.3148 10
      vertex 9.27051 -28.5317 -10
    endloop
  endfacet
  facet normal 0.318287 -0.714885 0.622602
    outer loop
      vertex 7 -12.1244 10
      vertex 4.32624 -13.3148 10
      vertex 15 -25.9808 -10
    endloop
  endfacet
  facet normal 0.459965 -0.633087 0.622602
    outer loop
      vertex 20.0739 -22.2943 -10
      vertex 7 -12.1244 10
      vertex 15 -25.9808 -10
    endloop
  endfacet
  facet normal 0.459965 -0.633087 0.622602
    outer loop
      vertex 9.36783 -10.404 10
      vertex 7 -12.1244 10
      vertex 20.0739 -22.2943 -10
    endloop
  endfacet
  facet normal 0.58154 -0.523621 0.622602
    outer loop
      vertex 24.2705 -17.6336 -10
      vertex 9.36783 -10.404 10
      vertex 20.0739 -22.2943 -10
    endloop
  endfacet
  facet normal 0.58154 -0.523621 0.622602
    outer loop
      vertex 11.3262 -8.22899 10
      vertex 9.36783 -10.404 10
      vertex 24.2705 -17.6336 -10
    endloop
  endfacet
  facet normal 0.677699 -0.391269 0.622602
    outer loop
      vertex 27.4064 -12.2021 -10
      vertex 11.3262 -8.22899 10
      vertex 24.2705 -17.6336 -10
    endloop
  endfacet
  facet normal 0.677699 -0.391269 0.622602
    outer loop
      vertex 12.7896 -5.69431 10
      vertex 11.3262 -8.22899 10
      vertex 27.4064 -12.2021 -10
    endloop
  endfacet
  facet normal 0.744239 -0.241818 0.622602
    outer loop
      vertex 29.3444 -6.23735 -10
      vertex 12.7896 -5.69431 10
      vertex 27.4064 -12.2021 -10
    endloop
  endfacet
  facet normal 0.744239 -0.241818 0.622602
    outer loop
      vertex 13.6941 -2.91076 10
      vertex 12.7896 -5.69431 10
      vertex 29.3444 -6.23735 -10
    endloop
  endfacet
  facet normal 0.778252 -0.0817976 0.622602
    outer loop
      vertex 23.553 -1.15085 -2.09249
      vertex 13.6941 -2.91076 10
      vertex 29.3444 -6.23735 -10
    endloop
  endfacet
  facet normal 0.778252 -0.0817976 0.622602
    outer loop
      vertex 24.555 -1.94986 -3.44987
      vertex 23.553 -1.15085 -2.09249
      vertex 29.3444 -6.23735 -10
    endloop
  endfacet
  facet normal 0.778252 -0.0817976 0.622602
    outer loop
      vertex 30 0 -10
      vertex 26.7178 -0.585895 -5.97428
      vertex 29.3444 -6.23735 -10
    endloop
  endfacet
  facet normal 0.778252 -0.0817976 0.622602
    outer loop
      vertex 26.7178 -0.585895 -5.97428
      vertex 26.247 -1.56366 -5.51416
      vertex 29.3444 -6.23735 -10
    endloop
  endfacet
  facet normal 0.778252 -0.0817976 0.622602
    outer loop
      vertex 26.247 -1.56366 -5.51416
      vertex 24.555 -1.94986 -3.44987
      vertex 29.3444 -6.23735 -10
    endloop
  endfacet
  facet normal 0.778252 -0.0817977 0.622602
    outer loop
      vertex 27 0 -6.25
      vertex 26.7178 -0.585895 -5.97428
      vertex 30 0 -10
    endloop
  endfacet
  facet normal 0.778252 0.0817976 0.622602
    outer loop
      vertex 23.1981 0.867767 -1.61158
      vertex 14 0 10
      vertex 23.1981 0 -1.49758
    endloop
  endfacet
  facet normal 0.778252 0.0817976 0.622602
    outer loop
      vertex 29.3444 6.23735 -10
      vertex 14 0 10
      vertex 23.1981 0.867767 -1.61158
    endloop
  endfacet
  facet normal 0.778252 0.0817976 0.622602
    outer loop
      vertex 29.3444 6.23735 -10
      vertex 23.1981 0.867767 -1.61158
      vertex 24.555 1.94986 -3.44987
    endloop
  endfacet
  facet normal 0.778252 0.0817976 0.622602
    outer loop
      vertex 27 0 -6.25
      vertex 29.3444 6.23735 -10
      vertex 26.247 1.56366 -5.51416
    endloop
  endfacet
  facet normal 0.778252 0.0817976 0.622602
    outer loop
      vertex 30 0 -10
      vertex 29.3444 6.23735 -10
      vertex 27 0 -6.25
    endloop
  endfacet
  facet normal 0.778252 0.0817976 0.622602
    outer loop
      vertex 24.555 1.94986 -3.44987
      vertex 26.247 1.56366 -5.51416
      vertex 29.3444 6.23735 -10
    endloop
  endfacet
  facet normal 0.778252 0.0817977 0.622602
    outer loop
      vertex 29.3444 6.23735 -10
      vertex 13.6941 2.91076 10
      vertex 14 0 10
    endloop
  endfacet
  facet normal 0.744239 0.241818 0.622602
    outer loop
      vertex 27.4064 12.2021 -10
      vertex 13.6941 2.91076 10
      vertex 29.3444 6.23735 -10
    endloop
  endfacet
  facet normal 0.744239 0.241818 0.622602
    outer loop
      vertex 27.4064 12.2021 -10
      vertex 12.7896 5.69431 10
      vertex 13.6941 2.91076 10
    endloop
  endfacet
  facet normal 0.677699 0.391269 0.622602
    outer loop
      vertex 24.2705 17.6336 -10
      vertex 12.7896 5.69431 10
      vertex 27.4064 12.2021 -10
    endloop
  endfacet
  facet normal 0.677699 0.391269 0.622602
    outer loop
      vertex 24.2705 17.6336 -10
      vertex 11.3262 8.22899 10
      vertex 12.7896 5.69431 10
    endloop
  endfacet
  facet normal 0.58154 0.523621 0.622602
    outer loop
      vertex 20.0739 22.2943 -10
      vertex 11.3262 8.22899 10
      vertex 24.2705 17.6336 -10
    endloop
  endfacet
  facet normal 0.58154 0.523621 0.622602
    outer loop
      vertex 20.0739 22.2943 -10
      vertex 9.36783 10.404 10
      vertex 11.3262 8.22899 10
    endloop
  endfacet
  facet normal 0.459965 0.633087 0.622602
    outer loop
      vertex 15 25.9808 -10
      vertex 9.36783 10.404 10
      vertex 20.0739 22.2943 -10
    endloop
  endfacet
  facet normal 0.459965 0.633087 0.622602
    outer loop
      vertex 15 25.9808 -10
      vertex 7 12.1244 10
      vertex 9.36783 10.404 10
    endloop
  endfacet
  facet normal 0.318287 0.714885 0.622602
    outer loop
      vertex 9.27051 28.5317 -10
      vertex 7 12.1244 10
      vertex 15 25.9808 -10
    endloop
  endfacet
  facet normal 0.318287 0.714885 0.622602
    outer loop
      vertex 9.27051 28.5317 -10
      vertex 4.32624 13.3148 10
      vertex 7 12.1244 10
    endloop
  endfacet
  facet normal 0.162699 0.765439 0.622602
    outer loop
      vertex 9.27051 28.5317 -10
      vertex 3.13585 29.8357 -10
      vertex 4.32624 13.3148 10
    endloop
  endfacet
  facet normal 0.162699 0.765439 0.622602
    outer loop
      vertex 3.13585 29.8357 -10
      vertex 1.4634 13.9233 10
      vertex 4.32624 13.3148 10
    endloop
  endfacet
  facet normal 0 0.782539 0.622602
    outer loop
      vertex 2 25 -3.92213
      vertex -1.4634 13.9233 10
      vertex 1.4634 13.9233 10
    endloop
  endfacet
  facet normal 0 0.782539 0.622602
    outer loop
      vertex -3.13585 29.8357 -10
      vertex -1.4634 13.9233 10
      vertex -1.80194 24.1322 -2.83145
    endloop
  endfacet
  facet normal 0 0.782539 0.622602
    outer loop
      vertex 1.24698 23.4363 -1.95679
      vertex -1.4634 13.9233 10
      vertex 2 25 -3.92213
    endloop
  endfacet
  facet normal 0 0.782539 0.622602
    outer loop
      vertex -3.13585 29.8357 -10
      vertex -1.80194 24.1322 -2.83145
      vertex -1.80194 25.8678 -5.01282
    endloop
  endfacet
  facet normal 0 0.782539 0.622602
    outer loop
      vertex -3.13585 29.8357 -10
      vertex -1.80194 25.8678 -5.01282
      vertex 3.13585 29.8357 -10
    endloop
  endfacet
  facet normal 0 0.782539 0.622602
    outer loop
      vertex -1.80194 25.8678 -5.01282
      vertex -0.445042 26.9499 -6.37288
      vertex 3.13585 29.8357 -10
    endloop
  endfacet
  facet normal 0 0.782539 0.622602
    outer loop
      vertex 2 25 -3.92213
      vertex 3.13585 29.8357 -10
      vertex 1.24698 26.5637 -5.88748
    endloop
  endfacet
  facet normal 0 0.782539 0.622602
    outer loop
      vertex -0.445042 23.0501 -1.47139
      vertex -1.4634 13.9233 10
      vertex 1.24698 23.4363 -1.95679
    endloop
  endfacet
  facet normal 0 0.782539 0.622602
    outer loop
      vertex 3.13585 29.8357 -10
      vertex 2 25 -3.92213
      vertex 1.4634 13.9233 10
    endloop
  endfacet
  facet normal 0 0.782539 0.622602
    outer loop
      vertex -1.80194 24.1322 -2.83145
      vertex -1.4634 13.9233 10
      vertex -0.445042 23.0501 -1.47139
    endloop
  endfacet
  facet normal 0 0.782539 0.622602
    outer loop
      vertex 1.24698 26.5637 -5.88748
      vertex 3.13585 29.8357 -10
      vertex -0.445042 26.9499 -6.37288
    endloop
  endfacet
  facet normal -0.162699 0.765439 0.622602
    outer loop
      vertex -3.13585 29.8357 -10
      vertex -9.27051 28.5317 -10
      vertex -1.4634 13.9233 10
    endloop
  endfacet
  facet normal -0.162699 0.765439 0.622602
    outer loop
      vertex -1.4634 13.9233 10
      vertex -9.27051 28.5317 -10
      vertex -4.32624 13.3148 10
    endloop
  endfacet
  facet normal -0.318287 0.714885 0.622602
    outer loop
      vertex -9.27051 28.5317 -10
      vertex -15 25.9808 -10
      vertex -4.32624 13.3148 10
    endloop
  endfacet
  facet normal -0.318287 0.714885 0.622602
    outer loop
      vertex -4.32624 13.3148 10
      vertex -15 25.9808 -10
      vertex -7 12.1244 10
    endloop
  endfacet
  facet normal -0.459965 0.633087 0.622602
    outer loop
      vertex -15 25.9808 -10
      vertex -20.0739 22.2943 -10
      vertex -7 12.1244 10
    endloop
  endfacet
  facet normal -0.459965 0.633087 0.622602
    outer loop
      vertex -7 12.1244 10
      vertex -20.0739 22.2943 -10
      vertex -9.36783 10.404 10
    endloop
  endfacet
  facet normal -0.58154 0.523621 0.622602
    outer loop
      vertex -20.0739 22.2943 -10
      vertex -24.2705 17.6336 -10
      vertex -9.36783 10.404 10
    endloop
  endfacet
  facet normal -0.58154 0.523621 0.622602
    outer loop
      vertex -9.36783 10.404 10
      vertex -24.2705 17.6336 -10
      vertex -11.3262 8.22899 10
    endloop
  endfacet
  facet normal -0.677699 0.391269 0.622602
    outer loop
      vertex -24.2705 17.6336 -10
      vertex -27.4064 12.2021 -10
      vertex -11.3262 8.22899 10
    endloop
  endfacet
  facet normal -0.677699 0.391269 0.622602
    outer loop
      vertex -11.3262 8.22899 10
      vertex -27.4064 12.2021 -10
      vertex -12.7896 5.69431 10
    endloop
  endfacet
  facet normal -0.744239 0.241818 0.622602
    outer loop
      vertex -27.4064 12.2021 -10
      vertex -29.3444 6.23735 -10
      vertex -12.7896 5.69431 10
    endloop
  endfacet
  facet normal -0.744239 0.241818 0.622602
    outer loop
      vertex -12.7896 5.69431 10
      vertex -29.3444 6.23735 -10
      vertex -13.6941 2.91076 10
    endloop
  endfacet
  facet normal 0.62349 -0.781831 0
    outer loop
      vertex -25.445 1.94986 -10
      vertex -25.445 1.94986 -4.56248
      vertex -26.8019 0.867767 -6.11643
    endloop
  endfacet
  facet normal 0.62349 -0.781831 0
    outer loop
      vertex -26.8019 0.867767 -10
      vertex -25.445 1.94986 -10
      vertex -26.8019 0.867767 -6.11643
    endloop
  endfacet
  facet normal 1 0 0
    outer loop
      vertex -26.8019 0.867767 -10
      vertex -26.8019 0.867767 -6.11643
      vertex -26.8019 0.570884 -6.07743
    endloop
  endfacet
  facet normal 1 0 0
    outer loop
      vertex -26.8019 0 -6.00242
      vertex -26.8019 0.867767 -10
      vertex -26.8019 0.570884 -6.07743
    endloop
  endfacet
  facet normal 1 0 0
    outer loop
      vertex -26.8019 0 -6.00242
      vertex -26.8019 -0.867767 -6.11643
      vertex -26.8019 0.867767 -10
    endloop
  endfacet
  facet normal 1 0 0
    outer loop
      vertex -26.8019 -0.867767 -6.11643
      vertex -26.8019 -0.867767 -10
      vertex -26.8019 0.867767 -10
    endloop
  endfacet
  facet normal -0.222521 -0.974928 0
    outer loop
      vertex -23.753 1.56366 -10
      vertex -23.753 1.56366 -2.39671
      vertex -25.445 1.94986 -4.56248
    endloop
  endfacet
  facet normal -0.222521 -0.974928 0
    outer loop
      vertex -25.445 1.94986 -10
      vertex -23.753 1.56366 -10
      vertex -25.445 1.94986 -4.56248
    endloop
  endfacet
  facet normal -0.900969 -0.433884 0
    outer loop
      vertex -23 0 -1.25
      vertex -23.5541 1.15065 -2.09383
      vertex -23 0 -10
    endloop
  endfacet
  facet normal -0.900969 -0.433884 0
    outer loop
      vertex -23 0 -10
      vertex -23.5541 1.15065 -2.09383
      vertex -23.753 1.56366 -2.39671
    endloop
  endfacet
  facet normal -0.900969 -0.433884 0
    outer loop
      vertex -23 0 -10
      vertex -23.753 1.56366 -2.39671
      vertex -23.753 1.56366 -10
    endloop
  endfacet
  facet normal -0.900969 0.433884 0
    outer loop
      vertex -23 0 -1.25
      vertex -23 0 -10
      vertex -23.753 -1.56366 -2.39671
    endloop
  endfacet
  facet normal -0.900969 0.433884 0
    outer loop
      vertex -23.753 -1.56366 -2.39671
      vertex -23 0 -10
      vertex -23.753 -1.56366 -10
    endloop
  endfacet
  facet normal -0.222521 0.974928 0
    outer loop
      vertex -23.753 -1.56366 -2.39671
      vertex -23.753 -1.56366 -10
      vertex -25.445 -1.94986 -4.56248
    endloop
  endfacet
  facet normal -0.222521 0.974928 0
    outer loop
      vertex -25.445 -1.94986 -4.56248
      vertex -23.753 -1.56366 -10
      vertex -25.445 -1.94986 -10
    endloop
  endfacet
  facet normal 0.62349 0.781831 0
    outer loop
      vertex -25.445 -1.94986 -4.56248
      vertex -25.445 -1.94986 -10
      vertex -26.8019 -0.867767 -6.11643
    endloop
  endfacet
  facet normal 0.62349 0.781831 0
    outer loop
      vertex -26.8019 -0.867767 -6.11643
      vertex -25.445 -1.94986 -10
      vertex -26.8019 -0.867767 -10
    endloop
  endfacet
  facet normal 0.994522 -0.104528 0
    outer loop
      vertex -10.7596 2.28703 -10
      vertex -10.7596 2.28703 10
      vertex -11 0 10
    endloop
  endfacet
  facet normal 0.994522 -0.104528 0
    outer loop
      vertex -11 0 -10
      vertex -10.7596 2.28703 -10
      vertex -11 0 10
    endloop
  endfacet
  facet normal 0.994522 0.104528 0
    outer loop
      vertex -11 0 10
      vertex -10.7596 -2.28703 10
      vertex -10.7596 -2.28703 -10
    endloop
  endfacet
  facet normal 0.994522 0.104528 0
    outer loop
      vertex -11 0 -10
      vertex -11 0 10
      vertex -10.7596 -2.28703 -10
    endloop
  endfacet
  facet normal 0.951056 -0.309017 0
    outer loop
      vertex -10.049 4.4741 -10
      vertex -10.049 4.4741 10
      vertex -10.7596 2.28703 10
    endloop
  endfacet
  facet normal 0.951056 -0.309017 0
    outer loop
      vertex -10.7596 2.28703 -10
      vertex -10.049 4.4741 -10
      vertex -10.7596 2.28703 10
    endloop
  endfacet
  facet normal 0.866025 -0.5 0
    outer loop
      vertex -8.89919 6.46564 -10
      vertex -8.89919 6.46564 10
      vertex -10.049 4.4741 10
    endloop
  endfacet
  facet normal 0.866025 -0.5 0
    outer loop
      vertex -10.049 4.4741 -10
      vertex -8.89919 6.46564 -10
      vertex -10.049 4.4741 10
    endloop
  endfacet
  facet normal 0.743145 -0.669131 0
    outer loop
      vertex -7.36044 8.17459 -10
      vertex -7.36044 8.17459 10
      vertex -8.89919 6.46564 10
    endloop
  endfacet
  facet normal 0.743145 -0.669131 0
    outer loop
      vertex -8.89919 6.46564 -10
      vertex -7.36044 8.17459 -10
      vertex -8.89919 6.46564 10
    endloop
  endfacet
  facet normal 0.587785 -0.809017 0
    outer loop
      vertex -5.5 9.52628 -10
      vertex -5.5 9.52628 10
      vertex -7.36044 8.17459 10
    endloop
  endfacet
  facet normal 0.587785 -0.809017 0
    outer loop
      vertex -7.36044 8.17459 -10
      vertex -5.5 9.52628 -10
      vertex -7.36044 8.17459 10
    endloop
  endfacet
  facet normal 0.406737 -0.913545 0
    outer loop
      vertex -3.39919 10.4616 -10
      vertex -3.39919 10.4616 10
      vertex -5.5 9.52628 10
    endloop
  endfacet
  facet normal 0.406737 -0.913545 0
    outer loop
      vertex -5.5 9.52628 -10
      vertex -3.39919 10.4616 -10
      vertex -5.5 9.52628 10
    endloop
  endfacet
  facet normal 0.207912 -0.978148 0
    outer loop
      vertex -1.14981 10.9397 -10
      vertex -1.14981 10.9397 10
      vertex -3.39919 10.4616 10
    endloop
  endfacet
  facet normal 0.207912 -0.978148 0
    outer loop
      vertex -3.39919 10.4616 -10
      vertex -1.14981 10.9397 -10
      vertex -3.39919 10.4616 10
    endloop
  endfacet
  facet normal 0 -1 0
    outer loop
      vertex 1.14981 10.9397 -10
      vertex 1.14981 10.9397 10
      vertex -1.14981 10.9397 10
    endloop
  endfacet
  facet normal 0 -1 0
    outer loop
      vertex -1.14981 10.9397 -10
      vertex 1.14981 10.9397 -10
      vertex -1.14981 10.9397 10
    endloop
  endfacet
  facet normal -0.207912 -0.978148 0
    outer loop
      vertex 3.39919 10.4616 -10
      vertex 3.39919 10.4616 10
      vertex 1.14981 10.9397 10
    endloop
  endfacet
  facet normal -0.207912 -0.978148 0
    outer loop
      vertex 1.14981 10.9397 -10
      vertex 3.39919 10.4616 -10
      vertex 1.14981 10.9397 10
    endloop
  endfacet
  facet normal -0.406737 -0.913545 0
    outer loop
      vertex 5.5 9.52628 -10
      vertex 5.5 9.52628 10
      vertex 3.39919 10.4616 10
    endloop
  endfacet
  facet normal -0.406737 -0.913545 0
    outer loop
      vertex 3.39919 10.4616 -10
      vertex 5.5 9.52628 -10
      vertex 3.39919 10.4616 10
    endloop
  endfacet
  facet normal -0.587785 -0.809017 0
    outer loop
      vertex 7.36044 8.17459 -10
      vertex 7.36044 8.17459 10
      vertex 5.5 9.52628 10
    endloop
  endfacet
  facet normal -0.587785 -0.809017 0
    outer loop
      vertex 5.5 9.52628 -10
      vertex 7.36044 8.17459 -10
      vertex 5.5 9.52628 10
    endloop
  endfacet
  facet normal -0.743145 -0.669131 0
    outer loop
      vertex 8.89919 6.46564 10
      vertex 7.36044 8.17459 10
      vertex 8.89919 6.46564 -10
    endloop
  endfacet
  facet normal -0.743145 -0.669131 0
    outer loop
      vertex 8.89919 6.46564 -10
      vertex 7.36044 8.17459 10
      vertex 7.36044 8.17459 -10
    endloop
  endfacet
  facet normal -0.866025 -0.5 0
    outer loop
      vertex 10.049 4.4741 10
      vertex 8.89919 6.46564 10
      vertex 10.049 4.4741 -10
    endloop
  endfacet
  facet normal -0.866025 -0.5 0
    outer loop
      vertex 10.049 4.4741 -10
      vertex 8.89919 6.46564 10
      vertex 8.89919 6.46564 -10
    endloop
  endfacet
  facet normal -0.951056 -0.309017 0
    outer loop
      vertex 10.7596 2.28703 10
      vertex 10.049 4.4741 10
      vertex 10.7596 2.28703 -10
    endloop
  endfacet
  facet normal -0.951056 -0.309017 0
    outer loop
      vertex 10.7596 2.28703 -10
      vertex 10.049 4.4741 10
      vertex 10.049 4.4741 -10
    endloop
  endfacet
  facet normal -0.994522 -0.104528 0
    outer loop
      vertex 11 0 10
      vertex 10.7596 2.28703 10
      vertex 11 0 -10
    endloop
  endfacet
  facet normal -0.994522 -0.104528 0
    outer loop
      vertex 11 0 -10
      vertex 10.7596 2.28703 10
      vertex 10.7596 2.28703 -10
    endloop
  endfacet
  facet normal -0.994522 0.104528 0
    outer loop
      vertex 11 0 10
      vertex 11 0 -10
      vertex 10.7596 -2.28703 10
    endloop
  endfacet
  facet normal -0.994522 0.104528 0
    outer loop
      vertex 10.7596 -2.28703 10
      vertex 11 0 -10
      vertex 10.7596 -2.28703 -10
    endloop
  endfacet
  facet normal -0.951056 0.309017 0
    outer loop
      vertex 10.7596 -2.28703 10
      vertex 10.7596 -2.28703 -10
      vertex 10.049 -4.4741 10
    endloop
  endfacet
  facet normal -0.951056 0.309017 0
    outer loop
      vertex 10.049 -4.4741 10
      vertex 10.7596 -2.28703 -10
      vertex 10.049 -4.4741 -10
    endloop
  endfacet
  facet normal -0.866025 0.5 0
    outer loop
      vertex 10.049 -4.4741 10
      vertex 10.049 -4.4741 -10
      vertex 8.89919 -6.46564 10
    endloop
  endfacet
  facet normal -0.866025 0.5 0
    outer loop
      vertex 8.89919 -6.46564 10
      vertex 10.049 -4.4741 -10
      vertex 8.89919 -6.46564 -10
    endloop
  endfacet
  facet normal -0.743145 0.669131 0
    outer loop
      vertex 8.89919 -6.46564 10
      vertex 8.89919 -6.46564 -10
      vertex 7.36044 -8.17459 10
    endloop
  endfacet
  facet normal -0.743145 0.669131 0
    outer loop
      vertex 7.36044 -8.17459 10
      vertex 8.89919 -6.46564 -10
      vertex 7.36044 -8.17459 -10
    endloop
  endfacet
  facet normal -0.587785 0.809017 0
    outer loop
      vertex 7.36044 -8.17459 10
      vertex 7.36044 -8.17459 -10
      vertex 5.5 -9.52628 10
    endloop
  endfacet
  facet normal -0.587785 0.809017 0
    outer loop
      vertex 5.5 -9.52628 10
      vertex 7.36044 -8.17459 -10
      vertex 5.5 -9.52628 -10
    endloop
  endfacet
  facet normal -0.406737 0.913545 0
    outer loop
      vertex 5.5 -9.52628 10
      vertex 5.5 -9.52628 -10
      vertex 3.39919 -10.4616 10
    endloop
  endfacet
  facet normal -0.406737 0.913545 0
    outer loop
      vertex 3.39919 -10.4616 10
      vertex 5.5 -9.52628 -10
      vertex 3.39919 -10.4616 -10
    endloop
  endfacet
  facet normal -0.207912 0.978148 0
    outer loop
      vertex 3.39919 -10.4616 10
      vertex 3.39919 -10.4616 -10
      vertex 1.14981 -10.9397 10
    endloop
  endfacet
  facet normal -0.207912 0.978148 0
    outer loop
      vertex 1.14981 -10.9397 10
      vertex 3.39919 -10.4616 -10
      vertex 1.14981 -10.9397 -10
    endloop
  endfacet
  facet normal 0 1 0
    outer loop
      vertex 1.14981 -10.9397 10
      vertex 1.14981 -10.9397 -10
      vertex -1.14981 -10.9397 10
    endloop
  endfacet
  facet normal 0 1 0
    outer loop
      vertex -1.14981 -10.9397 10
      vertex 1.14981 -10.9397 -10
      vertex -1.14981 -10.9397 -10
    endloop
  endfacet
  facet normal 0.207912 0.978148 0
    outer loop
      vertex -1.14981 -10.9397 10
      vertex -1.14981 -10.9397 -10
      vertex -3.39919 -10.4616 10
    endloop
  endfacet
  facet normal 0.207912 0.978148 0
    outer loop
      vertex -3.39919 -10.4616 10
      vertex -1.14981 -10.9397 -10
      vertex -3.39919 -10.4616 -10
    endloop
  endfacet
  facet normal 0.406737 0.913545 0
    outer loop
      vertex -3.39919 -10.4616 10
      vertex -3.39919 -10.4616 -10
      vertex -5.5 -9.52628 10
    endloop
  endfacet
  facet normal 0.406737 0.913545 0
    outer loop
      vertex -5.5 -9.52628 10
      vertex -3.39919 -10.4616 -10
      vertex -5.5 -9.52628 -10
    endloop
  endfacet
  facet normal 0.587785 0.809017 0
    outer loop
      vertex -5.5 -9.52628 10
      vertex -5.5 -9.52628 -10
      vertex -7.36044 -8.17459 10
    endloop
  endfacet
  facet normal 0.587785 0.809017 0
    outer loop
      vertex -7.36044 -8.17459 10
      vertex -5.5 -9.52628 -10
      vertex -7.36044 -8.17459 -10
    endloop
  endfacet
  facet normal 0.743145 0.669131 0
    outer loop
      vertex -8.89919 -6.46564 10
      vertex -7.36044 -8.17459 10
      vertex -7.36044 -8.17459 -10
    endloop
  endfacet
  facet normal 0.743145 0.669131 0
    outer loop
      vertex -8.89919 -6.46564 -10
      vertex -8.89919 -6.46564 10
      vertex -7.36044 -8.17459 -10
    endloop
  endfacet
  facet normal 0.866025 0.5 0
    outer loop
      vertex -10.049 -4.4741 10
      vertex -8.89919 -6.46564 10
      vertex -8.89919 -6.46564 -10
    endloop
  endfacet
  facet normal 0.866025 0.5 0
    outer loop
      vertex -10.049 -4.4741 -10
      vertex -10.049 -4.4741 10
      vertex -8.89919 -6.46564 -10
    endloop
  endfacet
  facet normal 0.951056 0.309017 0
    outer loop
      vertex -10.7596 -2.28703 10
      vertex -10.049 -4.4741 10
      vertex -10.049 -4.4741 -10
    endloop
  endfacet
  facet normal 0.951056 0.309017 0
    outer loop
      vertex -10.7596 -2.28703 -10
      vertex -10.7596 -2.28703 10
      vertex -10.049 -4.4741 -10
    endloop
  endfacet
  facet normal 0.62349 -0.781831 0
    outer loop
      vertex -0.445042 -23.0501 -10
      vertex -0.445042 -23.0501 -1.47139
      vertex -1.80194 -24.1322 -2.83145
    endloop
  endfacet
  facet normal 0.62349 -0.781831 0
    outer loop
      vertex -1.80194 -24.1322 -10
      vertex -0.445042 -23.0501 -10
      vertex -1.80194 -24.1322 -2.83145
    endloop
  endfacet
  facet normal 1 0 0
    outer loop
      vertex -1.80194 -24.1322 -10
      vertex -1.80194 -24.1322 -2.83145
      vertex -1.80194 -25.8678 -5.01282
    endloop
  endfacet
  facet normal 1 0 0
    outer loop
      vertex -1.80194 -25.8678 -10
      vertex -1.80194 -24.1322 -10
      vertex -1.80194 -25.8678 -5.01282
    endloop
  endfacet
  facet normal -0.222521 -0.974928 0
    outer loop
      vertex 1.24698 -23.4363 -10
      vertex 1.24698 -23.4363 -1.95679
      vertex -0.445042 -23.0501 -1.47139
    endloop
  endfacet
  facet normal -0.222521 -0.974928 0
    outer loop
      vertex -0.445042 -23.0501 -10
      vertex 1.24698 -23.4363 -10
      vertex -0.445042 -23.0501 -1.47139
    endloop
  endfacet
  facet normal -0.900969 -0.433884 0
    outer loop
      vertex 2 -25 -3.92213
      vertex 1.24698 -23.4363 -1.95679
      vertex 2 -25 -10
    endloop
  endfacet
  facet normal -0.900969 -0.433884 0
    outer loop
      vertex 2 -25 -10
      vertex 1.24698 -23.4363 -1.95679
      vertex 1.24698 -23.4363 -10
    endloop
  endfacet
  facet normal -0.900969 0.433884 0
    outer loop
      vertex 2 -25 -3.92213
      vertex 2 -25 -10
      vertex 1.24698 -26.5637 -5.88748
    endloop
  endfacet
  facet normal -0.900969 0.433884 0
    outer loop
      vertex 1.24698 -26.5637 -5.88748
      vertex 2 -25 -10
      vertex 1.24698 -26.5637 -10
    endloop
  endfacet
  facet normal -0.222521 0.974928 0
    outer loop
      vertex 1.24698 -26.5637 -5.88748
      vertex 1.24698 -26.5637 -10
      vertex -0.445042 -26.9499 -6.37288
    endloop
  endfacet
  facet normal -0.222521 0.974928 0
    outer loop
      vertex -0.445042 -26.9499 -6.37288
      vertex 1.24698 -26.5637 -10
      vertex -0.445042 -26.9499 -10
    endloop
  endfacet
  facet normal 0.62349 0.781831 0
    outer loop
      vertex -0.445042 -26.9499 -6.37288
      vertex -0.445042 -26.9499 -10
      vertex -1.80194 -25.8678 -5.01282
    endloop
  endfacet
  facet normal 0.62349 0.781831 0
    outer loop
      vertex -1.80194 -25.8678 -5.01282
      vertex -0.445042 -26.9499 -10
      vertex -1.80194 -25.8678 -10
    endloop
  endfacet
  facet normal 0.62349 -0.781831 0
    outer loop
      vertex -0.445042 26.9499 -10
      vertex -0.445042 26.9499 -6.37288
      vertex -1.80194 25.8678 -5.01282
    endloop
  endfacet
  facet normal 0.62349 -0.781831 0
    outer loop
      vertex -1.80194 25.8678 -10
      vertex -0.445042 26.9499 -10
      vertex -1.80194 25.8678 -5.01282
    endloop
  endfacet
  facet normal 1 0 0
    outer loop
      vertex -1.80194 25.8678 -10
      vertex -1.80194 25.8678 -5.01282
      vertex -1.80194 24.1322 -2.83145
    endloop
  endfacet
  facet normal 1 0 0
    outer loop
      vertex -1.80194 24.1322 -10
      vertex -1.80194 25.8678 -10
      vertex -1.80194 24.1322 -2.83145
    endloop
  endfacet
  facet normal -0.222521 -0.974928 0
    outer loop
      vertex 1.24698 26.5637 -10
      vertex 1.24698 26.5637 -5.88748
      vertex -0.445042 26.9499 -6.37288
    endloop
  endfacet
  facet normal -0.222521 -0.974928 0
    outer loop
      vertex -0.445042 26.9499 -10
      vertex 1.24698 26.5637 -10
      vertex -0.445042 26.9499 -6.37288
    endloop
  endfacet
  facet normal -0.900969 -0.433884 0
    outer loop
      vertex 2 25 -3.92213
      vertex 1.24698 26.5637 -5.88748
      vertex 2 25 -10
    endloop
  endfacet
  facet normal -0.900969 -0.433884 0
    outer loop
      vertex 2 25 -10
      vertex 1.24698 26.5637 -5.88748
      vertex 1.24698 26.5637 -10
    endloop
  endfacet
  facet normal -0.900969 0.433884 0
    outer loop
      vertex 2 25 -3.92213
      vertex 2 25 -10
      vertex 1.24698 23.4363 -1.95679
    endloop
  endfacet
  facet normal -0.900969 0.433884 0
    outer loop
      vertex 1.24698 23.4363 -1.95679
      vertex 2 25 -10
      vertex 1.24698 23.4363 -10
    endloop
  endfacet
  facet normal -0.222521 0.974928 0
    outer loop
      vertex 1.24698 23.4363 -1.95679
      vertex 1.24698 23.4363 -10
      vertex -0.445042 23.0501 -1.47139
    endloop
  endfacet
  facet normal -0.222521 0.974928 0
    outer loop
      vertex -0.445042 23.0501 -1.47139
      vertex 1.24698 23.4363 -10
      vertex -0.445042 23.0501 -10
    endloop
  endfacet
  facet normal 0.62349 0.781831 0
    outer loop
      vertex -0.445042 23.0501 -1.47139
      vertex -0.445042 23.0501 -10
      vertex -1.80194 24.1322 -2.83145
    endloop
  endfacet
  facet normal 0.62349 0.781831 0
    outer loop
      vertex -1.80194 24.1322 -2.83145
      vertex -0.445042 23.0501 -10
      vertex -1.80194 24.1322 -10
    endloop
  endfacet
  facet normal 0.62349 -0.781831 0
    outer loop
      vertex 24.555 1.94986 -10
      vertex 24.555 1.94986 -3.44987
      vertex 23.1981 0.867767 -1.61158
    endloop
  endfacet
  facet normal 0.62349 -0.781831 0
    outer loop
      vertex 23.1981 0.867767 -10
      vertex 24.555 1.94986 -10
      vertex 23.1981 0.867767 -1.61158
    endloop
  endfacet
  facet normal 1 0 0
    outer loop
      vertex 23.1981 0.867767 -10
      vertex 23.1981 0.867767 -1.61158
      vertex 23.1981 0 -1.49758
    endloop
  endfacet
  facet normal 1 0 0
    outer loop
      vertex 23.1981 -0.867767 -10
      vertex 23.1981 0.867767 -10
      vertex 23.1981 -0.867767 -1.61159
    endloop
  endfacet
  facet normal 1 0 0
    outer loop
      vertex 23.1981 -0.867767 -1.61159
      vertex 23.1981 0.867767 -10
      vertex 23.1981 0 -1.49758
    endloop
  endfacet
  facet normal -0.222521 -0.974928 0
    outer loop
      vertex 26.247 1.56366 -10
      vertex 26.247 1.56366 -5.51416
      vertex 24.555 1.94986 -3.44987
    endloop
  endfacet
  facet normal -0.222521 -0.974928 0
    outer loop
      vertex 24.555 1.94986 -10
      vertex 26.247 1.56366 -10
      vertex 24.555 1.94986 -3.44987
    endloop
  endfacet
  facet normal -0.900969 -0.433884 0
    outer loop
      vertex 27 0 -6.25
      vertex 26.247 1.56366 -5.51416
      vertex 27 0 -10
    endloop
  endfacet
  facet normal -0.900969 -0.433884 0
    outer loop
      vertex 27 0 -10
      vertex 26.247 1.56366 -5.51416
      vertex 26.247 1.56366 -10
    endloop
  endfacet
  facet normal -0.900969 0.433884 0
    outer loop
      vertex 26.7178 -0.585895 -5.97428
      vertex 27 0 -6.25
      vertex 27 0 -10
    endloop
  endfacet
  facet normal -0.900969 0.433884 0
    outer loop
      vertex 26.7178 -0.585895 -5.97428
      vertex 27 0 -10
      vertex 26.247 -1.56366 -5.51416
    endloop
  endfacet
  facet normal -0.900969 0.433884 0
    outer loop
      vertex 27 0 -10
      vertex 26.247 -1.56366 -10
      vertex 26.247 -1.56366 -5.51416
    endloop
  endfacet
  facet normal -0.222521 0.974928 0
    outer loop
      vertex 26.247 -1.56366 -5.51416
      vertex 26.247 -1.56366 -10
      vertex 24.555 -1.94986 -3.44987
    endloop
  endfacet
  facet normal -0.222521 0.974928 0
    outer loop
      vertex 24.555 -1.94986 -3.44987
      vertex 26.247 -1.56366 -10
      vertex 24.555 -1.94986 -10
    endloop
  endfacet
  facet normal 0.62349 0.781831 0
    outer loop
      vertex 23.553 -1.15085 -2.09249
      vertex 24.555 -1.94986 -3.44987
      vertex 24.555 -1.94986 -10
    endloop
  endfacet
  facet normal 0.62349 0.781831 0
    outer loop
      vertex 23.553 -1.15085 -2.09249
      vertex 24.555 -1.94986 -10
      vertex 23.1981 -0.867767 -1.61159
    endloop
  endfacet
  facet normal 0.62349 0.781831 0
    outer loop
      vertex 24.555 -1.94986 -10
      vertex 23.1981 -0.867767 -10
      vertex 23.1981 -0.867767 -1.61159
    endloop
  endfacet
  facet normal 0 0 1
    outer loop
      vertex -13.6941 2.91076 10
      vertex -14 0 10
      vertex -13.6941 -2.91076 10
    endloop
  endfacet
  facet normal 0 0 1
    outer loop
      vertex -11.3262 -8.22899 10
      vertex -13.6941 2.91076 10
      vertex -12.7896 -5.69431 10
    endloop
  endfacet
  facet normal 0 0 1
    outer loop
      vertex -12.7896 -5.69431 10
      vertex -13.6941 2.91076 10
      vertex -13.6941 -2.91076 10
    endloop
  endfacet
  facet normal 0 0 1
    outer loop
      vertex -9.36783 -10.404 10
      vertex -13.6941 2.91076 10
      vertex -11.3262 -8.22899 10
    endloop
  endfacet
  facet normal 0 0 1
    outer loop
      vertex -7 -12.1244 10
      vertex -13.6941 2.91076 10
      vertex -9.36783 -10.404 10
    endloop
  endfacet
  facet normal 0 0 1
    outer loop
      vertex -10.049 -4.4741 10
      vertex -13.6941 2.91076 10
      vertex -7 -12.1244 10
    endloop
  endfacet
  facet normal 0 0 1
    outer loop
      vertex 5.5 9.52628 10
      vertex 7.36044 8.17459 10
      vertex 9.36783 10.404 10
    endloop
  endfacet
  facet normal 0 0 1
    outer loop
      vertex 1.14981 10.9397 10
      vertex 3.39919 10.4616 10
      vertex 7 12.1244 10
    endloop
  endfacet
  facet normal 0 0 1
    outer loop
      vertex -4.32624 13.3148 10
      vertex -13.6941 2.91076 10
      vertex -1.4634 13.9233 10
    endloop
  endfacet
  facet normal 0 0 1
    outer loop
      vertex -7 12.1244 10
      vertex -13.6941 2.91076 10
      vertex -4.32624 13.3148 10
    endloop
  endfacet
  facet normal 0 0 1
    outer loop
      vertex -9.36783 10.404 10
      vertex -13.6941 2.91076 10
      vertex -7 12.1244 10
    endloop
  endfacet
  facet normal 0 0 1
    outer loop
      vertex -11.3262 8.22899 10
      vertex -13.6941 2.91076 10
      vertex -9.36783 10.404 10
    endloop
  endfacet
  facet normal 0 0 1
    outer loop
      vertex -12.7896 5.69431 10
      vertex -13.6941 2.91076 10
      vertex -11.3262 8.22899 10
    endloop
  endfacet
  facet normal 0 0 1
    outer loop
      vertex -3.39919 -10.4616 10
      vertex -5.5 -9.52628 10
      vertex -1.4634 -13.9233 10
    endloop
  endfacet
  facet normal 0 0 1
    outer loop
      vertex 8.89919 -6.46564 10
      vertex 7.36044 -8.17459 10
      vertex 11.3262 -8.22899 10
    endloop
  endfacet
  facet normal 0 0 1
    outer loop
      vertex 7.36044 8.17459 10
      vertex 8.89919 6.46564 10
      vertex 11.3262 8.22899 10
    endloop
  endfacet
  facet normal 0 0 1
    outer loop
      vertex -1.14981 10.9397 10
      vertex 1.14981 10.9397 10
      vertex 4.32624 13.3148 10
    endloop
  endfacet
  facet normal 0 0 1
    outer loop
      vertex -7.36044 8.17459 10
      vertex -13.6941 2.91076 10
      vertex -8.89919 6.46564 10
    endloop
  endfacet
  facet normal 0 0 1
    outer loop
      vertex -3.39919 10.4616 10
      vertex -1.14981 10.9397 10
      vertex 1.4634 13.9233 10
    endloop
  endfacet
  facet normal 0 0 1
    outer loop
      vertex -1.4634 13.9233 10
      vertex -13.6941 2.91076 10
      vertex -7.36044 8.17459 10
    endloop
  endfacet
  facet normal 0 0 1
    outer loop
      vertex -1.4634 13.9233 10
      vertex -5.5 9.52628 10
      vertex 1.4634 13.9233 10
    endloop
  endfacet
  facet normal 0 0 1
    outer loop
      vertex -5.5 9.52628 10
      vertex -3.39919 10.4616 10
      vertex 1.4634 13.9233 10
    endloop
  endfacet
  facet normal 0 0 1
    outer loop
      vertex 1.4634 13.9233 10
      vertex -1.14981 10.9397 10
      vertex 4.32624 13.3148 10
    endloop
  endfacet
  facet normal 0 0 1
    outer loop
      vertex -7.36044 8.17459 10
      vertex -5.5 9.52628 10
      vertex -1.4634 13.9233 10
    endloop
  endfacet
  facet normal 0 0 1
    outer loop
      vertex 4.32624 13.3148 10
      vertex 1.14981 10.9397 10
      vertex 7 12.1244 10
    endloop
  endfacet
  facet normal 0 0 1
    outer loop
      vertex 7 12.1244 10
      vertex 3.39919 10.4616 10
      vertex 9.36783 10.404 10
    endloop
  endfacet
  facet normal 0 0 1
    outer loop
      vertex 3.39919 10.4616 10
      vertex 5.5 9.52628 10
      vertex 9.36783 10.404 10
    endloop
  endfacet
  facet normal 0 0 1
    outer loop
      vertex 9.36783 10.404 10
      vertex 7.36044 8.17459 10
      vertex 11.3262 8.22899 10
    endloop
  endfacet
  facet normal 0 0 1
    outer loop
      vertex 11.3262 8.22899 10
      vertex 8.89919 6.46564 10
      vertex 12.7896 5.69431 10
    endloop
  endfacet
  facet normal 0 0 1
    outer loop
      vertex 3.39919 -10.4616 10
      vertex 1.14981 -10.9397 10
      vertex 4.32624 -13.3148 10
    endloop
  endfacet
  facet normal 0 0 1
    outer loop
      vertex 12.7896 5.69431 10
      vertex 10.049 4.4741 10
      vertex 13.6941 2.91076 10
    endloop
  endfacet
  facet normal 0 0 1
    outer loop
      vertex -10.049 4.4741 10
      vertex -8.89919 6.46564 10
      vertex -13.6941 2.91076 10
    endloop
  endfacet
  facet normal 0 0 1
    outer loop
      vertex 13.6941 2.91076 10
      vertex 10.7596 2.28703 10
      vertex 14 0 10
    endloop
  endfacet
  facet normal 0 0 1
    outer loop
      vertex 14 0 10
      vertex 11 0 10
      vertex 13.6941 -2.91076 10
    endloop
  endfacet
  facet normal 0 0 1
    outer loop
      vertex 11 0 10
      vertex 10.7596 -2.28703 10
      vertex 13.6941 -2.91076 10
    endloop
  endfacet
  facet normal 0 0 1
    outer loop
      vertex 13.6941 -2.91076 10
      vertex 10.049 -4.4741 10
      vertex 12.7896 -5.69431 10
    endloop
  endfacet
  facet normal 0 0 1
    outer loop
      vertex 12.7896 -5.69431 10
      vertex 8.89919 -6.46564 10
      vertex 11.3262 -8.22899 10
    endloop
  endfacet
  facet normal 0 0 1
    outer loop
      vertex 8.89919 6.46564 10
      vertex 10.049 4.4741 10
      vertex 12.7896 5.69431 10
    endloop
  endfacet
  facet normal 0 0 1
    outer loop
      vertex 11.3262 -8.22899 10
      vertex 7.36044 -8.17459 10
      vertex 9.36783 -10.404 10
    endloop
  endfacet
  facet normal 0 0 1
    outer loop
      vertex 10.049 4.4741 10
      vertex 10.7596 2.28703 10
      vertex 13.6941 2.91076 10
    endloop
  endfacet
  facet normal 0 0 1
    outer loop
      vertex 9.36783 -10.404 10
      vertex 5.5 -9.52628 10
      vertex 7 -12.1244 10
    endloop
  endfacet
  facet normal 0 0 1
    outer loop
      vertex 10.7596 2.28703 10
      vertex 11 0 10
      vertex 14 0 10
    endloop
  endfacet
  facet normal 0 0 1
    outer loop
      vertex 7 -12.1244 10
      vertex 3.39919 -10.4616 10
      vertex 4.32624 -13.3148 10
    endloop
  endfacet
  facet normal 0 0 1
    outer loop
      vertex 10.7596 -2.28703 10
      vertex 10.049 -4.4741 10
      vertex 13.6941 -2.91076 10
    endloop
  endfacet
  facet normal 0 0 1
    outer loop
      vertex 4.32624 -13.3148 10
      vertex 1.14981 -10.9397 10
      vertex 1.4634 -13.9233 10
    endloop
  endfacet
  facet normal 0 0 1
    outer loop
      vertex 1.14981 -10.9397 10
      vertex -1.14981 -10.9397 10
      vertex 1.4634 -13.9233 10
    endloop
  endfacet
  facet normal 0 0 1
    outer loop
      vertex 1.4634 -13.9233 10
      vertex -3.39919 -10.4616 10
      vertex -1.4634 -13.9233 10
    endloop
  endfacet
  facet normal 0 0 1
    outer loop
      vertex 7.36044 -8.17459 10
      vertex 5.5 -9.52628 10
      vertex 9.36783 -10.404 10
    endloop
  endfacet
  facet normal 0 0 1
    outer loop
      vertex -1.4634 -13.9233 10
      vertex -5.5 -9.52628 10
      vertex -4.32624 -13.3148 10
    endloop
  endfacet
  facet normal 0 0 1
    outer loop
      vertex 5.5 -9.52628 10
      vertex 3.39919 -10.4616 10
      vertex 7 -12.1244 10
    endloop
  endfacet
  facet normal 0 0 1
    outer loop
      vertex -4.32624 -13.3148 10
      vertex -7.36044 -8.17459 10
      vertex -7 -12.1244 10
    endloop
  endfacet
  facet normal 0 0 1
    outer loop
      vertex -7.36044 -8.17459 10
      vertex -8.89919 -6.46564 10
      vertex -7 -12.1244 10
    endloop
  endfacet
  facet normal 0 0 1
    outer loop
      vertex -10.7596 -2.28703 10
      vertex -13.6941 2.91076 10
      vertex -10.049 -4.4741 10
    endloop
  endfacet
  facet normal 0 0 1
    outer loop
      vertex -8.89919 -6.46564 10
      vertex -10.049 -4.4741 10
      vertex -7 -12.1244 10
    endloop
  endfacet
  facet normal 0 0 1
    outer loop
      vertex -10.7596 -2.28703 10
      vertex -11 0 10
      vertex -13.6941 2.91076 10
    endloop
  endfacet
  facet normal 0 0 1
    outer loop
      vertex -5.5 -9.52628 10
      vertex -7.36044 -8.17459 10
      vertex -4.32624 -13.3148 10
    endloop
  endfacet
  facet normal 0 0 1
    outer loop
      vertex -1.14981 -10.9397 10
      vertex -3.39919 -10.4616 10
      vertex 1.4634 -13.9233 10
    endloop
  endfacet
  facet normal 0 0 1
    outer loop
      vertex -11 0 10
      vertex -10.7596 2.28703 10
      vertex -13.6941 2.91076 10
    endloop
  endfacet
  facet normal 0 0 1
    outer loop
      vertex 10.049 -4.4741 10
      vertex 8.89919 -6.46564 10
      vertex 12.7896 -5.69431 10
    endloop
  endfacet
  facet normal 0 0 1
    outer loop
      vertex -10.7596 2.28703 10
      vertex -10.049 4.4741 10
      vertex -13.6941 2.91076 10
    endloop
  endfacet
  facet normal -0.778252 0.0817977 0.622602
    outer loop
      vertex -23.5541 1.15065 -2.09383
      vertex -23 0 -1.25
      vertex -13.6941 2.91076 10
    endloop
  endfacet
  facet normal -0.778252 0.0817977 0.622602
    outer loop
      vertex -13.6941 2.91076 10
      vertex -23 0 -1.25
      vertex -14 0 10
    endloop
  endfacet
  facet normal 0.778252 -0.0817977 0.622602
    outer loop
      vertex 14 0 10
      vertex 13.6941 -2.91076 10
      vertex 23.553 -1.15085 -2.09249
    endloop
  endfacet
  facet normal 0.778252 -0.0817977 0.622602
    outer loop
      vertex 23.1981 0 -1.49758
      vertex 14 0 10
      vertex 23.1981 -0.867767 -1.61159
    endloop
  endfacet
  facet normal 0.778252 -0.0817977 0.622602
    outer loop
      vertex 23.1981 -0.867767 -1.61159
      vertex 14 0 10
      vertex 23.553 -1.15085 -2.09249
    endloop
  endfacet
endsolid OpenSCAD_Model
