solid OpenSCAD_Model
  facet normal 0 0 -1
    outer loop
      vertex -12 0 0
      vertex -11.7378 2.49494 0
      vertex -11.7378 -2.49494 0
    endloop
  endfacet
  facet normal 0 0 -1
    outer loop
      vertex -11.7378 -2.49494 0
      vertex -11.7378 2.49494 0
      vertex -10.9625 4.88084 0
    endloop
  endfacet
  facet normal 0 0 -1
    outer loop
      vertex -11.7378 -2.49494 0
      vertex -10.9625 4.88084 0
      vertex -9.7082 7.05342 0
    endloop
  endfacet
  facet normal 0 0 -1
    outer loop
      vertex -11.7378 -2.49494 0
      vertex -9.7082 7.05342 0
      vertex -8.02957 8.91774 0
    endloop
  endfacet
  facet normal 0 0 -1
    outer loop
      vertex -11.7378 -2.49494 0
      vertex -8.02957 8.91774 0
      vertex -6 10.3923 0
    endloop
  endfacet
  facet normal 0 0 -1
    outer loop
      vertex -11.7378 -2.49494 0
      vertex -6 10.3923 0
      vertex -3.7082 11.4127 0
    endloop
  endfacet
  facet normal 0 0 -1
    outer loop
      vertex -11.7378 -2.49494 0
      vertex -3.7082 11.4127 0
      vertex -1.25434 11.9343 0
    endloop
  endfacet
  facet normal 0 0 -1
    outer loop
      vertex -11.7378 -2.49494 0
      vertex -1.25434 11.9343 0
      vertex 1.25434 11.9343 0
    endloop
  endfacet
  facet normal 0 0 -1
    outer loop
      vertex -11.7378 -2.49494 0
      vertex 1.25434 11.9343 0
      vertex 3.7082 11.4127 0
    endloop
  endfacet
  facet normal 0 0 -1
    outer loop
      vertex -11.7378 -2.49494 0
      vertex 3.7082 11.4127 0
      vertex 6 10.3923 0
    endloop
  endfacet
  facet normal 0 0 -1
    outer loop
      vertex -11.7378 -2.49494 0
      vertex 6 10.3923 0
      vertex 8.02957 8.91774 0
    endloop
  endfacet
  facet normal 0 0 -1
    outer loop
      vertex -11.7378 -2.49494 0
      vertex 8.02957 8.91774 0
      vertex 9.7082 7.05342 0
    endloop
  endfacet
  facet normal 0 0 -1
    outer loop
      vertex -11.7378 -2.49494 0
      vertex 9.7082 7.05342 0
      vertex 10.9625 4.88084 0
    endloop
  endfacet
  facet normal 0 0 -1
    outer loop
      vertex -11.7378 -2.49494 0
      vertex 10.9625 4.88084 0
      vertex 11.7378 2.49494 0
    endloop
  endfacet
  facet normal 0 0 -1
    outer loop
      vertex -11.7378 -2.49494 0
      vertex 11.7378 2.49494 0
      vertex 12 0 0
    endloop
  endfacet
  facet normal 0 0 -1
    outer loop
      vertex -11.7378 -2.49494 0
      vertex 12 0 0
      vertex 11.7378 -2.49494 0
    endloop
  endfacet
  facet normal 0 0 -1
    outer loop
      vertex -11.7378 -2.49494 0
      vertex 11.7378 -2.49494 0
      vertex 10.9625 -4.88084 0
    endloop
  endfacet
  facet normal 0 0 -1
    outer loop
      vertex -11.7378 -2.49494 0
      vertex 10.9625 -4.88084 0
      vertex 9.7082 -7.05342 0
    endloop
  endfacet
  facet normal 0 0 -1
    outer loop
      vertex -11.7378 -2.49494 0
      vertex 9.7082 -7.05342 0
      vertex 8.02957 -8.91774 0
    endloop
  endfacet
  facet normal 0 0 -1
    outer loop
      vertex -11.7378 -2.49494 0
      vertex 8.02957 -8.91774 0
      vertex 6 -10.3923 0
    endloop
  endfacet
  facet normal 0 0 -1
    outer loop
      vertex -11.7378 -2.49494 0
      vertex 6 -10.3923 0
      vertex 3.7082 -11.4127 0
    endloop
  endfacet
  facet normal 0 0 -1
    outer loop
      vertex -11.7378 -2.49494 0
      vertex 3.7082 -11.4127 0
      vertex 1.25434 -11.9343 0
    endloop
  endfacet
  facet normal 0 0 -1
    outer loop
      vertex -11.7378 -2.49494 0
      vertex 1.25434 -11.9343 0
      vertex -1.25434 -11.9343 0
    endloop
  endfacet
  facet normal 0 0 -1
    outer loop
      vertex -11.7378 -2.49494 0
      vertex -1.25434 -11.9343 0
      vertex -3.7082 -11.4127 0
    endloop
  endfacet
  facet normal 0 0 -1
    outer loop
      vertex -11.7378 -2.49494 0
      vertex -3.7082 -11.4127 0
      vertex -6 -10.3923 0
    endloop
  endfacet
  facet normal 0 0 -1
    outer loop
      vertex -11.7378 -2.49494 0
      vertex -6 -10.3923 0
      vertex -8.02957 -8.91774 0
    endloop
  endfacet
  facet normal 0 0 -1
    outer loop
      vertex -11.7378 -2.49494 0
      vertex -8.02957 -8.91774 0
      vertex -9.7082 -7.05342 0
    endloop
  endfacet
  facet normal 0 0 -1
    outer loop
      vertex -11.7378 -2.49494 0
      vertex -9.7082 -7.05342 0
      vertex -10.9625 -4.88084 0
    endloop
  endfacet
  facet normal -0.979793 0.102981 0.171464
    outer loop
      vertex -11.7378 2.49494 0
      vertex -12 0 0
      vertex -8.31425 1.76725 20
    endloop
  endfacet
  facet normal -0.979793 0.10298 0.171464
    outer loop
      vertex -8.31425 1.76725 20
      vertex -12 0 0
      vertex -8.5 0 20
    endloop
  endfacet
  facet normal -0.979793 -0.102981 0.171464
    outer loop
      vertex -8.5 0 20
      vertex -12 0 0
      vertex -11.7378 -2.49494 0
    endloop
  endfacet
  facet normal -0.979793 -0.10298 0.171464
    outer loop
      vertex -8.5 0 20
      vertex -11.7378 -2.49494 0
      vertex -8.31425 -1.76725 20
    endloop
  endfacet
  facet normal -0.936972 -0.304441 0.171464
    outer loop
      vertex -8.31425 -1.76725 20
      vertex -11.7378 -2.49494 0
      vertex -10.9625 -4.88084 0
    endloop
  endfacet
  facet normal -0.936972 -0.304441 0.171464
    outer loop
      vertex -8.31425 -1.76725 20
      vertex -10.9625 -4.88084 0
      vertex -7.76514 -3.45726 20
    endloop
  endfacet
  facet normal -0.8532 -0.492595 0.171464
    outer loop
      vertex -7.76514 -3.45726 20
      vertex -10.9625 -4.88084 0
      vertex -9.7082 -7.05342 0
    endloop
  endfacet
  facet normal -0.8532 -0.492595 0.171464
    outer loop
      vertex -7.76514 -3.45726 20
      vertex -9.7082 -7.05342 0
      vertex -6.87664 -4.99618 20
    endloop
  endfacet
  facet normal -0.732139 -0.659221 0.171464
    outer loop
      vertex -6.87664 -4.99618 20
      vertex -9.7082 -7.05342 0
      vertex -8.02957 -8.91774 0
    endloop
  endfacet
  facet normal -0.732139 -0.659221 0.171464
    outer loop
      vertex -6.87664 -4.99618 20
      vertex -8.02957 -8.91774 0
      vertex -5.68761 -6.31673 20
    endloop
  endfacet
  facet normal -0.57908 -0.797036 0.171464
    outer loop
      vertex -5.68761 -6.31673 20
      vertex -8.02957 -8.91774 0
      vertex -6 -10.3923 0
    endloop
  endfacet
  facet normal -0.57908 -0.797036 0.171464
    outer loop
      vertex -5.68761 -6.31673 20
      vertex -6 -10.3923 0
      vertex -4.25 -7.36122 20
    endloop
  endfacet
  facet normal -0.400713 -0.900016 0.171464
    outer loop
      vertex -4.25 -7.36122 20
      vertex -6 -10.3923 0
      vertex -3.7082 -11.4127 0
    endloop
  endfacet
  facet normal -0.400713 -0.900016 0.171464
    outer loop
      vertex -2.62664 -8.08398 20
      vertex -4.25 -7.36122 20
      vertex -3.7082 -11.4127 0
    endloop
  endfacet
  facet normal -0.204833 -0.963662 0.171464
    outer loop
      vertex -2.62664 -8.08398 20
      vertex -3.7082 -11.4127 0
      vertex -1.25434 -11.9343 0
    endloop
  endfacet
  facet normal -0.204833 -0.963662 0.171464
    outer loop
      vertex -0.888492 -8.45344 20
      vertex -2.62664 -8.08398 20
      vertex -1.25434 -11.9343 0
    endloop
  endfacet
  facet normal 0 -0.98519 0.171464
    outer loop
      vertex -0.888492 -8.45344 20
      vertex -1.25434 -11.9343 0
      vertex 1.25434 -11.9343 0
    endloop
  endfacet
  facet normal 0 -0.98519 0.171464
    outer loop
      vertex 0.888492 -8.45344 20
      vertex -0.888492 -8.45344 20
      vertex 1.25434 -11.9343 0
    endloop
  endfacet
  facet normal 0.204833 -0.963662 0.171464
    outer loop
      vertex 3.7082 -11.4127 0
      vertex 0.888492 -8.45344 20
      vertex 1.25434 -11.9343 0
    endloop
  endfacet
  facet normal 0.204833 -0.963662 0.171464
    outer loop
      vertex 2.62664 -8.08398 20
      vertex 0.888492 -8.45344 20
      vertex 3.7082 -11.4127 0
    endloop
  endfacet
  facet normal 0.400713 -0.900016 0.171464
    outer loop
      vertex 6 -10.3923 0
      vertex 2.62664 -8.08398 20
      vertex 3.7082 -11.4127 0
    endloop
  endfacet
  facet normal 0.400713 -0.900016 0.171464
    outer loop
      vertex 4.25 -7.36122 20
      vertex 2.62664 -8.08398 20
      vertex 6 -10.3923 0
    endloop
  endfacet
  facet normal 0.57908 -0.797036 0.171464
    outer loop
      vertex 8.02957 -8.91774 0
      vertex 4.25 -7.36122 20
      vertex 6 -10.3923 0
    endloop
  endfacet
  facet normal 0.57908 -0.797036 0.171464
    outer loop
      vertex 5.68761 -6.31673 20
      vertex 4.25 -7.36122 20
      vertex 8.02957 -8.91774 0
    endloop
  endfacet
  facet normal 0.732139 -0.659221 0.171464
    outer loop
      vertex 9.7082 -7.05342 0
      vertex 5.68761 -6.31673 20
      vertex 8.02957 -8.91774 0
    endloop
  endfacet
  facet normal 0.732139 -0.659221 0.171464
    outer loop
      vertex 6.87664 -4.99618 20
      vertex 5.68761 -6.31673 20
      vertex 9.7082 -7.05342 0
    endloop
  endfacet
  facet normal 0.8532 -0.492595 0.171464
    outer loop
      vertex 10.9625 -4.88084 0
      vertex 6.87664 -4.99618 20
      vertex 9.7082 -7.05342 0
    endloop
  endfacet
  facet normal 0.8532 -0.492595 0.171464
    outer loop
      vertex 7.76514 -3.45726 20
      vertex 6.87664 -4.99618 20
      vertex 10.9625 -4.88084 0
    endloop
  endfacet
  facet normal 0.936972 -0.304441 0.171464
    outer loop
      vertex 11.7378 -2.49494 0
      vertex 7.76514 -3.45726 20
      vertex 10.9625 -4.88084 0
    endloop
  endfacet
  facet normal 0.936972 -0.304441 0.171464
    outer loop
      vertex 8.31425 -1.76725 20
      vertex 7.76514 -3.45726 20
      vertex 11.7378 -2.49494 0
    endloop
  endfacet
  facet normal 0.979793 -0.102981 0.171464
    outer loop
      vertex 12 0 0
      vertex 8.31425 -1.76725 20
      vertex 11.7378 -2.49494 0
    endloop
  endfacet
  facet normal 0.979793 -0.10298 0.171464
    outer loop
      vertex 8.5 0 20
      vertex 8.31425 -1.76725 20
      vertex 12 0 0
    endloop
  endfacet
  facet normal 0.979793 0.102981 0.171464
    outer loop
      vertex 11.7378 2.49494 0
      vertex 8.5 0 20
      vertex 12 0 0
    endloop
  endfacet
  facet normal 0.979793 0.10298 0.171464
    outer loop
      vertex 11.7378 2.49494 0
      vertex 8.31425 1.76725 20
      vertex 8.5 0 20
    endloop
  endfacet
  facet normal 0.936972 0.304441 0.171464
    outer loop
      vertex 10.9625 4.88084 0
      vertex 8.31425 1.76725 20
      vertex 11.7378 2.49494 0
    endloop
  endfacet
  facet normal 0.936972 0.304441 0.171464
    outer loop
      vertex 10.9625 4.88084 0
      vertex 7.76514 3.45726 20
      vertex 8.31425 1.76725 20
    endloop
  endfacet
  facet normal 0.8532 0.492595 0.171464
    outer loop
      vertex 9.7082 7.05342 0
      vertex 7.76514 3.45726 20
      vertex 10.9625 4.88084 0
    endloop
  endfacet
  facet normal 0.8532 0.492595 0.171464
    outer loop
      vertex 9.7082 7.05342 0
      vertex 6.87664 4.99618 20
      vertex 7.76514 3.45726 20
    endloop
  endfacet
  facet normal 0.732139 0.659221 0.171464
    outer loop
      vertex 8.02957 8.91774 0
      vertex 6.87664 4.99618 20
      vertex 9.7082 7.05342 0
    endloop
  endfacet
  facet normal 0.732139 0.659221 0.171464
    outer loop
      vertex 8.02957 8.91774 0
      vertex 5.68761 6.31673 20
      vertex 6.87664 4.99618 20
    endloop
  endfacet
  facet normal 0.57908 0.797036 0.171464
    outer loop
      vertex 6 10.3923 0
      vertex 5.68761 6.31673 20
      vertex 8.02957 8.91774 0
    endloop
  endfacet
  facet normal 0.57908 0.797036 0.171464
    outer loop
      vertex 6 10.3923 0
      vertex 4.25 7.36122 20
      vertex 5.68761 6.31673 20
    endloop
  endfacet
  facet normal 0.400713 0.900016 0.171464
    outer loop
      vertex 6 10.3923 0
      vertex 3.7082 11.4127 0
      vertex 4.25 7.36122 20
    endloop
  endfacet
  facet normal 0.400713 0.900016 0.171464
    outer loop
      vertex 3.7082 11.4127 0
      vertex 2.62664 8.08398 20
      vertex 4.25 7.36122 20
    endloop
  endfacet
  facet normal 0.204833 0.963662 0.171464
    outer loop
      vertex 3.7082 11.4127 0
      vertex 1.25434 11.9343 0
      vertex 2.62664 8.08398 20
    endloop
  endfacet
  facet normal 0.204833 0.963662 0.171464
    outer loop
      vertex 1.25434 11.9343 0
      vertex 0.888492 8.45344 20
      vertex 2.62664 8.08398 20
    endloop
  endfacet
  facet normal 0 0.98519 0.171464
    outer loop
      vertex -1.25434 11.9343 0
      vertex -0.888492 8.45344 20
      vertex 1.25434 11.9343 0
    endloop
  endfacet
  facet normal 0 0.98519 0.171464
    outer loop
      vertex 1.25434 11.9343 0
      vertex -0.888492 8.45344 20
      vertex 0.888492 8.45344 20
    endloop
  endfacet
  facet normal -0.204833 0.963662 0.171464
    outer loop
      vertex -1.25434 11.9343 0
      vertex -3.7082 11.4127 0
      vertex -0.888492 8.45344 20
    endloop
  endfacet
  facet normal -0.204833 0.963662 0.171464
    outer loop
      vertex -0.888492 8.45344 20
      vertex -3.7082 11.4127 0
      vertex -2.62664 8.08398 20
    endloop
  endfacet
  facet normal -0.400713 0.900016 0.171464
    outer loop
      vertex -3.7082 11.4127 0
      vertex -6 10.3923 0
      vertex -2.62664 8.08398 20
    endloop
  endfacet
  facet normal -0.400713 0.900016 0.171464
    outer loop
      vertex -2.62664 8.08398 20
      vertex -6 10.3923 0
      vertex -4.25 7.36122 20
    endloop
  endfacet
  facet normal -0.57908 0.797036 0.171464
    outer loop
      vertex -6 10.3923 0
      vertex -8.02957 8.91774 0
      vertex -4.25 7.36122 20
    endloop
  endfacet
  facet normal -0.57908 0.797036 0.171464
    outer loop
      vertex -4.25 7.36122 20
      vertex -8.02957 8.91774 0
      vertex -5.68761 6.31673 20
    endloop
  endfacet
  facet normal -0.732139 0.659221 0.171464
    outer loop
      vertex -8.02957 8.91774 0
      vertex -9.7082 7.05342 0
      vertex -5.68761 6.31673 20
    endloop
  endfacet
  facet normal -0.732139 0.659221 0.171464
    outer loop
      vertex -5.68761 6.31673 20
      vertex -9.7082 7.05342 0
      vertex -6.87664 4.99618 20
    endloop
  endfacet
  facet normal -0.8532 0.492595 0.171464
    outer loop
      vertex -9.7082 7.05342 0
      vertex -10.9625 4.88084 0
      vertex -6.87664 4.99618 20
    endloop
  endfacet
  facet normal -0.8532 0.492595 0.171464
    outer loop
      vertex -6.87664 4.99618 20
      vertex -10.9625 4.88084 0
      vertex -7.76514 3.45726 20
    endloop
  endfacet
  facet normal -0.936972 0.304441 0.171464
    outer loop
      vertex -10.9625 4.88084 0
      vertex -11.7378 2.49494 0
      vertex -7.76514 3.45726 20
    endloop
  endfacet
  facet normal -0.936972 0.304441 0.171464
    outer loop
      vertex -7.76514 3.45726 20
      vertex -11.7378 2.49494 0
      vertex -8.31425 1.76725 20
    endloop
  endfacet
  facet normal 0 0 1
    outer loop
      vertex -8.31425 1.76725 20
      vertex -8.5 0 20
      vertex -8.31425 -1.76725 20
    endloop
  endfacet
  facet normal 0 0 1
    outer loop
      vertex -6.87664 -4.99618 20
      vertex -8.31425 1.76725 20
      vertex -7.76514 -3.45726 20
    endloop
  endfacet
  facet normal 0 0 1
    outer loop
      vertex -7.76514 -3.45726 20
      vertex -8.31425 1.76725 20
      vertex -8.31425 -1.76725 20
    endloop
  endfacet
  facet normal 0 0 1
    outer loop
      vertex -5.68761 -6.31673 20
      vertex -8.31425 1.76725 20
      vertex -6.87664 -4.99618 20
    endloop
  endfacet
  facet normal 0 0 1
    outer loop
      vertex -4.25 -7.36122 20
      vertex -8.31425 1.76725 20
      vertex -5.68761 -6.31673 20
    endloop
  endfacet
  facet normal 0 0 1
    outer loop
      vertex -2.62664 -8.08398 20
      vertex -8.31425 1.76725 20
      vertex -4.25 -7.36122 20
    endloop
  endfacet
  facet normal 0 0 1
    outer loop
      vertex -0.888492 -8.45344 20
      vertex -8.31425 1.76725 20
      vertex -2.62664 -8.08398 20
    endloop
  endfacet
  facet normal 0 0 1
    outer loop
      vertex 0.888492 -8.45344 20
      vertex -8.31425 1.76725 20
      vertex -0.888492 -8.45344 20
    endloop
  endfacet
  facet normal 0 0 1
    outer loop
      vertex 2.62664 -8.08398 20
      vertex -8.31425 1.76725 20
      vertex 0.888492 -8.45344 20
    endloop
  endfacet
  facet normal 0 0 1
    outer loop
      vertex -3.2909 -1.9 20
      vertex -8.31425 1.76725 20
      vertex 2.62664 -8.08398 20
    endloop
  endfacet
  facet normal 0 0 1
    outer loop
      vertex 3.2909 -1.9 20
      vertex 6.87664 -4.99618 20
      vertex 7.76514 -3.45726 20
    endloop
  endfacet
  facet normal 0 0 1
    outer loop
      vertex 3.8 0 20
      vertex 3.2909 -1.9 20
      vertex 8.31425 -1.76725 20
    endloop
  endfacet
  facet normal 0 0 1
    outer loop
      vertex -3.2909 1.9 20
      vertex -1.9 3.2909 20
      vertex -8.31425 1.76725 20
    endloop
  endfacet
  facet normal 0 0 1
    outer loop
      vertex 3.2909 1.9 20
      vertex 8.5 0 20
      vertex 8.31425 1.76725 20
    endloop
  endfacet
  facet normal 0 0 1
    outer loop
      vertex 3.2909 1.9 20
      vertex 3.8 0 20
      vertex 8.5 0 20
    endloop
  endfacet
  facet normal 0 0 1
    outer loop
      vertex 4.25 7.36122 20
      vertex -8.31425 1.76725 20
      vertex 5.68761 6.31673 20
    endloop
  endfacet
  facet normal 0 0 1
    outer loop
      vertex 2.62664 8.08398 20
      vertex -8.31425 1.76725 20
      vertex 4.25 7.36122 20
    endloop
  endfacet
  facet normal 0 0 1
    outer loop
      vertex 0.888492 8.45344 20
      vertex -8.31425 1.76725 20
      vertex 2.62664 8.08398 20
    endloop
  endfacet
  facet normal 0 0 1
    outer loop
      vertex -0.888492 8.45344 20
      vertex -8.31425 1.76725 20
      vertex 0.888492 8.45344 20
    endloop
  endfacet
  facet normal 0 0 1
    outer loop
      vertex -2.62664 8.08398 20
      vertex -8.31425 1.76725 20
      vertex -0.888492 8.45344 20
    endloop
  endfacet
  facet normal 0 0 1
    outer loop
      vertex -4.25 7.36122 20
      vertex -8.31425 1.76725 20
      vertex -2.62664 8.08398 20
    endloop
  endfacet
  facet normal 0 0 1
    outer loop
      vertex -5.68761 6.31673 20
      vertex -8.31425 1.76725 20
      vertex -4.25 7.36122 20
    endloop
  endfacet
  facet normal 0 0 1
    outer loop
      vertex -6.87664 4.99618 20
      vertex -8.31425 1.76725 20
      vertex -5.68761 6.31673 20
    endloop
  endfacet
  facet normal 0 0 1
    outer loop
      vertex -7.76514 3.45726 20
      vertex -8.31425 1.76725 20
      vertex -6.87664 4.99618 20
    endloop
  endfacet
  facet normal 0 0 1
    outer loop
      vertex -1.9 -3.2909 20
      vertex -3.2909 -1.9 20
      vertex 2.62664 -8.08398 20
    endloop
  endfacet
  facet normal 0 0 1
    outer loop
      vertex 1.9 -3.2909 20
      vertex 0 -3.8 20
      vertex 5.68761 -6.31673 20
    endloop
  endfacet
  facet normal 0 0 1
    outer loop
      vertex 3.2909 -1.9 20
      vertex 1.9 -3.2909 20
      vertex 6.87664 -4.99618 20
    endloop
  endfacet
  facet normal 0 0 1
    outer loop
      vertex 1.9 3.2909 20
      vertex 3.2909 1.9 20
      vertex 7.76514 3.45726 20
    endloop
  endfacet
  facet normal 0 0 1
    outer loop
      vertex 5.68761 6.31673 20
      vertex -8.31425 1.76725 20
      vertex -1.9 3.2909 20
    endloop
  endfacet
  facet normal 0 0 1
    outer loop
      vertex 5.68761 6.31673 20
      vertex 0 3.8 20
      vertex 6.87664 4.99618 20
    endloop
  endfacet
  facet normal 0 0 1
    outer loop
      vertex 5.68761 6.31673 20
      vertex -1.9 3.2909 20
      vertex 0 3.8 20
    endloop
  endfacet
  facet normal 0 0 1
    outer loop
      vertex 6.87664 4.99618 20
      vertex 1.9 3.2909 20
      vertex 7.76514 3.45726 20
    endloop
  endfacet
  facet normal 0 0 1
    outer loop
      vertex 0 3.8 20
      vertex 1.9 3.2909 20
      vertex 6.87664 4.99618 20
    endloop
  endfacet
  facet normal 0 0 1
    outer loop
      vertex 7.76514 3.45726 20
      vertex 3.2909 1.9 20
      vertex 8.31425 1.76725 20
    endloop
  endfacet
  facet normal 0 0 1
    outer loop
      vertex 8.5 0 20
      vertex 3.8 0 20
      vertex 8.31425 -1.76725 20
    endloop
  endfacet
  facet normal 0 0 1
    outer loop
      vertex 8.31425 -1.76725 20
      vertex 3.2909 -1.9 20
      vertex 7.76514 -3.45726 20
    endloop
  endfacet
  facet normal 0 0 1
    outer loop
      vertex 6.87664 -4.99618 20
      vertex 1.9 -3.2909 20
      vertex 5.68761 -6.31673 20
    endloop
  endfacet
  facet normal 0 0 1
    outer loop
      vertex 5.68761 -6.31673 20
      vertex 0 -3.8 20
      vertex 4.25 -7.36122 20
    endloop
  endfacet
  facet normal 0 0 1
    outer loop
      vertex 4.25 -7.36122 20
      vertex -1.9 -3.2909 20
      vertex 2.62664 -8.08398 20
    endloop
  endfacet
  facet normal 0 0 1
    outer loop
      vertex 0 -3.8 20
      vertex -1.9 -3.2909 20
      vertex 4.25 -7.36122 20
    endloop
  endfacet
  facet normal 0 0 1
    outer loop
      vertex -3.2909 -1.9 20
      vertex -3.8 0 20
      vertex -8.31425 1.76725 20
    endloop
  endfacet
  facet normal 0 0 1
    outer loop
      vertex -3.8 0 20
      vertex -3.2909 1.9 20
      vertex -8.31425 1.76725 20
    endloop
  endfacet
  facet normal 0.965926 0.258819 0
    outer loop
      vertex -3.8 0 20
      vertex -3.2909 -1.9 20
      vertex -3.2909 -1.9 16
    endloop
  endfacet
  facet normal 0.965926 0.258819 0
    outer loop
      vertex -3.8 0 16
      vertex -3.8 0 20
      vertex -3.2909 -1.9 16
    endloop
  endfacet
  facet normal 0.707107 0.707107 0
    outer loop
      vertex -1.9 -3.2909 20
      vertex -1.9 -3.2909 16
      vertex -3.2909 -1.9 20
    endloop
  endfacet
  facet normal 0.707107 0.707107 0
    outer loop
      vertex -3.2909 -1.9 20
      vertex -1.9 -3.2909 16
      vertex -3.2909 -1.9 16
    endloop
  endfacet
  facet normal 0.258819 0.965926 0
    outer loop
      vertex 0 -3.8 20
      vertex 0 -3.8 16
      vertex -1.9 -3.2909 20
    endloop
  endfacet
  facet normal 0.258819 0.965926 0
    outer loop
      vertex -1.9 -3.2909 20
      vertex 0 -3.8 16
      vertex -1.9 -3.2909 16
    endloop
  endfacet
  facet normal -0.258819 0.965926 0
    outer loop
      vertex 1.9 -3.2909 20
      vertex 1.9 -3.2909 16
      vertex 0 -3.8 20
    endloop
  endfacet
  facet normal -0.258819 0.965926 0
    outer loop
      vertex 0 -3.8 20
      vertex 1.9 -3.2909 16
      vertex 0 -3.8 16
    endloop
  endfacet
  facet normal -0.707107 0.707107 0
    outer loop
      vertex 3.2909 -1.9 20
      vertex 3.2909 -1.9 16
      vertex 1.9 -3.2909 20
    endloop
  endfacet
  facet normal -0.707107 0.707107 0
    outer loop
      vertex 1.9 -3.2909 20
      vertex 3.2909 -1.9 16
      vertex 1.9 -3.2909 16
    endloop
  endfacet
  facet normal -0.965926 0.258819 0
    outer loop
      vertex 3.8 0 20
      vertex 3.8 0 16
      vertex 3.2909 -1.9 20
    endloop
  endfacet
  facet normal -0.965926 0.258819 0
    outer loop
      vertex 3.2909 -1.9 20
      vertex 3.8 0 16
      vertex 3.2909 -1.9 16
    endloop
  endfacet
  facet normal -0.965926 -0.258819 0
    outer loop
      vertex 3.8 0 20
      vertex 3.2909 1.9 20
      vertex 3.8 0 16
    endloop
  endfacet
  facet normal -0.965926 -0.258819 0
    outer loop
      vertex 3.8 0 16
      vertex 3.2909 1.9 20
      vertex 3.2909 1.9 16
    endloop
  endfacet
  facet normal -0.707107 -0.707107 0
    outer loop
      vertex 3.2909 1.9 16
      vertex 3.2909 1.9 20
      vertex 1.9 3.2909 20
    endloop
  endfacet
  facet normal -0.707107 -0.707107 0
    outer loop
      vertex 1.9 3.2909 16
      vertex 3.2909 1.9 16
      vertex 1.9 3.2909 20
    endloop
  endfacet
  facet normal -0.258819 -0.965926 0
    outer loop
      vertex 1.9 3.2909 16
      vertex 1.9 3.2909 20
      vertex 0 3.8 20
    endloop
  endfacet
  facet normal -0.258819 -0.965926 0
    outer loop
      vertex 0 3.8 16
      vertex 1.9 3.2909 16
      vertex 0 3.8 20
    endloop
  endfacet
  facet normal 0.258819 -0.965926 0
    outer loop
      vertex 0 3.8 16
      vertex 0 3.8 20
      vertex -1.9 3.2909 20
    endloop
  endfacet
  facet normal 0.258819 -0.965926 0
    outer loop
      vertex -1.9 3.2909 16
      vertex 0 3.8 16
      vertex -1.9 3.2909 20
    endloop
  endfacet
  facet normal 0.707107 -0.707107 0
    outer loop
      vertex -1.9 3.2909 16
      vertex -1.9 3.2909 20
      vertex -3.2909 1.9 20
    endloop
  endfacet
  facet normal 0.707107 -0.707107 0
    outer loop
      vertex -3.2909 1.9 16
      vertex -1.9 3.2909 16
      vertex -3.2909 1.9 20
    endloop
  endfacet
  facet normal 0.965926 -0.258819 0
    outer loop
      vertex -3.2909 1.9 16
      vertex -3.2909 1.9 20
      vertex -3.8 0 20
    endloop
  endfacet
  facet normal 0.965926 -0.258819 0
    outer loop
      vertex -3.8 0 16
      vertex -3.2909 1.9 16
      vertex -3.8 0 20
    endloop
  endfacet
  facet normal 0 0 1
    outer loop
      vertex -3.2909 -1.9 16
      vertex -1.9 -3.2909 16
      vertex 0 -3.8 16
    endloop
  endfacet
  facet normal 0 0 1
    outer loop
      vertex 0 -2.5 16
      vertex -3.2909 -1.9 16
      vertex 1.9 -3.2909 16
    endloop
  endfacet
  facet normal 0 0 1
    outer loop
      vertex 1.9 -3.2909 16
      vertex -3.2909 -1.9 16
      vertex 0 -3.8 16
    endloop
  endfacet
  facet normal 0 0 1
    outer loop
      vertex 0 -2.5 16
      vertex -1.76777 -1.76777 16
      vertex -3.2909 -1.9 16
    endloop
  endfacet
  facet normal 0 0 1
    outer loop
      vertex -3.2909 1.9 16
      vertex -3.2909 -1.9 16
      vertex -1.9 3.2909 16
    endloop
  endfacet
  facet normal 0 0 1
    outer loop
      vertex -3.8 0 16
      vertex -3.2909 -1.9 16
      vertex -3.2909 1.9 16
    endloop
  endfacet
  facet normal 0 0 1
    outer loop
      vertex 0 2.5 16
      vertex 1.76777 1.76777 16
      vertex 1.9 3.2909 16
    endloop
  endfacet
  facet normal 0 0 1
    outer loop
      vertex -1.9 3.2909 16
      vertex -3.2909 -1.9 16
      vertex -2.5 0 16
    endloop
  endfacet
  facet normal 0 0 1
    outer loop
      vertex -1.9 3.2909 16
      vertex -1.76777 1.76777 16
      vertex 0 3.8 16
    endloop
  endfacet
  facet normal 0 0 1
    outer loop
      vertex -1.9 3.2909 16
      vertex -2.5 0 16
      vertex -1.76777 1.76777 16
    endloop
  endfacet
  facet normal 0 0 1
    outer loop
      vertex 0 3.8 16
      vertex 0 2.5 16
      vertex 1.9 3.2909 16
    endloop
  endfacet
  facet normal 0 0 1
    outer loop
      vertex -1.76777 1.76777 16
      vertex 0 2.5 16
      vertex 0 3.8 16
    endloop
  endfacet
  facet normal 0 0 1
    outer loop
      vertex 1.9 3.2909 16
      vertex 1.76777 1.76777 16
      vertex 3.2909 1.9 16
    endloop
  endfacet
  facet normal 0 0 1
    outer loop
      vertex 3.2909 1.9 16
      vertex 2.5 0 16
      vertex 3.8 0 16
    endloop
  endfacet
  facet normal 0 0 1
    outer loop
      vertex 3.8 0 16
      vertex 1.76777 -1.76777 16
      vertex 3.2909 -1.9 16
    endloop
  endfacet
  facet normal 0 0 1
    outer loop
      vertex 3.2909 -1.9 16
      vertex 0 -2.5 16
      vertex 1.9 -3.2909 16
    endloop
  endfacet
  facet normal 0 0 1
    outer loop
      vertex 1.76777 1.76777 16
      vertex 2.5 0 16
      vertex 3.2909 1.9 16
    endloop
  endfacet
  facet normal 0 0 1
    outer loop
      vertex 2.5 0 16
      vertex 1.76777 -1.76777 16
      vertex 3.8 0 16
    endloop
  endfacet
  facet normal 0 0 1
    outer loop
      vertex 1.76777 -1.76777 16
      vertex 0 -2.5 16
      vertex 3.2909 -1.9 16
    endloop
  endfacet
  facet normal 0 0 1
    outer loop
      vertex -1.76777 -1.76777 16
      vertex -2.5 0 16
      vertex -3.2909 -1.9 16
    endloop
  endfacet
  facet normal 0.92388 -0.382683 0
    outer loop
      vertex -1.76777 1.76777 1
      vertex -1.76777 1.76777 16
      vertex -2.5 0 16
    endloop
  endfacet
  facet normal 0.92388 -0.382683 0
    outer loop
      vertex -2.5 0 1
      vertex -1.76777 1.76777 1
      vertex -2.5 0 16
    endloop
  endfacet
  facet normal 0.92388 0.382683 0
    outer loop
      vertex -2.5 0 16
      vertex -1.76777 -1.76777 16
      vertex -1.76777 -1.76777 1
    endloop
  endfacet
  facet normal 0.92388 0.382683 0
    outer loop
      vertex -2.5 0 1
      vertex -2.5 0 16
      vertex -1.76777 -1.76777 1
    endloop
  endfacet
  facet normal 0.382683 0.92388 0
    outer loop
      vertex 0 -2.5 16
      vertex 0 -2.5 1
      vertex -1.76777 -1.76777 16
    endloop
  endfacet
  facet normal 0.382683 0.92388 0
    outer loop
      vertex -1.76777 -1.76777 16
      vertex 0 -2.5 1
      vertex -1.76777 -1.76777 1
    endloop
  endfacet
  facet normal -0.382683 0.92388 0
    outer loop
      vertex 1.76777 -1.76777 16
      vertex 1.76777 -1.76777 1
      vertex 0 -2.5 16
    endloop
  endfacet
  facet normal -0.382683 0.92388 0
    outer loop
      vertex 0 -2.5 16
      vertex 1.76777 -1.76777 1
      vertex 0 -2.5 1
    endloop
  endfacet
  facet normal -0.92388 0.382683 0
    outer loop
      vertex 2.5 0 16
      vertex 2.5 0 1
      vertex 1.76777 -1.76777 16
    endloop
  endfacet
  facet normal -0.92388 0.382683 0
    outer loop
      vertex 1.76777 -1.76777 16
      vertex 2.5 0 1
      vertex 1.76777 -1.76777 1
    endloop
  endfacet
  facet normal -0.92388 -0.382683 0
    outer loop
      vertex 2.5 0 16
      vertex 1.76777 1.76777 16
      vertex 2.5 0 1
    endloop
  endfacet
  facet normal -0.92388 -0.382683 0
    outer loop
      vertex 2.5 0 1
      vertex 1.76777 1.76777 16
      vertex 1.76777 1.76777 1
    endloop
  endfacet
  facet normal -0.382683 -0.92388 0
    outer loop
      vertex 1.76777 1.76777 1
      vertex 1.76777 1.76777 16
      vertex 0 2.5 16
    endloop
  endfacet
  facet normal -0.382683 -0.92388 0
    outer loop
      vertex 0 2.5 1
      vertex 1.76777 1.76777 1
      vertex 0 2.5 16
    endloop
  endfacet
  facet normal 0.382683 -0.92388 0
    outer loop
      vertex 0 2.5 1
      vertex 0 2.5 16
      vertex -1.76777 1.76777 16
    endloop
  endfacet
  facet normal 0.382683 -0.92388 0
    outer loop
      vertex -1.76777 1.76777 1
      vertex 0 2.5 1
      vertex -1.76777 1.76777 16
    endloop
  endfacet
  facet normal 0 0 1
    outer loop
      vertex -1.76777 -1.76777 1
      vertex 0 -2.5 1
      vertex 1.76777 -1.76777 1
    endloop
  endfacet
  facet normal 0 0 1
    outer loop
      vertex 1.76777 1.76777 1
      vertex -1.76777 -1.76777 1
      vertex 2.5 0 1
    endloop
  endfacet
  facet normal 0 0 1
    outer loop
      vertex 2.5 0 1
      vertex -1.76777 -1.76777 1
      vertex 1.76777 -1.76777 1
    endloop
  endfacet
  facet normal 0 0 1
    outer loop
      vertex 0 2.5 1
      vertex -1.76777 -1.76777 1
      vertex 1.76777 1.76777 1
    endloop
  endfacet
  facet normal 0 0 1
    outer loop
      vertex -1.76777 1.76777 1
      vertex -1.76777 -1.76777 1
      vertex 0 2.5 1
    endloop
  endfacet
  facet normal 0 0 1
    outer loop
      vertex -2.5 0 1
      vertex -1.76777 -1.76777 1
      vertex -1.76777 1.76777 1
    endloop
  endfacet
  facet normal 0 0 -1
    outer loop
      vertex 20.3 0 0
      vertex 20.5185 2.07912 0
      vertex 20.5185 -2.07912 0
    endloop
  endfacet
  facet normal 0 0 -1
    outer loop
      vertex 20.5185 -2.07912 0
      vertex 20.5185 2.07912 0
      vertex 21.1645 4.06737 0
    endloop
  endfacet
  facet normal 0 0 -1
    outer loop
      vertex 20.5185 -2.07912 0
      vertex 21.1645 4.06737 0
      vertex 22.2098 5.87785 0
    endloop
  endfacet
  facet normal 0 0 -1
    outer loop
      vertex 20.5185 -2.07912 0
      vertex 22.2098 5.87785 0
      vertex 23.6087 7.43145 0
    endloop
  endfacet
  facet normal 0 0 -1
    outer loop
      vertex 20.5185 -2.07912 0
      vertex 23.6087 7.43145 0
      vertex 25.3 8.66025 0
    endloop
  endfacet
  facet normal 0 0 -1
    outer loop
      vertex 20.5185 -2.07912 0
      vertex 25.3 8.66025 0
      vertex 27.2098 9.51056 0
    endloop
  endfacet
  facet normal 0 0 -1
    outer loop
      vertex 20.5185 -2.07912 0
      vertex 27.2098 9.51056 0
      vertex 29.2547 9.94522 0
    endloop
  endfacet
  facet normal 0 0 -1
    outer loop
      vertex 20.5185 -2.07912 0
      vertex 29.2547 9.94522 0
      vertex 31.3453 9.94522 0
    endloop
  endfacet
  facet normal 0 0 -1
    outer loop
      vertex 20.5185 -2.07912 0
      vertex 31.3453 9.94522 0
      vertex 33.3902 9.51056 0
    endloop
  endfacet
  facet normal 0 0 -1
    outer loop
      vertex 20.5185 -2.07912 0
      vertex 33.3902 9.51056 0
      vertex 35.3 8.66025 0
    endloop
  endfacet
  facet normal 0 0 -1
    outer loop
      vertex 20.5185 -2.07912 0
      vertex 35.3 8.66025 0
      vertex 36.9913 7.43145 0
    endloop
  endfacet
  facet normal 0 0 -1
    outer loop
      vertex 20.5185 -2.07912 0
      vertex 36.9913 7.43145 0
      vertex 38.3902 5.87785 0
    endloop
  endfacet
  facet normal 0 0 -1
    outer loop
      vertex 20.5185 -2.07912 0
      vertex 38.3902 5.87785 0
      vertex 39.4355 4.06737 0
    endloop
  endfacet
  facet normal 0 0 -1
    outer loop
      vertex 20.5185 -2.07912 0
      vertex 39.4355 4.06737 0
      vertex 40.0815 2.07912 0
    endloop
  endfacet
  facet normal 0 0 -1
    outer loop
      vertex 20.5185 -2.07912 0
      vertex 40.0815 2.07912 0
      vertex 40.3 0 0
    endloop
  endfacet
  facet normal 0 0 -1
    outer loop
      vertex 20.5185 -2.07912 0
      vertex 40.3 0 0
      vertex 40.0815 -2.07912 0
    endloop
  endfacet
  facet normal 0 0 -1
    outer loop
      vertex 20.5185 -2.07912 0
      vertex 40.0815 -2.07912 0
      vertex 39.4355 -4.06737 0
    endloop
  endfacet
  facet normal 0 0 -1
    outer loop
      vertex 20.5185 -2.07912 0
      vertex 39.4355 -4.06737 0
      vertex 38.3902 -5.87785 0
    endloop
  endfacet
  facet normal 0 0 -1
    outer loop
      vertex 20.5185 -2.07912 0
      vertex 38.3902 -5.87785 0
      vertex 36.9913 -7.43145 0
    endloop
  endfacet
  facet normal 0 0 -1
    outer loop
      vertex 20.5185 -2.07912 0
      vertex 36.9913 -7.43145 0
      vertex 35.3 -8.66025 0
    endloop
  endfacet
  facet normal 0 0 -1
    outer loop
      vertex 20.5185 -2.07912 0
      vertex 35.3 -8.66025 0
      vertex 33.3902 -9.51056 0
    endloop
  endfacet
  facet normal 0 0 -1
    outer loop
      vertex 20.5185 -2.07912 0
      vertex 33.3902 -9.51056 0
      vertex 31.3453 -9.94522 0
    endloop
  endfacet
  facet normal 0 0 -1
    outer loop
      vertex 20.5185 -2.07912 0
      vertex 31.3453 -9.94522 0
      vertex 29.2547 -9.94522 0
    endloop
  endfacet
  facet normal 0 0 -1
    outer loop
      vertex 20.5185 -2.07912 0
      vertex 29.2547 -9.94522 0
      vertex 27.2098 -9.51056 0
    endloop
  endfacet
  facet normal 0 0 -1
    outer loop
      vertex 20.5185 -2.07912 0
      vertex 27.2098 -9.51056 0
      vertex 25.3 -8.66025 0
    endloop
  endfacet
  facet normal 0 0 -1
    outer loop
      vertex 20.5185 -2.07912 0
      vertex 25.3 -8.66025 0
      vertex 23.6087 -7.43145 0
    endloop
  endfacet
  facet normal 0 0 -1
    outer loop
      vertex 20.5185 -2.07912 0
      vertex 23.6087 -7.43145 0
      vertex 22.2098 -5.87785 0
    endloop
  endfacet
  facet normal 0 0 -1
    outer loop
      vertex 20.5185 -2.07912 0
      vertex 22.2098 -5.87785 0
      vertex 21.1645 -4.06737 0
    endloop
  endfacet
  facet normal -0.994522 0.104528 0
    outer loop
      vertex 20.3 0 0
      vertex 20.3 0 8
      vertex 20.5185 2.07912 0
    endloop
  endfacet
  facet normal -0.994522 0.104528 0
    outer loop
      vertex 20.5185 2.07912 0
      vertex 20.3 0 8
      vertex 20.5185 2.07912 8
    endloop
  endfacet
  facet normal -0.994522 -0.104528 0
    outer loop
      vertex 20.3 0 0
      vertex 20.5185 -2.07912 0
      vertex 20.3 0 8
    endloop
  endfacet
  facet normal -0.994522 -0.104528 0
    outer loop
      vertex 20.3 0 8
      vertex 20.5185 -2.07912 0
      vertex 20.5185 -2.07912 8
    endloop
  endfacet
  facet normal -0.951057 -0.309017 0
    outer loop
      vertex 20.5185 -2.07912 0
      vertex 21.1645 -4.06737 0
      vertex 20.5185 -2.07912 8
    endloop
  endfacet
  facet normal -0.951057 -0.309017 0
    outer loop
      vertex 20.5185 -2.07912 8
      vertex 21.1645 -4.06737 0
      vertex 21.1645 -4.06737 8
    endloop
  endfacet
  facet normal -0.866025 -0.5 0
    outer loop
      vertex 21.1645 -4.06737 0
      vertex 22.2098 -5.87785 0
      vertex 21.1645 -4.06737 8
    endloop
  endfacet
  facet normal -0.866025 -0.5 0
    outer loop
      vertex 21.1645 -4.06737 8
      vertex 22.2098 -5.87785 0
      vertex 22.2098 -5.87785 8
    endloop
  endfacet
  facet normal -0.743145 -0.669131 0
    outer loop
      vertex 22.2098 -5.87785 0
      vertex 23.6087 -7.43145 0
      vertex 22.2098 -5.87785 8
    endloop
  endfacet
  facet normal -0.743145 -0.669131 0
    outer loop
      vertex 22.2098 -5.87785 8
      vertex 23.6087 -7.43145 0
      vertex 23.6087 -7.43145 8
    endloop
  endfacet
  facet normal -0.587785 -0.809017 0
    outer loop
      vertex 23.6087 -7.43145 8
      vertex 23.6087 -7.43145 0
      vertex 25.3 -8.66025 0
    endloop
  endfacet
  facet normal -0.587785 -0.809017 0
    outer loop
      vertex 25.3 -8.66025 8
      vertex 23.6087 -7.43145 8
      vertex 25.3 -8.66025 0
    endloop
  endfacet
  facet normal -0.406737 -0.913545 0
    outer loop
      vertex 25.3 -8.66025 8
      vertex 25.3 -8.66025 0
      vertex 27.2098 -9.51056 0
    endloop
  endfacet
  facet normal -0.406737 -0.913545 0
    outer loop
      vertex 27.2098 -9.51056 8
      vertex 25.3 -8.66025 8
      vertex 27.2098 -9.51056 0
    endloop
  endfacet
  facet normal -0.207912 -0.978148 0
    outer loop
      vertex 27.2098 -9.51056 8
      vertex 27.2098 -9.51056 0
      vertex 29.2547 -9.94522 0
    endloop
  endfacet
  facet normal -0.207912 -0.978148 0
    outer loop
      vertex 29.2547 -9.94522 8
      vertex 27.2098 -9.51056 8
      vertex 29.2547 -9.94522 0
    endloop
  endfacet
  facet normal 0 -1 0
    outer loop
      vertex 29.2547 -9.94522 8
      vertex 29.2547 -9.94522 0
      vertex 31.3453 -9.94522 0
    endloop
  endfacet
  facet normal 0 -1 0
    outer loop
      vertex 31.3453 -9.94522 8
      vertex 29.2547 -9.94522 8
      vertex 31.3453 -9.94522 0
    endloop
  endfacet
  facet normal 0.207912 -0.978148 0
    outer loop
      vertex 31.3453 -9.94522 8
      vertex 31.3453 -9.94522 0
      vertex 33.3902 -9.51056 0
    endloop
  endfacet
  facet normal 0.207912 -0.978148 0
    outer loop
      vertex 33.3902 -9.51056 8
      vertex 31.3453 -9.94522 8
      vertex 33.3902 -9.51056 0
    endloop
  endfacet
  facet normal 0.406737 -0.913545 0
    outer loop
      vertex 33.3902 -9.51056 8
      vertex 33.3902 -9.51056 0
      vertex 35.3 -8.66025 0
    endloop
  endfacet
  facet normal 0.406737 -0.913545 0
    outer loop
      vertex 35.3 -8.66025 8
      vertex 33.3902 -9.51056 8
      vertex 35.3 -8.66025 0
    endloop
  endfacet
  facet normal 0.587785 -0.809017 0
    outer loop
      vertex 35.3 -8.66025 8
      vertex 35.3 -8.66025 0
      vertex 36.9913 -7.43145 0
    endloop
  endfacet
  facet normal 0.587785 -0.809017 0
    outer loop
      vertex 36.9913 -7.43145 8
      vertex 35.3 -8.66025 8
      vertex 36.9913 -7.43145 0
    endloop
  endfacet
  facet normal 0.743145 -0.669131 0
    outer loop
      vertex 36.9913 -7.43145 8
      vertex 36.9913 -7.43145 0
      vertex 38.3902 -5.87785 0
    endloop
  endfacet
  facet normal 0.743145 -0.669131 0
    outer loop
      vertex 38.3902 -5.87785 8
      vertex 36.9913 -7.43145 8
      vertex 38.3902 -5.87785 0
    endloop
  endfacet
  facet normal 0.866025 -0.5 0
    outer loop
      vertex 38.3902 -5.87785 8
      vertex 38.3902 -5.87785 0
      vertex 39.4355 -4.06737 0
    endloop
  endfacet
  facet normal 0.866025 -0.5 0
    outer loop
      vertex 39.4355 -4.06737 8
      vertex 38.3902 -5.87785 8
      vertex 39.4355 -4.06737 0
    endloop
  endfacet
  facet normal 0.951057 -0.309017 0
    outer loop
      vertex 39.4355 -4.06737 8
      vertex 39.4355 -4.06737 0
      vertex 40.0815 -2.07912 0
    endloop
  endfacet
  facet normal 0.951057 -0.309017 0
    outer loop
      vertex 40.0815 -2.07912 8
      vertex 39.4355 -4.06737 8
      vertex 40.0815 -2.07912 0
    endloop
  endfacet
  facet normal 0.994522 -0.104528 0
    outer loop
      vertex 40.0815 -2.07912 8
      vertex 40.0815 -2.07912 0
      vertex 40.3 0 0
    endloop
  endfacet
  facet normal 0.994522 -0.104528 0
    outer loop
      vertex 40.3 0 8
      vertex 40.0815 -2.07912 8
      vertex 40.3 0 0
    endloop
  endfacet
  facet normal 0.994522 0.104528 0
    outer loop
      vertex 40.3 0 0
      vertex 40.0815 2.07912 0
      vertex 40.0815 2.07912 8
    endloop
  endfacet
  facet normal 0.994522 0.104528 0
    outer loop
      vertex 40.3 0 8
      vertex 40.3 0 0
      vertex 40.0815 2.07912 8
    endloop
  endfacet
  facet normal 0.951057 0.309017 0
    outer loop
      vertex 40.0815 2.07912 0
      vertex 39.4355 4.06737 0
      vertex 39.4355 4.06737 8
    endloop
  endfacet
  facet normal 0.951057 0.309017 0
    outer loop
      vertex 40.0815 2.07912 8
      vertex 40.0815 2.07912 0
      vertex 39.4355 4.06737 8
    endloop
  endfacet
  facet normal 0.866025 0.5 0
    outer loop
      vertex 39.4355 4.06737 0
      vertex 38.3902 5.87785 0
      vertex 38.3902 5.87785 8
    endloop
  endfacet
  facet normal 0.866025 0.5 0
    outer loop
      vertex 39.4355 4.06737 8
      vertex 39.4355 4.06737 0
      vertex 38.3902 5.87785 8
    endloop
  endfacet
  facet normal 0.743145 0.669131 0
    outer loop
      vertex 38.3902 5.87785 0
      vertex 36.9913 7.43145 0
      vertex 36.9913 7.43145 8
    endloop
  endfacet
  facet normal 0.743145 0.669131 0
    outer loop
      vertex 38.3902 5.87785 8
      vertex 38.3902 5.87785 0
      vertex 36.9913 7.43145 8
    endloop
  endfacet
  facet normal 0.587785 0.809017 0
    outer loop
      vertex 35.3 8.66025 0
      vertex 35.3 8.66025 8
      vertex 36.9913 7.43145 0
    endloop
  endfacet
  facet normal 0.587785 0.809017 0
    outer loop
      vertex 36.9913 7.43145 0
      vertex 35.3 8.66025 8
      vertex 36.9913 7.43145 8
    endloop
  endfacet
  facet normal 0.406737 0.913545 0
    outer loop
      vertex 33.3902 9.51056 0
      vertex 33.3902 9.51056 8
      vertex 35.3 8.66025 0
    endloop
  endfacet
  facet normal 0.406737 0.913545 0
    outer loop
      vertex 35.3 8.66025 0
      vertex 33.3902 9.51056 8
      vertex 35.3 8.66025 8
    endloop
  endfacet
  facet normal 0.207912 0.978148 0
    outer loop
      vertex 31.3453 9.94522 0
      vertex 31.3453 9.94522 8
      vertex 33.3902 9.51056 0
    endloop
  endfacet
  facet normal 0.207912 0.978148 0
    outer loop
      vertex 33.3902 9.51056 0
      vertex 31.3453 9.94522 8
      vertex 33.3902 9.51056 8
    endloop
  endfacet
  facet normal 0 1 0
    outer loop
      vertex 29.2547 9.94522 0
      vertex 29.2547 9.94522 8
      vertex 31.3453 9.94522 0
    endloop
  endfacet
  facet normal 0 1 0
    outer loop
      vertex 31.3453 9.94522 0
      vertex 29.2547 9.94522 8
      vertex 31.3453 9.94522 8
    endloop
  endfacet
  facet normal -0.207912 0.978148 0
    outer loop
      vertex 27.2098 9.51056 0
      vertex 27.2098 9.51056 8
      vertex 29.2547 9.94522 0
    endloop
  endfacet
  facet normal -0.207912 0.978148 0
    outer loop
      vertex 29.2547 9.94522 0
      vertex 27.2098 9.51056 8
      vertex 29.2547 9.94522 8
    endloop
  endfacet
  facet normal -0.406737 0.913545 0
    outer loop
      vertex 25.3 8.66025 0
      vertex 25.3 8.66025 8
      vertex 27.2098 9.51056 0
    endloop
  endfacet
  facet normal -0.406737 0.913545 0
    outer loop
      vertex 27.2098 9.51056 0
      vertex 25.3 8.66025 8
      vertex 27.2098 9.51056 8
    endloop
  endfacet
  facet normal -0.587785 0.809017 0
    outer loop
      vertex 23.6087 7.43145 0
      vertex 23.6087 7.43145 8
      vertex 25.3 8.66025 0
    endloop
  endfacet
  facet normal -0.587785 0.809017 0
    outer loop
      vertex 25.3 8.66025 0
      vertex 23.6087 7.43145 8
      vertex 25.3 8.66025 8
    endloop
  endfacet
  facet normal -0.743145 0.669131 0
    outer loop
      vertex 22.2098 5.87785 0
      vertex 22.2098 5.87785 8
      vertex 23.6087 7.43145 0
    endloop
  endfacet
  facet normal -0.743145 0.669131 0
    outer loop
      vertex 23.6087 7.43145 0
      vertex 22.2098 5.87785 8
      vertex 23.6087 7.43145 8
    endloop
  endfacet
  facet normal -0.866025 0.5 0
    outer loop
      vertex 21.1645 4.06737 0
      vertex 21.1645 4.06737 8
      vertex 22.2098 5.87785 0
    endloop
  endfacet
  facet normal -0.866025 0.5 0
    outer loop
      vertex 22.2098 5.87785 0
      vertex 21.1645 4.06737 8
      vertex 22.2098 5.87785 8
    endloop
  endfacet
  facet normal -0.951057 0.309017 0
    outer loop
      vertex 20.5185 2.07912 0
      vertex 20.5185 2.07912 8
      vertex 21.1645 4.06737 0
    endloop
  endfacet
  facet normal -0.951057 0.309017 0
    outer loop
      vertex 21.1645 4.06737 0
      vertex 20.5185 2.07912 8
      vertex 21.1645 4.06737 8
    endloop
  endfacet
  facet normal 0 0 1
    outer loop
      vertex 20.5185 2.07912 8
      vertex 20.3 0 8
      vertex 20.5185 -2.07912 8
    endloop
  endfacet
  facet normal 0 0 1
    outer loop
      vertex 22.2098 -5.87785 8
      vertex 20.5185 2.07912 8
      vertex 21.1645 -4.06737 8
    endloop
  endfacet
  facet normal 0 0 1
    outer loop
      vertex 21.1645 -4.06737 8
      vertex 20.5185 2.07912 8
      vertex 20.5185 -2.07912 8
    endloop
  endfacet
  facet normal 0 0 1
    outer loop
      vertex 23.6087 -7.43145 8
      vertex 20.5185 2.07912 8
      vertex 22.2098 -5.87785 8
    endloop
  endfacet
  facet normal 0 0 1
    outer loop
      vertex 25.3 -8.66025 8
      vertex 20.5185 2.07912 8
      vertex 23.6087 -7.43145 8
    endloop
  endfacet
  facet normal 0 0 1
    outer loop
      vertex 27.2098 -9.51056 8
      vertex 20.5185 2.07912 8
      vertex 25.3 -8.66025 8
    endloop
  endfacet
  facet normal 0 0 1
    outer loop
      vertex 29.2547 -9.94522 8
      vertex 20.5185 2.07912 8
      vertex 27.2098 -9.51056 8
    endloop
  endfacet
  facet normal 0 0 1
    outer loop
      vertex 31.3453 -9.94522 8
      vertex 20.5185 2.07912 8
      vertex 29.2547 -9.94522 8
    endloop
  endfacet
  facet normal 0 0 1
    outer loop
      vertex 33.3902 -9.51056 8
      vertex 20.5185 2.07912 8
      vertex 31.3453 -9.94522 8
    endloop
  endfacet
  facet normal 0 0 1
    outer loop
      vertex 35.3 -8.66025 8
      vertex 20.5185 2.07912 8
      vertex 33.3902 -9.51056 8
    endloop
  endfacet
  facet normal 0 0 1
    outer loop
      vertex 27.306 -2.65249 8
      vertex 20.5185 2.07912 8
      vertex 35.3 -8.66025 8
    endloop
  endfacet
  facet normal 0 0 1
    outer loop
      vertex 26.4162 0.957263 8
      vertex 27.306 2.65249 8
      vertex 20.5185 2.07912 8
    endloop
  endfacet
  facet normal 0 0 1
    outer loop
      vertex 34.3 0 8
      vertex 33.8418 -1.85889 8
      vertex 40.0815 -2.07912 8
    endloop
  endfacet
  facet normal 0 0 1
    outer loop
      vertex 27.306 2.65249 8
      vertex 28.8816 3.74007 8
      vertex 20.5185 2.07912 8
    endloop
  endfacet
  facet normal 0 0 1
    outer loop
      vertex 36.9913 7.43145 8
      vertex 20.5185 2.07912 8
      vertex 38.3902 5.87785 8
    endloop
  endfacet
  facet normal 0 0 1
    outer loop
      vertex 35.3 8.66025 8
      vertex 20.5185 2.07912 8
      vertex 36.9913 7.43145 8
    endloop
  endfacet
  facet normal 0 0 1
    outer loop
      vertex 33.3902 9.51056 8
      vertex 20.5185 2.07912 8
      vertex 35.3 8.66025 8
    endloop
  endfacet
  facet normal 0 0 1
    outer loop
      vertex 31.3453 9.94522 8
      vertex 20.5185 2.07912 8
      vertex 33.3902 9.51056 8
    endloop
  endfacet
  facet normal 0 0 1
    outer loop
      vertex 29.2547 9.94522 8
      vertex 20.5185 2.07912 8
      vertex 31.3453 9.94522 8
    endloop
  endfacet
  facet normal 0 0 1
    outer loop
      vertex 27.2098 9.51056 8
      vertex 20.5185 2.07912 8
      vertex 29.2547 9.94522 8
    endloop
  endfacet
  facet normal 0 0 1
    outer loop
      vertex 25.3 8.66025 8
      vertex 20.5185 2.07912 8
      vertex 27.2098 9.51056 8
    endloop
  endfacet
  facet normal 0 0 1
    outer loop
      vertex 23.6087 7.43145 8
      vertex 20.5185 2.07912 8
      vertex 25.3 8.66025 8
    endloop
  endfacet
  facet normal 0 0 1
    outer loop
      vertex 22.2098 5.87785 8
      vertex 20.5185 2.07912 8
      vertex 23.6087 7.43145 8
    endloop
  endfacet
  facet normal 0 0 1
    outer loop
      vertex 21.1645 4.06737 8
      vertex 20.5185 2.07912 8
      vertex 22.2098 5.87785 8
    endloop
  endfacet
  facet normal 0 0 1
    outer loop
      vertex 33.8418 -1.85889 8
      vertex 38.3902 -5.87785 8
      vertex 39.4355 -4.06737 8
    endloop
  endfacet
  facet normal 0 0 1
    outer loop
      vertex 32.5723 3.29194 8
      vertex 33.8418 1.85889 8
      vertex 40.0815 2.07912 8
    endloop
  endfacet
  facet normal 0 0 1
    outer loop
      vertex 32.5723 3.29194 8
      vertex 40.0815 2.07912 8
      vertex 39.4355 4.06737 8
    endloop
  endfacet
  facet normal 0 0 1
    outer loop
      vertex 38.3902 5.87785 8
      vertex 20.5185 2.07912 8
      vertex 28.8816 3.74007 8
    endloop
  endfacet
  facet normal 0 0 1
    outer loop
      vertex 38.3902 5.87785 8
      vertex 30.7821 3.97083 8
      vertex 39.4355 4.06737 8
    endloop
  endfacet
  facet normal 0 0 1
    outer loop
      vertex 38.3902 5.87785 8
      vertex 28.8816 3.74007 8
      vertex 30.7821 3.97083 8
    endloop
  endfacet
  facet normal 0 0 1
    outer loop
      vertex 33.8418 1.85889 8
      vertex 34.3 0 8
      vertex 40.3 0 8
    endloop
  endfacet
  facet normal 0 0 1
    outer loop
      vertex 30.7821 3.97083 8
      vertex 32.5723 3.29194 8
      vertex 39.4355 4.06737 8
    endloop
  endfacet
  facet normal 0 0 1
    outer loop
      vertex 40.0815 2.07912 8
      vertex 33.8418 1.85889 8
      vertex 40.3 0 8
    endloop
  endfacet
  facet normal 0 0 1
    outer loop
      vertex 40.3 0 8
      vertex 34.3 0 8
      vertex 40.0815 -2.07912 8
    endloop
  endfacet
  facet normal 0 0 1
    outer loop
      vertex 40.0815 -2.07912 8
      vertex 33.8418 -1.85889 8
      vertex 39.4355 -4.06737 8
    endloop
  endfacet
  facet normal 0 0 1
    outer loop
      vertex 33.8418 -1.85889 8
      vertex 32.5723 -3.29194 8
      vertex 38.3902 -5.87785 8
    endloop
  endfacet
  facet normal 0 0 1
    outer loop
      vertex 36.9913 -7.43145 8
      vertex 30.7821 -3.97083 8
      vertex 35.3 -8.66025 8
    endloop
  endfacet
  facet normal 0 0 1
    outer loop
      vertex 32.5723 -3.29194 8
      vertex 30.7821 -3.97083 8
      vertex 36.9913 -7.43145 8
    endloop
  endfacet
  facet normal 0 0 1
    outer loop
      vertex 30.7821 -3.97083 8
      vertex 28.8816 -3.74007 8
      vertex 35.3 -8.66025 8
    endloop
  endfacet
  facet normal 0 0 1
    outer loop
      vertex 32.5723 -3.29194 8
      vertex 36.9913 -7.43145 8
      vertex 38.3902 -5.87785 8
    endloop
  endfacet
  facet normal 0 0 1
    outer loop
      vertex 28.8816 -3.74007 8
      vertex 27.306 -2.65249 8
      vertex 35.3 -8.66025 8
    endloop
  endfacet
  facet normal 0 0 1
    outer loop
      vertex 27.306 -2.65249 8
      vertex 26.4162 -0.957263 8
      vertex 20.5185 2.07912 8
    endloop
  endfacet
  facet normal 0 0 1
    outer loop
      vertex 26.4162 -0.957263 8
      vertex 26.4162 0.957263 8
      vertex 20.5185 2.07912 8
    endloop
  endfacet
  facet normal 1 0 0
    outer loop
      vertex 26.4162 0.957263 4
      vertex 26.4162 0.957263 8
      vertex 26.4162 -0.957263 8
    endloop
  endfacet
  facet normal 1 0 0
    outer loop
      vertex 26.4162 -0.957263 4
      vertex 26.4162 0.957263 4
      vertex 26.4162 -0.957263 8
    endloop
  endfacet
  facet normal 0.885456 0.464723 0
    outer loop
      vertex 26.4162 -0.957263 8
      vertex 27.306 -2.65249 8
      vertex 27.306 -2.65249 4
    endloop
  endfacet
  facet normal 0.885456 0.464723 0
    outer loop
      vertex 26.4162 -0.957263 4
      vertex 26.4162 -0.957263 8
      vertex 27.306 -2.65249 4
    endloop
  endfacet
  facet normal 0.568065 0.822984 0
    outer loop
      vertex 28.8816 -3.74007 8
      vertex 28.8816 -3.74007 4
      vertex 27.306 -2.65249 8
    endloop
  endfacet
  facet normal 0.568065 0.822984 0
    outer loop
      vertex 27.306 -2.65249 8
      vertex 28.8816 -3.74007 4
      vertex 27.306 -2.65249 4
    endloop
  endfacet
  facet normal 0.120536 0.992709 0
    outer loop
      vertex 30.7821 -3.97083 8
      vertex 30.7821 -3.97083 4
      vertex 28.8816 -3.74007 8
    endloop
  endfacet
  facet normal 0.120536 0.992709 0
    outer loop
      vertex 28.8816 -3.74007 8
      vertex 30.7821 -3.97083 4
      vertex 28.8816 -3.74007 4
    endloop
  endfacet
  facet normal -0.354605 0.935016 0
    outer loop
      vertex 32.5723 -3.29194 8
      vertex 32.5723 -3.29194 4
      vertex 30.7821 -3.97083 8
    endloop
  endfacet
  facet normal -0.354605 0.935016 0
    outer loop
      vertex 30.7821 -3.97083 8
      vertex 32.5723 -3.29194 4
      vertex 30.7821 -3.97083 4
    endloop
  endfacet
  facet normal -0.748511 0.663123 0
    outer loop
      vertex 33.8418 -1.85889 8
      vertex 33.8418 -1.85889 4
      vertex 32.5723 -3.29194 8
    endloop
  endfacet
  facet normal -0.748511 0.663123 0
    outer loop
      vertex 32.5723 -3.29194 8
      vertex 33.8418 -1.85889 4
      vertex 32.5723 -3.29194 4
    endloop
  endfacet
  facet normal -0.970942 0.239316 0
    outer loop
      vertex 34.3 0 8
      vertex 34.3 0 4
      vertex 33.8418 -1.85889 8
    endloop
  endfacet
  facet normal -0.970942 0.239316 0
    outer loop
      vertex 33.8418 -1.85889 8
      vertex 34.3 0 4
      vertex 33.8418 -1.85889 4
    endloop
  endfacet
  facet normal -0.970942 -0.239316 0
    outer loop
      vertex 34.3 0 8
      vertex 33.8418 1.85889 8
      vertex 34.3 0 4
    endloop
  endfacet
  facet normal -0.970942 -0.239316 0
    outer loop
      vertex 34.3 0 4
      vertex 33.8418 1.85889 8
      vertex 33.8418 1.85889 4
    endloop
  endfacet
  facet normal -0.748511 -0.663123 0
    outer loop
      vertex 33.8418 1.85889 8
      vertex 32.5723 3.29194 8
      vertex 33.8418 1.85889 4
    endloop
  endfacet
  facet normal -0.748511 -0.663123 0
    outer loop
      vertex 33.8418 1.85889 4
      vertex 32.5723 3.29194 8
      vertex 32.5723 3.29194 4
    endloop
  endfacet
  facet normal -0.354605 -0.935016 0
    outer loop
      vertex 32.5723 3.29194 4
      vertex 32.5723 3.29194 8
      vertex 30.7821 3.97083 8
    endloop
  endfacet
  facet normal -0.354605 -0.935016 0
    outer loop
      vertex 30.7821 3.97083 4
      vertex 32.5723 3.29194 4
      vertex 30.7821 3.97083 8
    endloop
  endfacet
  facet normal 0.120536 -0.992709 0
    outer loop
      vertex 30.7821 3.97083 4
      vertex 30.7821 3.97083 8
      vertex 28.8816 3.74007 8
    endloop
  endfacet
  facet normal 0.120536 -0.992709 0
    outer loop
      vertex 28.8816 3.74007 4
      vertex 30.7821 3.97083 4
      vertex 28.8816 3.74007 8
    endloop
  endfacet
  facet normal 0.568065 -0.822984 0
    outer loop
      vertex 28.8816 3.74007 4
      vertex 28.8816 3.74007 8
      vertex 27.306 2.65249 8
    endloop
  endfacet
  facet normal 0.568065 -0.822984 0
    outer loop
      vertex 27.306 2.65249 4
      vertex 28.8816 3.74007 4
      vertex 27.306 2.65249 8
    endloop
  endfacet
  facet normal 0.885456 -0.464723 0
    outer loop
      vertex 27.306 2.65249 4
      vertex 27.306 2.65249 8
      vertex 26.4162 0.957263 8
    endloop
  endfacet
  facet normal 0.885456 -0.464723 0
    outer loop
      vertex 26.4162 0.957263 4
      vertex 27.306 2.65249 4
      vertex 26.4162 0.957263 8
    endloop
  endfacet
  facet normal 0 0 1
    outer loop
      vertex 27.306 -2.65249 4
      vertex 28.8816 -3.74007 4
      vertex 30.7821 -3.97083 4
    endloop
  endfacet
  facet normal 0 0 1
    outer loop
      vertex 33.8418 -1.85889 4
      vertex 27.306 -2.65249 4
      vertex 32.5723 -3.29194 4
    endloop
  endfacet
  facet normal 0 0 1
    outer loop
      vertex 32.5723 -3.29194 4
      vertex 27.306 -2.65249 4
      vertex 30.7821 -3.97083 4
    endloop
  endfacet
  facet normal 0 0 1
    outer loop
      vertex 34.3 0 4
      vertex 27.306 -2.65249 4
      vertex 33.8418 -1.85889 4
    endloop
  endfacet
  facet normal 0 0 1
    outer loop
      vertex 33.8418 1.85889 4
      vertex 27.306 -2.65249 4
      vertex 34.3 0 4
    endloop
  endfacet
  facet normal 0 0 1
    outer loop
      vertex 32.5723 3.29194 4
      vertex 27.306 -2.65249 4
      vertex 33.8418 1.85889 4
    endloop
  endfacet
  facet normal 0 0 1
    outer loop
      vertex 30.7821 3.97083 4
      vertex 27.306 -2.65249 4
      vertex 32.5723 3.29194 4
    endloop
  endfacet
  facet normal 0 0 1
    outer loop
      vertex 28.8816 3.74007 4
      vertex 27.306 -2.65249 4
      vertex 30.7821 3.97083 4
    endloop
  endfacet
  facet normal 0 0 1
    outer loop
      vertex 27.306 2.65249 4
      vertex 27.306 -2.65249 4
      vertex 28.8816 3.74007 4
    endloop
  endfacet
  facet normal 0 0 1
    outer loop
      vertex 26.4162 0.957263 4
      vertex 27.306 -2.65249 4
      vertex 27.306 2.65249 4
    endloop
  endfacet
  facet normal 0 0 1
    outer loop
      vertex 26.4162 -0.957263 4
      vertex 27.306 -2.65249 4
      vertex 26.4162 0.957263 4
    endloop
  endfacet
endsolid OpenSCAD_Model
