solid OpenSCAD_Model
  facet normal -1 0 0
    outer loop
      vertex -6.25 -12.5 -2
      vertex -6.25 -12.5 2
      vertex -6.25 -9.5 -2
    endloop
  endfacet
  facet normal -1 0 0
    outer loop
      vertex -6.25 -9.5 -2
      vertex -6.25 -12.5 2
      vertex -6.25 -9.5 2
    endloop
  endfacet
  facet normal 0 -1 0
    outer loop
      vertex -3.25 -12.5 0
      vertex -6.25 -12.5 -2
      vertex 6.25 -12.5 -2
    endloop
  endfacet
  facet normal 0 -1 0
    outer loop
      vertex -3.25 -12.5 0
      vertex -3.25 -12.5 2
      vertex -6.25 -12.5 2
    endloop
  endfacet
  facet normal 0 -1 0
    outer loop
      vertex 6.25 -12.5 2
      vertex 3.25 -12.5 2
      vertex 6.25 -12.5 -2
    endloop
  endfacet
  facet normal 0 -1 0
    outer loop
      vertex 3.25 -12.5 2
      vertex 3.25 -12.5 0
      vertex 6.25 -12.5 -2
    endloop
  endfacet
  facet normal 0 -1 0
    outer loop
      vertex -6.25 -12.5 2
      vertex -6.25 -12.5 -2
      vertex -3.25 -12.5 0
    endloop
  endfacet
  facet normal 0 -1 0
    outer loop
      vertex 3.25 -12.5 0
      vertex -3.25 -12.5 0
      vertex 6.25 -12.5 -2
    endloop
  endfacet
  facet normal 0 0 -1
    outer loop
      vertex -6.25 -12.5 -2
      vertex -6.25 -9.5 -2
      vertex 6.25 -12.5 -2
    endloop
  endfacet
  facet normal 0 0 -1
    outer loop
      vertex 6.25 -12.5 -2
      vertex -6.25 -9.5 -2
      vertex 3.25 -9.5 -2
    endloop
  endfacet
  facet normal 0 0 -1
    outer loop
      vertex 6.25 -12.5 -2
      vertex 3.25 -9.5 -2
      vertex 3.25 -1.5 -2
    endloop
  endfacet
  facet normal 0 0 -1
    outer loop
      vertex -3.25 1.5 -2
      vertex -6.25 -1.5 -2
      vertex -6.25 12.5 -2
    endloop
  endfacet
  facet normal 0 0 -1
    outer loop
      vertex -3.25 9.5 -2
      vertex -6.25 12.5 -2
      vertex 6.25 12.5 -2
    endloop
  endfacet
  facet normal 0 0 -1
    outer loop
      vertex -3.25 1.5 -2
      vertex -6.25 12.5 -2
      vertex -3.25 9.5 -2
    endloop
  endfacet
  facet normal 0 0 -1
    outer loop
      vertex 3.25 -1.5 -2
      vertex -6.25 -1.5 -2
      vertex -3.25 1.5 -2
    endloop
  endfacet
  facet normal 0 0 -1
    outer loop
      vertex 6.25 1.5 -2
      vertex 3.25 -1.5 -2
      vertex -3.25 1.5 -2
    endloop
  endfacet
  facet normal 0 0 -1
    outer loop
      vertex 3.25 -1.5 -2
      vertex 6.25 1.5 -2
      vertex 6.25 -12.5 -2
    endloop
  endfacet
  facet normal 0 0 -1
    outer loop
      vertex -3.25 9.5 -2
      vertex 6.25 12.5 -2
      vertex 6.25 9.5 -2
    endloop
  endfacet
  facet normal 0 1 0
    outer loop
      vertex -3.25 -9.5 2
      vertex -3.25 -9.5 0
      vertex -6.25 -9.5 2
    endloop
  endfacet
  facet normal 0 1 0
    outer loop
      vertex 3.25 -9.5 -2
      vertex -3.25 -9.5 0
      vertex 3.25 -9.5 0
    endloop
  endfacet
  facet normal 0 1 0
    outer loop
      vertex -6.25 -9.5 -2
      vertex -3.25 -9.5 0
      vertex 3.25 -9.5 -2
    endloop
  endfacet
  facet normal 0 1 0
    outer loop
      vertex -6.25 -9.5 2
      vertex -3.25 -9.5 0
      vertex -6.25 -9.5 -2
    endloop
  endfacet
  facet normal 0 0 1
    outer loop
      vertex -6.25 -9.5 2
      vertex -6.25 -12.5 2
      vertex -3.25 -12.5 2
    endloop
  endfacet
  facet normal 0 0 1
    outer loop
      vertex -3.25 -9.5 2
      vertex -6.25 -9.5 2
      vertex -3.25 -12.5 2
    endloop
  endfacet
  facet normal 1 0 0
    outer loop
      vertex -3.25 -12.5 2
      vertex -3.25 -12.5 0
      vertex -3.25 -9.5 0
    endloop
  endfacet
  facet normal 1 0 0
    outer loop
      vertex -3.25 -9.5 2
      vertex -3.25 -12.5 2
      vertex -3.25 -9.5 0
    endloop
  endfacet
  facet normal 0 0 1
    outer loop
      vertex -3.25 -9.5 0
      vertex -3.25 -12.5 0
      vertex 3.25 -12.5 0
    endloop
  endfacet
  facet normal 0 0 1
    outer loop
      vertex 3.25 -9.5 0
      vertex -3.25 -9.5 0
      vertex 3.25 -12.5 0
    endloop
  endfacet
  facet normal -1 0 0
    outer loop
      vertex 3.25 -1.5 2
      vertex 3.25 -1.5 -2
      vertex 3.25 -12.5 2
    endloop
  endfacet
  facet normal -1 0 0
    outer loop
      vertex 3.25 -9.5 0
      vertex 3.25 -1.5 -2
      vertex 3.25 -9.5 -2
    endloop
  endfacet
  facet normal -1 0 0
    outer loop
      vertex 3.25 -12.5 2
      vertex 3.25 -1.5 -2
      vertex 3.25 -9.5 0
    endloop
  endfacet
  facet normal -1 0 0
    outer loop
      vertex 3.25 -12.5 0
      vertex 3.25 -12.5 2
      vertex 3.25 -9.5 0
    endloop
  endfacet
  facet normal 0 0 1
    outer loop
      vertex -3.25 1.5 2
      vertex -6.25 -1.5 2
      vertex 3.25 -1.5 2
    endloop
  endfacet
  facet normal 0 0 1
    outer loop
      vertex -3.25 1.5 2
      vertex -3.25 12.5 2
      vertex -6.25 12.5 2
    endloop
  endfacet
  facet normal 0 0 1
    outer loop
      vertex 3.25 -12.5 2
      vertex 6.25 -12.5 2
      vertex 3.25 -1.5 2
    endloop
  endfacet
  facet normal 0 0 1
    outer loop
      vertex 6.25 -12.5 2
      vertex 6.25 1.5 2
      vertex 3.25 -1.5 2
    endloop
  endfacet
  facet normal 0 0 1
    outer loop
      vertex -6.25 12.5 2
      vertex -6.25 -1.5 2
      vertex -3.25 1.5 2
    endloop
  endfacet
  facet normal 0 0 1
    outer loop
      vertex 6.25 1.5 2
      vertex -3.25 1.5 2
      vertex 3.25 -1.5 2
    endloop
  endfacet
  facet normal 1 0 0
    outer loop
      vertex 6.25 -12.5 2
      vertex 6.25 -12.5 -2
      vertex 6.25 1.5 -2
    endloop
  endfacet
  facet normal 1 0 0
    outer loop
      vertex 6.25 1.5 2
      vertex 6.25 -12.5 2
      vertex 6.25 1.5 -2
    endloop
  endfacet
  facet normal 0 1 0
    outer loop
      vertex 6.25 1.5 2
      vertex 6.25 1.5 -2
      vertex -3.25 1.5 2
    endloop
  endfacet
  facet normal 0 1 0
    outer loop
      vertex -3.25 1.5 2
      vertex 6.25 1.5 -2
      vertex -3.25 1.5 -2
    endloop
  endfacet
  facet normal 1 0 0
    outer loop
      vertex -3.25 12.5 2
      vertex -3.25 9.5 0
      vertex -3.25 12.5 0
    endloop
  endfacet
  facet normal 1 0 0
    outer loop
      vertex -3.25 1.5 2
      vertex -3.25 9.5 0
      vertex -3.25 12.5 2
    endloop
  endfacet
  facet normal 1 0 0
    outer loop
      vertex -3.25 9.5 -2
      vertex -3.25 9.5 0
      vertex -3.25 1.5 2
    endloop
  endfacet
  facet normal 1 0 0
    outer loop
      vertex -3.25 1.5 -2
      vertex -3.25 9.5 -2
      vertex -3.25 1.5 2
    endloop
  endfacet
  facet normal 0 -1 0
    outer loop
      vertex 6.25 9.5 -2
      vertex 6.25 9.5 2
      vertex 3.25 9.5 2
    endloop
  endfacet
  facet normal 0 -1 0
    outer loop
      vertex -3.25 9.5 0
      vertex 6.25 9.5 -2
      vertex 3.25 9.5 0
    endloop
  endfacet
  facet normal 0 -1 0
    outer loop
      vertex 3.25 9.5 0
      vertex 6.25 9.5 -2
      vertex 3.25 9.5 2
    endloop
  endfacet
  facet normal 0 -1 0
    outer loop
      vertex -3.25 9.5 -2
      vertex 6.25 9.5 -2
      vertex -3.25 9.5 0
    endloop
  endfacet
  facet normal 1 0 0
    outer loop
      vertex 6.25 9.5 2
      vertex 6.25 9.5 -2
      vertex 6.25 12.5 -2
    endloop
  endfacet
  facet normal 1 0 0
    outer loop
      vertex 6.25 12.5 2
      vertex 6.25 9.5 2
      vertex 6.25 12.5 -2
    endloop
  endfacet
  facet normal 0 1 0
    outer loop
      vertex 3.25 12.5 0
      vertex 6.25 12.5 -2
      vertex -3.25 12.5 0
    endloop
  endfacet
  facet normal 0 1 0
    outer loop
      vertex -6.25 12.5 -2
      vertex -6.25 12.5 2
      vertex -3.25 12.5 0
    endloop
  endfacet
  facet normal 0 1 0
    outer loop
      vertex -6.25 12.5 -2
      vertex -3.25 12.5 0
      vertex 6.25 12.5 -2
    endloop
  endfacet
  facet normal 0 1 0
    outer loop
      vertex 6.25 12.5 -2
      vertex 3.25 12.5 0
      vertex 3.25 12.5 2
    endloop
  endfacet
  facet normal 0 1 0
    outer loop
      vertex 6.25 12.5 -2
      vertex 3.25 12.5 2
      vertex 6.25 12.5 2
    endloop
  endfacet
  facet normal 0 1 0
    outer loop
      vertex -3.25 12.5 0
      vertex -6.25 12.5 2
      vertex -3.25 12.5 2
    endloop
  endfacet
  facet normal -1 0 0
    outer loop
      vertex -6.25 -1.5 -2
      vertex -6.25 -1.5 2
      vertex -6.25 12.5 -2
    endloop
  endfacet
  facet normal -1 0 0
    outer loop
      vertex -6.25 12.5 -2
      vertex -6.25 -1.5 2
      vertex -6.25 12.5 2
    endloop
  endfacet
  facet normal 0 -1 0
    outer loop
      vertex 3.25 -1.5 -2
      vertex 3.25 -1.5 2
      vertex -6.25 -1.5 2
    endloop
  endfacet
  facet normal 0 -1 0
    outer loop
      vertex -6.25 -1.5 -2
      vertex 3.25 -1.5 -2
      vertex -6.25 -1.5 2
    endloop
  endfacet
  facet normal 0 0 1
    outer loop
      vertex 3.25 9.5 0
      vertex 3.25 12.5 0
      vertex -3.25 12.5 0
    endloop
  endfacet
  facet normal 0 0 1
    outer loop
      vertex -3.25 9.5 0
      vertex 3.25 9.5 0
      vertex -3.25 12.5 0
    endloop
  endfacet
  facet normal -1 0 0
    outer loop
      vertex 3.25 12.5 2
      vertex 3.25 12.5 0
      vertex 3.25 9.5 2
    endloop
  endfacet
  facet normal -1 0 0
    outer loop
      vertex 3.25 9.5 2
      vertex 3.25 12.5 0
      vertex 3.25 9.5 0
    endloop
  endfacet
  facet normal 0 0 1
    outer loop
      vertex 3.25 12.5 2
      vertex 3.25 9.5 2
      vertex 6.25 9.5 2
    endloop
  endfacet
  facet normal 0 0 1
    outer loop
      vertex 6.25 12.5 2
      vertex 3.25 12.5 2
      vertex 6.25 9.5 2
    endloop
  endfacet
endsolid OpenSCAD_Model
