solid OpenSCAD_Model
  facet normal 0 0 -1
    outer loop
      vertex -26 0 -8
      vertex -25.4318 5.4057 -8
      vertex -25.4318 -5.4057 -8
    endloop
  endfacet
  facet normal 0 0 -1
    outer loop
      vertex -25.4318 -5.4057 -8
      vertex -25.4318 5.4057 -8
      vertex -23.7522 10.5752 -8
    endloop
  endfacet
  facet normal 0 0 -1
    outer loop
      vertex -25.4318 -5.4057 -8
      vertex -23.7522 10.5752 -8
      vertex -21.0344 15.2824 -8
    endloop
  endfacet
  facet normal 0 0 -1
    outer loop
      vertex -25.4318 -5.4057 -8
      vertex -21.0344 15.2824 -8
      vertex -17.3974 19.3218 -8
    endloop
  endfacet
  facet normal 0 0 -1
    outer loop
      vertex -25.4318 -5.4057 -8
      vertex -17.3974 19.3218 -8
      vertex -13 22.5167 -8
    endloop
  endfacet
  facet normal 0 0 -1
    outer loop
      vertex -25.4318 -5.4057 -8
      vertex -13 22.5167 -8
      vertex -8.03444 24.7275 -8
    endloop
  endfacet
  facet normal 0 0 -1
    outer loop
      vertex -25.4318 -5.4057 -8
      vertex -8.03444 24.7275 -8
      vertex -2.71774 25.8576 -8
    endloop
  endfacet
  facet normal 0 0 -1
    outer loop
      vertex -25.4318 -5.4057 -8
      vertex -2.71774 25.8576 -8
      vertex 0 25.8576 -8
    endloop
  endfacet
  facet normal 0 0 -1
    outer loop
      vertex 0 25.8576 -8
      vertex 0 26 -8
      vertex 40 26 -8
    endloop
  endfacet
  facet normal 0 0 -1
    outer loop
      vertex 14.6167 -6.50779 -8
      vertex 33.8604 -8.22664 -8
      vertex 29.4566 -8.85697 -8
    endloop
  endfacet
  facet normal 0 0 -1
    outer loop
      vertex 35 19.839 -8
      vertex 40 26 -8
      vertex 40 21 -8
    endloop
  endfacet
  facet normal 0 0 -1
    outer loop
      vertex 40 19 -8
      vertex 40 21 -8
      vertex 115 21 -8
    endloop
  endfacet
  facet normal 0 0 -1
    outer loop
      vertex 113 1 -8
      vertex 115 21 -8
      vertex 115 1 -8
    endloop
  endfacet
  facet normal 0 0 -1
    outer loop
      vertex 38.3877 -8.43868 -8
      vertex 15.6504 -3.32659 -8
      vertex 40 -1 -8
    endloop
  endfacet
  facet normal 0 0 -1
    outer loop
      vertex 40 -8.83841 -8
      vertex 38.3877 -8.43868 -8
      vertex 40 -1 -8
    endloop
  endfacet
  facet normal 0 0 -1
    outer loop
      vertex 10.7061 -11.8903 -8
      vertex 21.3882 -14.7162 -8
      vertex 8 -13.8564 -8
    endloop
  endfacet
  facet normal 0 0 -1
    outer loop
      vertex 12.9443 -9.40456 -8
      vertex 22.8633 -12.2876 -8
      vertex 10.7061 -11.8903 -8
    endloop
  endfacet
  facet normal 0 0 -1
    outer loop
      vertex -2.71774 -25.8576 -8
      vertex -25.4318 -5.4057 -8
      vertex 0 -25.8576 -8
    endloop
  endfacet
  facet normal 0 0 -1
    outer loop
      vertex 14.6167 -6.50779 -8
      vertex 25.6535 -10.2614 -8
      vertex 12.9443 -9.40456 -8
    endloop
  endfacet
  facet normal 0 0 -1
    outer loop
      vertex 8 -13.8564 -8
      vertex 22.8633 -19.7124 -8
      vertex 25.6535 -21.7386 -8
    endloop
  endfacet
  facet normal 0 0 -1
    outer loop
      vertex 33.8604 -23.7734 -8
      vertex 40 -26 -8
      vertex 29.4566 -23.143 -8
    endloop
  endfacet
  facet normal 0 0 -1
    outer loop
      vertex 38.3877 -23.5613 -8
      vertex 40 -23.1616 -8
      vertex 40 -26 -8
    endloop
  endfacet
  facet normal 0 0 -1
    outer loop
      vertex 38.3877 -23.5613 -8
      vertex 40 -26 -8
      vertex 33.8604 -23.7734 -8
    endloop
  endfacet
  facet normal 0 0 -1
    outer loop
      vertex 29.4566 -23.143 -8
      vertex 40 -26 -8
      vertex 0 -26 -8
    endloop
  endfacet
  facet normal 0 0 -1
    outer loop
      vertex 29.4566 -23.143 -8
      vertex 0 -26 -8
      vertex 0 -25.8576 -8
    endloop
  endfacet
  facet normal 0 0 -1
    outer loop
      vertex -10.7061 -11.8903 -8
      vertex 0 -25.8576 -8
      vertex -25.4318 -5.4057 -8
    endloop
  endfacet
  facet normal 0 0 -1
    outer loop
      vertex -15.6504 -3.32659 -8
      vertex -25.4318 -5.4057 -8
      vertex -16 0 -8
    endloop
  endfacet
  facet normal 0 0 -1
    outer loop
      vertex -25.4318 -5.4057 -8
      vertex -2.71774 -25.8576 -8
      vertex -8.03444 -24.7275 -8
    endloop
  endfacet
  facet normal 0 0 -1
    outer loop
      vertex -25.4318 -5.4057 -8
      vertex -8.03444 -24.7275 -8
      vertex -13 -22.5167 -8
    endloop
  endfacet
  facet normal 0 0 -1
    outer loop
      vertex -25.4318 -5.4057 -8
      vertex -13 -22.5167 -8
      vertex -17.3974 -19.3218 -8
    endloop
  endfacet
  facet normal 0 0 -1
    outer loop
      vertex -25.4318 -5.4057 -8
      vertex -17.3974 -19.3218 -8
      vertex -21.0344 -15.2824 -8
    endloop
  endfacet
  facet normal 0 0 -1
    outer loop
      vertex -25.4318 -5.4057 -8
      vertex -21.0344 -15.2824 -8
      vertex -23.7522 -10.5752 -8
    endloop
  endfacet
  facet normal 0 0 -1
    outer loop
      vertex -15.6504 3.32659 -8
      vertex -16 0 -8
      vertex -25.4318 -5.4057 -8
    endloop
  endfacet
  facet normal 0 0 -1
    outer loop
      vertex 10.7061 11.8903 -8
      vertex 20.2325 14.0855 -8
      vertex 12.9443 9.40456 -8
    endloop
  endfacet
  facet normal 0 0 -1
    outer loop
      vertex 14.6167 -6.50779 -8
      vertex 29.4566 -8.85697 -8
      vertex 25.6535 -10.2614 -8
    endloop
  endfacet
  facet normal 0 0 -1
    outer loop
      vertex -12.9443 -9.40456 -8
      vertex -25.4318 -5.4057 -8
      vertex -14.6167 -6.50779 -8
    endloop
  endfacet
  facet normal 0 0 -1
    outer loop
      vertex -10.7061 -11.8903 -8
      vertex -25.4318 -5.4057 -8
      vertex -12.9443 -9.40456 -8
    endloop
  endfacet
  facet normal 0 0 -1
    outer loop
      vertex -8 -13.8564 -8
      vertex 0 -25.8576 -8
      vertex -10.7061 -11.8903 -8
    endloop
  endfacet
  facet normal 0 0 -1
    outer loop
      vertex 1.67246 -15.9124 -8
      vertex 29.4566 -23.143 -8
      vertex -1.67246 -15.9124 -8
    endloop
  endfacet
  facet normal 0 0 -1
    outer loop
      vertex -4.94427 -15.2169 -8
      vertex 0 -25.8576 -8
      vertex -8 -13.8564 -8
    endloop
  endfacet
  facet normal 0 0 -1
    outer loop
      vertex 29.4566 -23.143 -8
      vertex 0 -25.8576 -8
      vertex -4.94427 -15.2169 -8
    endloop
  endfacet
  facet normal 0 0 -1
    outer loop
      vertex 29.4566 -23.143 -8
      vertex -4.94427 -15.2169 -8
      vertex -1.67246 -15.9124 -8
    endloop
  endfacet
  facet normal 0 0 -1
    outer loop
      vertex 4.94427 -15.2169 -8
      vertex 29.4566 -23.143 -8
      vertex 1.67246 -15.9124 -8
    endloop
  endfacet
  facet normal 0 0 -1
    outer loop
      vertex 25.6535 -21.7386 -8
      vertex 29.4566 -23.143 -8
      vertex 4.94427 -15.2169 -8
    endloop
  endfacet
  facet normal 0 0 -1
    outer loop
      vertex 8 -13.8564 -8
      vertex 25.6535 -21.7386 -8
      vertex 4.94427 -15.2169 -8
    endloop
  endfacet
  facet normal 0 0 -1
    outer loop
      vertex 21.3882 -14.7162 -8
      vertex 21.3882 -17.2838 -8
      vertex 8 -13.8564 -8
    endloop
  endfacet
  facet normal 0 0 -1
    outer loop
      vertex 22.8633 -12.2876 -8
      vertex 21.3882 -14.7162 -8
      vertex 10.7061 -11.8903 -8
    endloop
  endfacet
  facet normal 0 0 -1
    outer loop
      vertex 25.6535 -10.2614 -8
      vertex 22.8633 -12.2876 -8
      vertex 12.9443 -9.40456 -8
    endloop
  endfacet
  facet normal 0 0 -1
    outer loop
      vertex 8 -13.8564 -8
      vertex 21.3882 -17.2838 -8
      vertex 22.8633 -19.7124 -8
    endloop
  endfacet
  facet normal 0 0 -1
    outer loop
      vertex 38.3877 -8.43868 -8
      vertex 14.6167 -6.50779 -8
      vertex 15.6504 -3.32659 -8
    endloop
  endfacet
  facet normal 0 0 -1
    outer loop
      vertex 35 19.839 -8
      vertex 40 21 -8
      vertex 35 19 -8
    endloop
  endfacet
  facet normal 0 0 -1
    outer loop
      vertex 22.0119 10.695 -8
      vertex 14.6167 6.50779 -8
      vertex 20.9164 12.2822 -8
    endloop
  endfacet
  facet normal 0 0 -1
    outer loop
      vertex -14.6167 -6.50779 -8
      vertex -25.4318 -5.4057 -8
      vertex -15.6504 -3.32659 -8
    endloop
  endfacet
  facet normal 0 0 -1
    outer loop
      vertex 14.6167 -6.50779 -8
      vertex 38.3877 -8.43868 -8
      vertex 33.8604 -8.22664 -8
    endloop
  endfacet
  facet normal 0 0 -1
    outer loop
      vertex 20.9164 12.2822 -8
      vertex 12.9443 9.40456 -8
      vertex 20.2325 14.0855 -8
    endloop
  endfacet
  facet normal 0 0 -1
    outer loop
      vertex 25.1632 23.4801 -8
      vertex 0 25.8576 -8
      vertex 27.0357 23.9417 -8
    endloop
  endfacet
  facet normal 0 0 -1
    outer loop
      vertex 0 25.8576 -8
      vertex 8 13.8564 -8
      vertex 4.94427 15.2169 -8
    endloop
  endfacet
  facet normal 0 0 -1
    outer loop
      vertex 0 25.8576 -8
      vertex 4.94427 15.2169 -8
      vertex 1.67246 15.9124 -8
    endloop
  endfacet
  facet normal 0 0 -1
    outer loop
      vertex 0 25.8576 -8
      vertex 1.67246 15.9124 -8
      vertex -1.67246 15.9124 -8
    endloop
  endfacet
  facet normal 0 0 -1
    outer loop
      vertex 0 25.8576 -8
      vertex -1.67246 15.9124 -8
      vertex -4.94427 15.2169 -8
    endloop
  endfacet
  facet normal 0 0 -1
    outer loop
      vertex -14.6167 6.50779 -8
      vertex -25.4318 -5.4057 -8
      vertex -12.9443 9.40456 -8
    endloop
  endfacet
  facet normal 0 0 -1
    outer loop
      vertex 30.8368 23.4801 -8
      vertex 40 26 -8
      vertex 32.5445 22.5839 -8
    endloop
  endfacet
  facet normal 0 0 -1
    outer loop
      vertex 0 25.8576 -8
      vertex -8 13.8564 -8
      vertex -10.7061 11.8903 -8
    endloop
  endfacet
  facet normal 0 0 -1
    outer loop
      vertex 0 25.8576 -8
      vertex -10.7061 11.8903 -8
      vertex -12.9443 9.40456 -8
    endloop
  endfacet
  facet normal 0 0 -1
    outer loop
      vertex 0 25.8576 -8
      vertex -12.9443 9.40456 -8
      vertex -25.4318 -5.4057 -8
    endloop
  endfacet
  facet normal 0 0 -1
    outer loop
      vertex 20 16 -8
      vertex 10.7061 11.8903 -8
      vertex 20.2325 17.9145 -8
    endloop
  endfacet
  facet normal 0 0 -1
    outer loop
      vertex -14.6167 6.50779 -8
      vertex -15.6504 3.32659 -8
      vertex -25.4318 -5.4057 -8
    endloop
  endfacet
  facet normal 0 0 -1
    outer loop
      vertex 20.2325 14.0855 -8
      vertex 10.7061 11.8903 -8
      vertex 20 16 -8
    endloop
  endfacet
  facet normal 0 0 -1
    outer loop
      vertex 35 19 -8
      vertex 40 21 -8
      vertex 35.3559 19 -8
    endloop
  endfacet
  facet normal 0 0 -1
    outer loop
      vertex 25.1632 8.51987 -8
      vertex 15.6504 3.32659 -8
      vertex 23.4555 9.41613 -8
    endloop
  endfacet
  facet normal 0 0 -1
    outer loop
      vertex 14.6167 6.50779 -8
      vertex 22.0119 10.695 -8
      vertex 15.6504 3.32659 -8
    endloop
  endfacet
  facet normal 0 0 -1
    outer loop
      vertex 22.0119 10.695 -8
      vertex 23.4555 9.41613 -8
      vertex 15.6504 3.32659 -8
    endloop
  endfacet
  facet normal 0 0 -1
    outer loop
      vertex 35.3559 19 -8
      vertex 40 21 -8
      vertex 35.7675 17.9145 -8
    endloop
  endfacet
  facet normal 0 0 -1
    outer loop
      vertex 15.6504 3.32659 -8
      vertex 25.1632 8.51987 -8
      vertex 27.0357 8.05833 -8
    endloop
  endfacet
  facet normal 0 0 -1
    outer loop
      vertex 15.6504 3.32659 -8
      vertex 27.0357 8.05833 -8
      vertex 28.9643 8.05833 -8
    endloop
  endfacet
  facet normal 0 0 -1
    outer loop
      vertex 40 1 -8
      vertex 33.9881 10.695 -8
      vertex 35.0836 12.2822 -8
    endloop
  endfacet
  facet normal 0 0 -1
    outer loop
      vertex 40 1 -8
      vertex 32.5445 9.41613 -8
      vertex 33.9881 10.695 -8
    endloop
  endfacet
  facet normal 0 0 -1
    outer loop
      vertex 40 1 -8
      vertex 28.9643 8.05833 -8
      vertex 30.8368 8.51987 -8
    endloop
  endfacet
  facet normal 0 0 -1
    outer loop
      vertex 35.7675 17.9145 -8
      vertex 40 21 -8
      vertex 36 16 -8
    endloop
  endfacet
  facet normal 0 0 -1
    outer loop
      vertex 35.7675 14.0855 -8
      vertex 40 21 -8
      vertex 35.0836 12.2822 -8
    endloop
  endfacet
  facet normal 0 0 -1
    outer loop
      vertex 40 1 -8
      vertex 15.6504 3.32659 -8
      vertex 28.9643 8.05833 -8
    endloop
  endfacet
  facet normal 0 0 -1
    outer loop
      vertex 36 16 -8
      vertex 40 21 -8
      vertex 35.7675 14.0855 -8
    endloop
  endfacet
  facet normal 0 0 -1
    outer loop
      vertex 40 1 -8
      vertex 30.8368 8.51987 -8
      vertex 32.5445 9.41613 -8
    endloop
  endfacet
  facet normal 0 0 -1
    outer loop
      vertex 40 1 -8
      vertex 35.0836 12.2822 -8
      vertex 40 19 -8
    endloop
  endfacet
  facet normal 0 0 -1
    outer loop
      vertex 33.9881 21.305 -8
      vertex 40 26 -8
      vertex 35 19.839 -8
    endloop
  endfacet
  facet normal 0 0 -1
    outer loop
      vertex 32.5445 22.5839 -8
      vertex 40 26 -8
      vertex 33.9881 21.305 -8
    endloop
  endfacet
  facet normal 0 0 -1
    outer loop
      vertex 28.9643 23.9417 -8
      vertex 40 26 -8
      vertex 30.8368 23.4801 -8
    endloop
  endfacet
  facet normal 0 0 -1
    outer loop
      vertex 113 1 -8
      vertex 40 -1 -8
      vertex 40 1 -8
    endloop
  endfacet
  facet normal 0 0 -1
    outer loop
      vertex 0 25.8576 -8
      vertex 40 26 -8
      vertex 28.9643 23.9417 -8
    endloop
  endfacet
  facet normal 0 0 -1
    outer loop
      vertex 0 25.8576 -8
      vertex 28.9643 23.9417 -8
      vertex 27.0357 23.9417 -8
    endloop
  endfacet
  facet normal 0 0 -1
    outer loop
      vertex 22.0119 21.305 -8
      vertex 8 13.8564 -8
      vertex 23.4555 22.5839 -8
    endloop
  endfacet
  facet normal 0 0 -1
    outer loop
      vertex 0 25.8576 -8
      vertex 25.1632 23.4801 -8
      vertex 23.4555 22.5839 -8
    endloop
  endfacet
  facet normal 0 0 -1
    outer loop
      vertex 0 25.8576 -8
      vertex 23.4555 22.5839 -8
      vertex 8 13.8564 -8
    endloop
  endfacet
  facet normal 0 0 -1
    outer loop
      vertex 20.2325 17.9145 -8
      vertex 8 13.8564 -8
      vertex 20.9164 19.7178 -8
    endloop
  endfacet
  facet normal 0 0 -1
    outer loop
      vertex 22.0119 21.305 -8
      vertex 20.9164 19.7178 -8
      vertex 8 13.8564 -8
    endloop
  endfacet
  facet normal 0 0 -1
    outer loop
      vertex 40 19 -8
      vertex 115 21 -8
      vertex 113 19 -8
    endloop
  endfacet
  facet normal 0 0 -1
    outer loop
      vertex -8 13.8564 -8
      vertex 0 25.8576 -8
      vertex -4.94427 15.2169 -8
    endloop
  endfacet
  facet normal 0 0 -1
    outer loop
      vertex 35.0836 12.2822 -8
      vertex 40 21 -8
      vertex 40 19 -8
    endloop
  endfacet
  facet normal 0 0 -1
    outer loop
      vertex 40 1 -8
      vertex 16 0 -8
      vertex 15.6504 3.32659 -8
    endloop
  endfacet
  facet normal 0 0 -1
    outer loop
      vertex 16 0 -8
      vertex 40 1 -8
      vertex 40 -1 -8
    endloop
  endfacet
  facet normal 0 0 -1
    outer loop
      vertex 113 19 -8
      vertex 115 21 -8
      vertex 113 1 -8
    endloop
  endfacet
  facet normal 0 0 -1
    outer loop
      vertex 40 -1 -8
      vertex 113 1 -8
      vertex 115 1 -8
    endloop
  endfacet
  facet normal 0 0 -1
    outer loop
      vertex 40 -1 -8
      vertex 115 1 -8
      vertex 115.5 1 -8
    endloop
  endfacet
  facet normal 0 0 -1
    outer loop
      vertex 40 -1 -8
      vertex 115.5 1 -8
      vertex 115.5 -1 -8
    endloop
  endfacet
  facet normal 0 0 -1
    outer loop
      vertex 8 13.8564 -8
      vertex 20.2325 17.9145 -8
      vertex 10.7061 11.8903 -8
    endloop
  endfacet
  facet normal 0 0 -1
    outer loop
      vertex 16 0 -8
      vertex 40 -1 -8
      vertex 15.6504 -3.32659 -8
    endloop
  endfacet
  facet normal 0 0 -1
    outer loop
      vertex 12.9443 9.40456 -8
      vertex 20.9164 12.2822 -8
      vertex 14.6167 6.50779 -8
    endloop
  endfacet
  facet normal -0.994522 0.104528 0
    outer loop
      vertex -26 0 -8
      vertex -26 0 8
      vertex -25.4318 5.4057 -8
    endloop
  endfacet
  facet normal -0.994522 0.104528 0
    outer loop
      vertex -25.4318 5.4057 -8
      vertex -26 0 8
      vertex -25.4318 5.4057 8
    endloop
  endfacet
  facet normal -0.994522 -0.104528 0
    outer loop
      vertex -26 0 -8
      vertex -25.4318 -5.4057 -8
      vertex -26 0 8
    endloop
  endfacet
  facet normal -0.994522 -0.104528 0
    outer loop
      vertex -26 0 8
      vertex -25.4318 -5.4057 -8
      vertex -25.4318 -5.4057 8
    endloop
  endfacet
  facet normal -0.951057 -0.309017 0
    outer loop
      vertex -25.4318 -5.4057 -8
      vertex -23.7522 -10.5752 -8
      vertex -25.4318 -5.4057 8
    endloop
  endfacet
  facet normal -0.951057 -0.309017 0
    outer loop
      vertex -25.4318 -5.4057 8
      vertex -23.7522 -10.5752 -8
      vertex -23.7522 -10.5752 8
    endloop
  endfacet
  facet normal -0.866025 -0.5 0
    outer loop
      vertex -23.7522 -10.5752 -8
      vertex -21.0344 -15.2824 -8
      vertex -23.7522 -10.5752 8
    endloop
  endfacet
  facet normal -0.866025 -0.5 0
    outer loop
      vertex -23.7522 -10.5752 8
      vertex -21.0344 -15.2824 -8
      vertex -21.0344 -15.2824 8
    endloop
  endfacet
  facet normal -0.743145 -0.669131 0
    outer loop
      vertex -21.0344 -15.2824 -8
      vertex -17.3974 -19.3218 -8
      vertex -21.0344 -15.2824 8
    endloop
  endfacet
  facet normal -0.743145 -0.669131 0
    outer loop
      vertex -21.0344 -15.2824 8
      vertex -17.3974 -19.3218 -8
      vertex -17.3974 -19.3218 8
    endloop
  endfacet
  facet normal -0.587785 -0.809017 0
    outer loop
      vertex -17.3974 -19.3218 8
      vertex -17.3974 -19.3218 -8
      vertex -13 -22.5167 -8
    endloop
  endfacet
  facet normal -0.587785 -0.809017 0
    outer loop
      vertex -13 -22.5167 8
      vertex -17.3974 -19.3218 8
      vertex -13 -22.5167 -8
    endloop
  endfacet
  facet normal -0.406737 -0.913545 0
    outer loop
      vertex -13 -22.5167 8
      vertex -13 -22.5167 -8
      vertex -8.03444 -24.7275 -8
    endloop
  endfacet
  facet normal -0.406737 -0.913545 0
    outer loop
      vertex -8.03444 -24.7275 8
      vertex -13 -22.5167 8
      vertex -8.03444 -24.7275 -8
    endloop
  endfacet
  facet normal -0.207912 -0.978148 0
    outer loop
      vertex -8.03444 -24.7275 8
      vertex -8.03444 -24.7275 -8
      vertex -2.71774 -25.8576 -8
    endloop
  endfacet
  facet normal -0.207912 -0.978148 0
    outer loop
      vertex -2.71774 -25.8576 8
      vertex -8.03444 -24.7275 8
      vertex -2.71774 -25.8576 -8
    endloop
  endfacet
  facet normal 0 -1 0
    outer loop
      vertex -2.71774 -25.8576 8
      vertex -2.71774 -25.8576 -8
      vertex 0 -25.8576 -8
    endloop
  endfacet
  facet normal 0 -1 0
    outer loop
      vertex 0 -25.8576 8
      vertex -2.71774 -25.8576 8
      vertex 0 -25.8576 -8
    endloop
  endfacet
  facet normal -1 0 0
    outer loop
      vertex 0 -26 -8
      vertex 0 -26 8
      vertex 0 -25.8576 -8
    endloop
  endfacet
  facet normal -1 0 0
    outer loop
      vertex 0 -25.8576 -8
      vertex 0 -26 8
      vertex 0 -25.8576 8
    endloop
  endfacet
  facet normal 0 -1 0
    outer loop
      vertex 0 -26 8
      vertex 0 -26 -8
      vertex 40 -26 -8
    endloop
  endfacet
  facet normal 0 -1 0
    outer loop
      vertex 40 -26 8
      vertex 0 -26 8
      vertex 40 -26 -8
    endloop
  endfacet
  facet normal 1 0 0
    outer loop
      vertex 40 -26 8
      vertex 40 -26 -8
      vertex 40 -23.1616 -8
    endloop
  endfacet
  facet normal 1 0 0
    outer loop
      vertex 40 -23.1616 8
      vertex 40 -26 8
      vertex 40 -23.1616 -8
    endloop
  endfacet
  facet normal -0.240642 0.970614 0
    outer loop
      vertex 40 -23.1616 8
      vertex 40 -23.1616 -8
      vertex 38.3877 -23.5613 8
    endloop
  endfacet
  facet normal -0.240642 0.970614 0
    outer loop
      vertex 38.3877 -23.5613 8
      vertex 40 -23.1616 -8
      vertex 38.3877 -23.5613 -8
    endloop
  endfacet
  facet normal -0.0467839 0.998905 0
    outer loop
      vertex 38.3877 -23.5613 8
      vertex 38.3877 -23.5613 -8
      vertex 33.8604 -23.7734 8
    endloop
  endfacet
  facet normal -0.0467839 0.998905 0
    outer loop
      vertex 33.8604 -23.7734 8
      vertex 38.3877 -23.5613 -8
      vertex 33.8604 -23.7734 -8
    endloop
  endfacet
  facet normal 0.141688 0.989911 0
    outer loop
      vertex 33.8604 -23.7734 8
      vertex 33.8604 -23.7734 -8
      vertex 29.4566 -23.143 8
    endloop
  endfacet
  facet normal 0.141688 0.989911 0
    outer loop
      vertex 29.4566 -23.143 8
      vertex 33.8604 -23.7734 -8
      vertex 29.4566 -23.143 -8
    endloop
  endfacet
  facet normal 0.346411 0.938083 0
    outer loop
      vertex 29.4566 -23.143 8
      vertex 29.4566 -23.143 -8
      vertex 25.6535 -21.7386 8
    endloop
  endfacet
  facet normal 0.346411 0.938083 0
    outer loop
      vertex 25.6535 -21.7386 8
      vertex 29.4566 -23.143 -8
      vertex 25.6535 -21.7386 -8
    endloop
  endfacet
  facet normal 0.587599 0.809152 0
    outer loop
      vertex 25.6535 -21.7386 8
      vertex 25.6535 -21.7386 -8
      vertex 22.8633 -19.7124 8
    endloop
  endfacet
  facet normal 0.587599 0.809152 0
    outer loop
      vertex 22.8633 -19.7124 8
      vertex 25.6535 -21.7386 -8
      vertex 22.8633 -19.7124 -8
    endloop
  endfacet
  facet normal 0.854698 0.519125 0
    outer loop
      vertex 21.3882 -17.2838 8
      vertex 22.8633 -19.7124 8
      vertex 22.8633 -19.7124 -8
    endloop
  endfacet
  facet normal 0.854698 0.519125 0
    outer loop
      vertex 21.3882 -17.2838 -8
      vertex 21.3882 -17.2838 8
      vertex 22.8633 -19.7124 -8
    endloop
  endfacet
  facet normal 1 0 0
    outer loop
      vertex 21.3882 -14.7162 -8
      vertex 21.3882 -14.7162 8
      vertex 21.3882 -17.2838 8
    endloop
  endfacet
  facet normal 1 0 0
    outer loop
      vertex 21.3882 -17.2838 -8
      vertex 21.3882 -14.7162 -8
      vertex 21.3882 -17.2838 8
    endloop
  endfacet
  facet normal 0.854698 -0.519125 0
    outer loop
      vertex 22.8633 -12.2876 -8
      vertex 22.8633 -12.2876 8
      vertex 21.3882 -14.7162 8
    endloop
  endfacet
  facet normal 0.854698 -0.519125 0
    outer loop
      vertex 21.3882 -14.7162 -8
      vertex 22.8633 -12.2876 -8
      vertex 21.3882 -14.7162 8
    endloop
  endfacet
  facet normal 0.587599 -0.809152 0
    outer loop
      vertex 25.6535 -10.2614 -8
      vertex 25.6535 -10.2614 8
      vertex 22.8633 -12.2876 8
    endloop
  endfacet
  facet normal 0.587599 -0.809152 0
    outer loop
      vertex 22.8633 -12.2876 -8
      vertex 25.6535 -10.2614 -8
      vertex 22.8633 -12.2876 8
    endloop
  endfacet
  facet normal 0.346411 -0.938083 0
    outer loop
      vertex 29.4566 -8.85697 -8
      vertex 29.4566 -8.85697 8
      vertex 25.6535 -10.2614 8
    endloop
  endfacet
  facet normal 0.346411 -0.938083 0
    outer loop
      vertex 25.6535 -10.2614 -8
      vertex 29.4566 -8.85697 -8
      vertex 25.6535 -10.2614 8
    endloop
  endfacet
  facet normal 0.141688 -0.989911 0
    outer loop
      vertex 33.8604 -8.22664 -8
      vertex 33.8604 -8.22664 8
      vertex 29.4566 -8.85697 8
    endloop
  endfacet
  facet normal 0.141688 -0.989911 0
    outer loop
      vertex 29.4566 -8.85697 -8
      vertex 33.8604 -8.22664 -8
      vertex 29.4566 -8.85697 8
    endloop
  endfacet
  facet normal -0.0467839 -0.998905 0
    outer loop
      vertex 38.3877 -8.43868 -8
      vertex 38.3877 -8.43868 8
      vertex 33.8604 -8.22664 8
    endloop
  endfacet
  facet normal -0.0467839 -0.998905 0
    outer loop
      vertex 33.8604 -8.22664 -8
      vertex 38.3877 -8.43868 -8
      vertex 33.8604 -8.22664 8
    endloop
  endfacet
  facet normal -0.240642 -0.970614 0
    outer loop
      vertex 40 -8.83841 -8
      vertex 40 -8.83841 8
      vertex 38.3877 -8.43868 8
    endloop
  endfacet
  facet normal -0.240642 -0.970614 0
    outer loop
      vertex 38.3877 -8.43868 -8
      vertex 40 -8.83841 -8
      vertex 38.3877 -8.43868 8
    endloop
  endfacet
  facet normal 1 0 0
    outer loop
      vertex 40 -8.83841 8
      vertex 40 -8.83841 -8
      vertex 40 -1 -8
    endloop
  endfacet
  facet normal 1 0 0
    outer loop
      vertex 40 -1 8
      vertex 40 -8.83841 8
      vertex 40 -1 -8
    endloop
  endfacet
  facet normal 0 -1 0
    outer loop
      vertex 40 -1 8
      vertex 40 -1 -8
      vertex 115.5 -1 -8
    endloop
  endfacet
  facet normal 0 -1 0
    outer loop
      vertex 115.5 -1 8
      vertex 40 -1 8
      vertex 115.5 -1 -8
    endloop
  endfacet
  facet normal 1 0 0
    outer loop
      vertex 115.5 -1 8
      vertex 115.5 -1 -8
      vertex 115.5 1 -8
    endloop
  endfacet
  facet normal 1 0 0
    outer loop
      vertex 115.5 1 8
      vertex 115.5 -1 8
      vertex 115.5 1 -8
    endloop
  endfacet
  facet normal 0 1 0
    outer loop
      vertex 115 1 -8
      vertex 115 1 8
      vertex 115.5 1 -8
    endloop
  endfacet
  facet normal 0 1 0
    outer loop
      vertex 115.5 1 -8
      vertex 115 1 8
      vertex 115.5 1 8
    endloop
  endfacet
  facet normal 1 0 0
    outer loop
      vertex 115 1 8
      vertex 115 1 -8
      vertex 115 21 -8
    endloop
  endfacet
  facet normal 1 0 0
    outer loop
      vertex 115 21 8
      vertex 115 1 8
      vertex 115 21 -8
    endloop
  endfacet
  facet normal 0 1 0
    outer loop
      vertex 40 21 -8
      vertex 40 21 8
      vertex 115 21 -8
    endloop
  endfacet
  facet normal 0 1 0
    outer loop
      vertex 115 21 -8
      vertex 40 21 8
      vertex 115 21 8
    endloop
  endfacet
  facet normal 1 0 0
    outer loop
      vertex 40 21 8
      vertex 40 21 -8
      vertex 40 26 -8
    endloop
  endfacet
  facet normal 1 0 0
    outer loop
      vertex 40 26 8
      vertex 40 21 8
      vertex 40 26 -8
    endloop
  endfacet
  facet normal 0 1 0
    outer loop
      vertex 0 26 -8
      vertex 0 26 8
      vertex 40 26 -8
    endloop
  endfacet
  facet normal 0 1 0
    outer loop
      vertex 40 26 -8
      vertex 0 26 8
      vertex 40 26 8
    endloop
  endfacet
  facet normal -1 0 0
    outer loop
      vertex 0 25.8576 -8
      vertex 0 25.8576 8
      vertex 0 26 -8
    endloop
  endfacet
  facet normal -1 0 0
    outer loop
      vertex 0 26 -8
      vertex 0 25.8576 8
      vertex 0 26 8
    endloop
  endfacet
  facet normal 0 1 0
    outer loop
      vertex -2.71774 25.8576 -8
      vertex -2.71774 25.8576 8
      vertex 0 25.8576 -8
    endloop
  endfacet
  facet normal 0 1 0
    outer loop
      vertex 0 25.8576 -8
      vertex -2.71774 25.8576 8
      vertex 0 25.8576 8
    endloop
  endfacet
  facet normal -0.207912 0.978148 0
    outer loop
      vertex -8.03444 24.7275 -8
      vertex -8.03444 24.7275 8
      vertex -2.71774 25.8576 -8
    endloop
  endfacet
  facet normal -0.207912 0.978148 0
    outer loop
      vertex -2.71774 25.8576 -8
      vertex -8.03444 24.7275 8
      vertex -2.71774 25.8576 8
    endloop
  endfacet
  facet normal -0.406737 0.913545 0
    outer loop
      vertex -13 22.5167 -8
      vertex -13 22.5167 8
      vertex -8.03444 24.7275 -8
    endloop
  endfacet
  facet normal -0.406737 0.913545 0
    outer loop
      vertex -8.03444 24.7275 -8
      vertex -13 22.5167 8
      vertex -8.03444 24.7275 8
    endloop
  endfacet
  facet normal -0.587785 0.809017 0
    outer loop
      vertex -17.3974 19.3218 -8
      vertex -17.3974 19.3218 8
      vertex -13 22.5167 -8
    endloop
  endfacet
  facet normal -0.587785 0.809017 0
    outer loop
      vertex -13 22.5167 -8
      vertex -17.3974 19.3218 8
      vertex -13 22.5167 8
    endloop
  endfacet
  facet normal -0.743145 0.669131 0
    outer loop
      vertex -21.0344 15.2824 -8
      vertex -21.0344 15.2824 8
      vertex -17.3974 19.3218 -8
    endloop
  endfacet
  facet normal -0.743145 0.669131 0
    outer loop
      vertex -17.3974 19.3218 -8
      vertex -21.0344 15.2824 8
      vertex -17.3974 19.3218 8
    endloop
  endfacet
  facet normal -0.866025 0.5 0
    outer loop
      vertex -23.7522 10.5752 -8
      vertex -23.7522 10.5752 8
      vertex -21.0344 15.2824 -8
    endloop
  endfacet
  facet normal -0.866025 0.5 0
    outer loop
      vertex -21.0344 15.2824 -8
      vertex -23.7522 10.5752 8
      vertex -21.0344 15.2824 8
    endloop
  endfacet
  facet normal -0.951057 0.309017 0
    outer loop
      vertex -25.4318 5.4057 -8
      vertex -25.4318 5.4057 8
      vertex -23.7522 10.5752 -8
    endloop
  endfacet
  facet normal -0.951057 0.309017 0
    outer loop
      vertex -23.7522 10.5752 -8
      vertex -25.4318 5.4057 8
      vertex -23.7522 10.5752 8
    endloop
  endfacet
  facet normal 0.994522 -0.104528 0
    outer loop
      vertex -15.6504 3.32659 -8
      vertex -15.6504 3.32659 8
      vertex -16 0 8
    endloop
  endfacet
  facet normal 0.994522 -0.104528 0
    outer loop
      vertex -16 0 -8
      vertex -15.6504 3.32659 -8
      vertex -16 0 8
    endloop
  endfacet
  facet normal 0.994522 0.104528 0
    outer loop
      vertex -16 0 8
      vertex -15.6504 -3.32659 8
      vertex -15.6504 -3.32659 -8
    endloop
  endfacet
  facet normal 0.994522 0.104528 0
    outer loop
      vertex -16 0 -8
      vertex -16 0 8
      vertex -15.6504 -3.32659 -8
    endloop
  endfacet
  facet normal 0.951056 -0.309017 0
    outer loop
      vertex -14.6167 6.50779 -8
      vertex -14.6167 6.50779 8
      vertex -15.6504 3.32659 8
    endloop
  endfacet
  facet normal 0.951056 -0.309017 0
    outer loop
      vertex -15.6504 3.32659 -8
      vertex -14.6167 6.50779 -8
      vertex -15.6504 3.32659 8
    endloop
  endfacet
  facet normal 0.866025 -0.5 0
    outer loop
      vertex -12.9443 9.40456 -8
      vertex -12.9443 9.40456 8
      vertex -14.6167 6.50779 8
    endloop
  endfacet
  facet normal 0.866025 -0.5 0
    outer loop
      vertex -14.6167 6.50779 -8
      vertex -12.9443 9.40456 -8
      vertex -14.6167 6.50779 8
    endloop
  endfacet
  facet normal 0.743145 -0.669131 0
    outer loop
      vertex -10.7061 11.8903 -8
      vertex -10.7061 11.8903 8
      vertex -12.9443 9.40456 8
    endloop
  endfacet
  facet normal 0.743145 -0.669131 0
    outer loop
      vertex -12.9443 9.40456 -8
      vertex -10.7061 11.8903 -8
      vertex -12.9443 9.40456 8
    endloop
  endfacet
  facet normal 0.587785 -0.809017 0
    outer loop
      vertex -8 13.8564 -8
      vertex -8 13.8564 8
      vertex -10.7061 11.8903 8
    endloop
  endfacet
  facet normal 0.587785 -0.809017 0
    outer loop
      vertex -10.7061 11.8903 -8
      vertex -8 13.8564 -8
      vertex -10.7061 11.8903 8
    endloop
  endfacet
  facet normal 0.406737 -0.913545 0
    outer loop
      vertex -4.94427 15.2169 -8
      vertex -4.94427 15.2169 8
      vertex -8 13.8564 8
    endloop
  endfacet
  facet normal 0.406737 -0.913545 0
    outer loop
      vertex -8 13.8564 -8
      vertex -4.94427 15.2169 -8
      vertex -8 13.8564 8
    endloop
  endfacet
  facet normal 0.207912 -0.978148 0
    outer loop
      vertex -1.67246 15.9124 -8
      vertex -1.67246 15.9124 8
      vertex -4.94427 15.2169 8
    endloop
  endfacet
  facet normal 0.207912 -0.978148 0
    outer loop
      vertex -4.94427 15.2169 -8
      vertex -1.67246 15.9124 -8
      vertex -4.94427 15.2169 8
    endloop
  endfacet
  facet normal 0 -1 0
    outer loop
      vertex 1.67246 15.9124 -8
      vertex 1.67246 15.9124 8
      vertex -1.67246 15.9124 8
    endloop
  endfacet
  facet normal 0 -1 0
    outer loop
      vertex -1.67246 15.9124 -8
      vertex 1.67246 15.9124 -8
      vertex -1.67246 15.9124 8
    endloop
  endfacet
  facet normal -0.207912 -0.978148 0
    outer loop
      vertex 4.94427 15.2169 -8
      vertex 4.94427 15.2169 8
      vertex 1.67246 15.9124 8
    endloop
  endfacet
  facet normal -0.207912 -0.978148 0
    outer loop
      vertex 1.67246 15.9124 -8
      vertex 4.94427 15.2169 -8
      vertex 1.67246 15.9124 8
    endloop
  endfacet
  facet normal -0.406737 -0.913545 0
    outer loop
      vertex 8 13.8564 -8
      vertex 8 13.8564 8
      vertex 4.94427 15.2169 8
    endloop
  endfacet
  facet normal -0.406737 -0.913545 0
    outer loop
      vertex 4.94427 15.2169 -8
      vertex 8 13.8564 -8
      vertex 4.94427 15.2169 8
    endloop
  endfacet
  facet normal -0.587785 -0.809017 0
    outer loop
      vertex 10.7061 11.8903 -8
      vertex 10.7061 11.8903 8
      vertex 8 13.8564 8
    endloop
  endfacet
  facet normal -0.587785 -0.809017 0
    outer loop
      vertex 8 13.8564 -8
      vertex 10.7061 11.8903 -8
      vertex 8 13.8564 8
    endloop
  endfacet
  facet normal -0.743145 -0.669131 0
    outer loop
      vertex 12.9443 9.40456 8
      vertex 10.7061 11.8903 8
      vertex 12.9443 9.40456 -8
    endloop
  endfacet
  facet normal -0.743145 -0.669131 0
    outer loop
      vertex 12.9443 9.40456 -8
      vertex 10.7061 11.8903 8
      vertex 10.7061 11.8903 -8
    endloop
  endfacet
  facet normal -0.866025 -0.5 0
    outer loop
      vertex 14.6167 6.50779 8
      vertex 12.9443 9.40456 8
      vertex 14.6167 6.50779 -8
    endloop
  endfacet
  facet normal -0.866025 -0.5 0
    outer loop
      vertex 14.6167 6.50779 -8
      vertex 12.9443 9.40456 8
      vertex 12.9443 9.40456 -8
    endloop
  endfacet
  facet normal -0.951056 -0.309017 0
    outer loop
      vertex 15.6504 3.32659 8
      vertex 14.6167 6.50779 8
      vertex 15.6504 3.32659 -8
    endloop
  endfacet
  facet normal -0.951056 -0.309017 0
    outer loop
      vertex 15.6504 3.32659 -8
      vertex 14.6167 6.50779 8
      vertex 14.6167 6.50779 -8
    endloop
  endfacet
  facet normal -0.994522 -0.104528 0
    outer loop
      vertex 16 0 8
      vertex 15.6504 3.32659 8
      vertex 16 0 -8
    endloop
  endfacet
  facet normal -0.994522 -0.104528 0
    outer loop
      vertex 16 0 -8
      vertex 15.6504 3.32659 8
      vertex 15.6504 3.32659 -8
    endloop
  endfacet
  facet normal -0.994522 0.104528 0
    outer loop
      vertex 16 0 8
      vertex 16 0 -8
      vertex 15.6504 -3.32659 8
    endloop
  endfacet
  facet normal -0.994522 0.104528 0
    outer loop
      vertex 15.6504 -3.32659 8
      vertex 16 0 -8
      vertex 15.6504 -3.32659 -8
    endloop
  endfacet
  facet normal -0.951056 0.309017 0
    outer loop
      vertex 15.6504 -3.32659 8
      vertex 15.6504 -3.32659 -8
      vertex 14.6167 -6.50779 8
    endloop
  endfacet
  facet normal -0.951056 0.309017 0
    outer loop
      vertex 14.6167 -6.50779 8
      vertex 15.6504 -3.32659 -8
      vertex 14.6167 -6.50779 -8
    endloop
  endfacet
  facet normal -0.866025 0.5 0
    outer loop
      vertex 14.6167 -6.50779 8
      vertex 14.6167 -6.50779 -8
      vertex 12.9443 -9.40456 8
    endloop
  endfacet
  facet normal -0.866025 0.5 0
    outer loop
      vertex 12.9443 -9.40456 8
      vertex 14.6167 -6.50779 -8
      vertex 12.9443 -9.40456 -8
    endloop
  endfacet
  facet normal -0.743145 0.669131 0
    outer loop
      vertex 12.9443 -9.40456 8
      vertex 12.9443 -9.40456 -8
      vertex 10.7061 -11.8903 8
    endloop
  endfacet
  facet normal -0.743145 0.669131 0
    outer loop
      vertex 10.7061 -11.8903 8
      vertex 12.9443 -9.40456 -8
      vertex 10.7061 -11.8903 -8
    endloop
  endfacet
  facet normal -0.587785 0.809017 0
    outer loop
      vertex 10.7061 -11.8903 8
      vertex 10.7061 -11.8903 -8
      vertex 8 -13.8564 8
    endloop
  endfacet
  facet normal -0.587785 0.809017 0
    outer loop
      vertex 8 -13.8564 8
      vertex 10.7061 -11.8903 -8
      vertex 8 -13.8564 -8
    endloop
  endfacet
  facet normal -0.406737 0.913545 0
    outer loop
      vertex 8 -13.8564 8
      vertex 8 -13.8564 -8
      vertex 4.94427 -15.2169 8
    endloop
  endfacet
  facet normal -0.406737 0.913545 0
    outer loop
      vertex 4.94427 -15.2169 8
      vertex 8 -13.8564 -8
      vertex 4.94427 -15.2169 -8
    endloop
  endfacet
  facet normal -0.207912 0.978148 0
    outer loop
      vertex 4.94427 -15.2169 8
      vertex 4.94427 -15.2169 -8
      vertex 1.67246 -15.9124 8
    endloop
  endfacet
  facet normal -0.207912 0.978148 0
    outer loop
      vertex 1.67246 -15.9124 8
      vertex 4.94427 -15.2169 -8
      vertex 1.67246 -15.9124 -8
    endloop
  endfacet
  facet normal 0 1 0
    outer loop
      vertex 1.67246 -15.9124 8
      vertex 1.67246 -15.9124 -8
      vertex -1.67246 -15.9124 8
    endloop
  endfacet
  facet normal 0 1 0
    outer loop
      vertex -1.67246 -15.9124 8
      vertex 1.67246 -15.9124 -8
      vertex -1.67246 -15.9124 -8
    endloop
  endfacet
  facet normal 0.207912 0.978148 0
    outer loop
      vertex -1.67246 -15.9124 8
      vertex -1.67246 -15.9124 -8
      vertex -4.94427 -15.2169 8
    endloop
  endfacet
  facet normal 0.207912 0.978148 0
    outer loop
      vertex -4.94427 -15.2169 8
      vertex -1.67246 -15.9124 -8
      vertex -4.94427 -15.2169 -8
    endloop
  endfacet
  facet normal 0.406737 0.913545 0
    outer loop
      vertex -4.94427 -15.2169 8
      vertex -4.94427 -15.2169 -8
      vertex -8 -13.8564 8
    endloop
  endfacet
  facet normal 0.406737 0.913545 0
    outer loop
      vertex -8 -13.8564 8
      vertex -4.94427 -15.2169 -8
      vertex -8 -13.8564 -8
    endloop
  endfacet
  facet normal 0.587785 0.809017 0
    outer loop
      vertex -8 -13.8564 8
      vertex -8 -13.8564 -8
      vertex -10.7061 -11.8903 8
    endloop
  endfacet
  facet normal 0.587785 0.809017 0
    outer loop
      vertex -10.7061 -11.8903 8
      vertex -8 -13.8564 -8
      vertex -10.7061 -11.8903 -8
    endloop
  endfacet
  facet normal 0.743145 0.669131 0
    outer loop
      vertex -12.9443 -9.40456 8
      vertex -10.7061 -11.8903 8
      vertex -10.7061 -11.8903 -8
    endloop
  endfacet
  facet normal 0.743145 0.669131 0
    outer loop
      vertex -12.9443 -9.40456 -8
      vertex -12.9443 -9.40456 8
      vertex -10.7061 -11.8903 -8
    endloop
  endfacet
  facet normal 0.866025 0.5 0
    outer loop
      vertex -14.6167 -6.50779 8
      vertex -12.9443 -9.40456 8
      vertex -12.9443 -9.40456 -8
    endloop
  endfacet
  facet normal 0.866025 0.5 0
    outer loop
      vertex -14.6167 -6.50779 -8
      vertex -14.6167 -6.50779 8
      vertex -12.9443 -9.40456 -8
    endloop
  endfacet
  facet normal 0.951056 0.309017 0
    outer loop
      vertex -15.6504 -3.32659 8
      vertex -14.6167 -6.50779 8
      vertex -14.6167 -6.50779 -8
    endloop
  endfacet
  facet normal 0.951056 0.309017 0
    outer loop
      vertex -15.6504 -3.32659 -8
      vertex -15.6504 -3.32659 8
      vertex -14.6167 -6.50779 -8
    endloop
  endfacet
  facet normal 0.992709 -0.120536 0
    outer loop
      vertex 20.2325 17.9145 -8
      vertex 20.2325 17.9145 8
      vertex 20 16 8
    endloop
  endfacet
  facet normal 0.992709 -0.120536 0
    outer loop
      vertex 20 16 -8
      vertex 20.2325 17.9145 -8
      vertex 20 16 8
    endloop
  endfacet
  facet normal 0.992709 0.120536 0
    outer loop
      vertex 20 16 8
      vertex 20.2325 14.0855 8
      vertex 20.2325 14.0855 -8
    endloop
  endfacet
  facet normal 0.992709 0.120536 0
    outer loop
      vertex 20 16 -8
      vertex 20 16 8
      vertex 20.2325 14.0855 -8
    endloop
  endfacet
  facet normal 0.935016 -0.354605 0
    outer loop
      vertex 20.9164 19.7178 -8
      vertex 20.9164 19.7178 8
      vertex 20.2325 17.9145 8
    endloop
  endfacet
  facet normal 0.935016 -0.354605 0
    outer loop
      vertex 20.2325 17.9145 -8
      vertex 20.9164 19.7178 -8
      vertex 20.2325 17.9145 8
    endloop
  endfacet
  facet normal 0.822984 -0.568065 0
    outer loop
      vertex 22.0119 21.305 -8
      vertex 22.0119 21.305 8
      vertex 20.9164 19.7178 8
    endloop
  endfacet
  facet normal 0.822984 -0.568065 0
    outer loop
      vertex 20.9164 19.7178 -8
      vertex 22.0119 21.305 -8
      vertex 20.9164 19.7178 8
    endloop
  endfacet
  facet normal 0.663123 -0.748511 0
    outer loop
      vertex 23.4555 22.5839 -8
      vertex 23.4555 22.5839 8
      vertex 22.0119 21.305 8
    endloop
  endfacet
  facet normal 0.663123 -0.748511 0
    outer loop
      vertex 22.0119 21.305 -8
      vertex 23.4555 22.5839 -8
      vertex 22.0119 21.305 8
    endloop
  endfacet
  facet normal 0.464723 -0.885456 0
    outer loop
      vertex 25.1632 23.4801 -8
      vertex 25.1632 23.4801 8
      vertex 23.4555 22.5839 8
    endloop
  endfacet
  facet normal 0.464723 -0.885456 0
    outer loop
      vertex 23.4555 22.5839 -8
      vertex 25.1632 23.4801 -8
      vertex 23.4555 22.5839 8
    endloop
  endfacet
  facet normal 0.239316 -0.970942 0
    outer loop
      vertex 27.0357 23.9417 -8
      vertex 27.0357 23.9417 8
      vertex 25.1632 23.4801 8
    endloop
  endfacet
  facet normal 0.239316 -0.970942 0
    outer loop
      vertex 25.1632 23.4801 -8
      vertex 27.0357 23.9417 -8
      vertex 25.1632 23.4801 8
    endloop
  endfacet
  facet normal 0 -1 0
    outer loop
      vertex 28.9643 23.9417 -8
      vertex 28.9643 23.9417 8
      vertex 27.0357 23.9417 8
    endloop
  endfacet
  facet normal 0 -1 0
    outer loop
      vertex 27.0357 23.9417 -8
      vertex 28.9643 23.9417 -8
      vertex 27.0357 23.9417 8
    endloop
  endfacet
  facet normal -0.239316 -0.970942 0
    outer loop
      vertex 30.8368 23.4801 -8
      vertex 30.8368 23.4801 8
      vertex 28.9643 23.9417 8
    endloop
  endfacet
  facet normal -0.239316 -0.970942 0
    outer loop
      vertex 28.9643 23.9417 -8
      vertex 30.8368 23.4801 -8
      vertex 28.9643 23.9417 8
    endloop
  endfacet
  facet normal -0.464723 -0.885456 0
    outer loop
      vertex 32.5445 22.5839 -8
      vertex 32.5445 22.5839 8
      vertex 30.8368 23.4801 8
    endloop
  endfacet
  facet normal -0.464723 -0.885456 0
    outer loop
      vertex 30.8368 23.4801 -8
      vertex 32.5445 22.5839 -8
      vertex 30.8368 23.4801 8
    endloop
  endfacet
  facet normal -0.663123 -0.748511 0
    outer loop
      vertex 33.9881 21.305 -8
      vertex 33.9881 21.305 8
      vertex 32.5445 22.5839 8
    endloop
  endfacet
  facet normal -0.663123 -0.748511 0
    outer loop
      vertex 32.5445 22.5839 -8
      vertex 33.9881 21.305 -8
      vertex 32.5445 22.5839 8
    endloop
  endfacet
  facet normal -0.822984 -0.568065 0
    outer loop
      vertex 35 19.839 8
      vertex 33.9881 21.305 8
      vertex 35 19.839 -8
    endloop
  endfacet
  facet normal -0.822984 -0.568065 0
    outer loop
      vertex 35 19.839 -8
      vertex 33.9881 21.305 8
      vertex 33.9881 21.305 -8
    endloop
  endfacet
  facet normal -1 0 0
    outer loop
      vertex 35 19 -8
      vertex 35 19 8
      vertex 35 19.839 -8
    endloop
  endfacet
  facet normal -1 0 0
    outer loop
      vertex 35 19.839 -8
      vertex 35 19 8
      vertex 35 19.839 8
    endloop
  endfacet
  facet normal 0 -1 0
    outer loop
      vertex 35 19 8
      vertex 35 19 -8
      vertex 35.3559 19 -8
    endloop
  endfacet
  facet normal 0 -1 0
    outer loop
      vertex 35.3559 19 8
      vertex 35 19 8
      vertex 35.3559 19 -8
    endloop
  endfacet
  facet normal -0.935016 -0.354605 0
    outer loop
      vertex 35.7675 17.9145 8
      vertex 35.3559 19 8
      vertex 35.7675 17.9145 -8
    endloop
  endfacet
  facet normal -0.935016 -0.354605 0
    outer loop
      vertex 35.7675 17.9145 -8
      vertex 35.3559 19 8
      vertex 35.3559 19 -8
    endloop
  endfacet
  facet normal -0.992709 -0.120536 0
    outer loop
      vertex 36 16 8
      vertex 35.7675 17.9145 8
      vertex 36 16 -8
    endloop
  endfacet
  facet normal -0.992709 -0.120536 0
    outer loop
      vertex 36 16 -8
      vertex 35.7675 17.9145 8
      vertex 35.7675 17.9145 -8
    endloop
  endfacet
  facet normal -0.992709 0.120536 0
    outer loop
      vertex 36 16 8
      vertex 36 16 -8
      vertex 35.7675 14.0855 8
    endloop
  endfacet
  facet normal -0.992709 0.120536 0
    outer loop
      vertex 35.7675 14.0855 8
      vertex 36 16 -8
      vertex 35.7675 14.0855 -8
    endloop
  endfacet
  facet normal -0.935016 0.354605 0
    outer loop
      vertex 35.7675 14.0855 8
      vertex 35.7675 14.0855 -8
      vertex 35.0836 12.2822 8
    endloop
  endfacet
  facet normal -0.935016 0.354605 0
    outer loop
      vertex 35.0836 12.2822 8
      vertex 35.7675 14.0855 -8
      vertex 35.0836 12.2822 -8
    endloop
  endfacet
  facet normal -0.822984 0.568065 0
    outer loop
      vertex 35.0836 12.2822 8
      vertex 35.0836 12.2822 -8
      vertex 33.9881 10.695 8
    endloop
  endfacet
  facet normal -0.822984 0.568065 0
    outer loop
      vertex 33.9881 10.695 8
      vertex 35.0836 12.2822 -8
      vertex 33.9881 10.695 -8
    endloop
  endfacet
  facet normal -0.663123 0.748511 0
    outer loop
      vertex 33.9881 10.695 8
      vertex 33.9881 10.695 -8
      vertex 32.5445 9.41613 8
    endloop
  endfacet
  facet normal -0.663123 0.748511 0
    outer loop
      vertex 32.5445 9.41613 8
      vertex 33.9881 10.695 -8
      vertex 32.5445 9.41613 -8
    endloop
  endfacet
  facet normal -0.464723 0.885456 0
    outer loop
      vertex 32.5445 9.41613 8
      vertex 32.5445 9.41613 -8
      vertex 30.8368 8.51987 8
    endloop
  endfacet
  facet normal -0.464723 0.885456 0
    outer loop
      vertex 30.8368 8.51987 8
      vertex 32.5445 9.41613 -8
      vertex 30.8368 8.51987 -8
    endloop
  endfacet
  facet normal -0.239316 0.970942 0
    outer loop
      vertex 30.8368 8.51987 8
      vertex 30.8368 8.51987 -8
      vertex 28.9643 8.05833 8
    endloop
  endfacet
  facet normal -0.239316 0.970942 0
    outer loop
      vertex 28.9643 8.05833 8
      vertex 30.8368 8.51987 -8
      vertex 28.9643 8.05833 -8
    endloop
  endfacet
  facet normal 0 1 0
    outer loop
      vertex 28.9643 8.05833 8
      vertex 28.9643 8.05833 -8
      vertex 27.0357 8.05833 8
    endloop
  endfacet
  facet normal 0 1 0
    outer loop
      vertex 27.0357 8.05833 8
      vertex 28.9643 8.05833 -8
      vertex 27.0357 8.05833 -8
    endloop
  endfacet
  facet normal 0.239316 0.970942 0
    outer loop
      vertex 27.0357 8.05833 8
      vertex 27.0357 8.05833 -8
      vertex 25.1632 8.51987 8
    endloop
  endfacet
  facet normal 0.239316 0.970942 0
    outer loop
      vertex 25.1632 8.51987 8
      vertex 27.0357 8.05833 -8
      vertex 25.1632 8.51987 -8
    endloop
  endfacet
  facet normal 0.464723 0.885456 0
    outer loop
      vertex 25.1632 8.51987 8
      vertex 25.1632 8.51987 -8
      vertex 23.4555 9.41613 8
    endloop
  endfacet
  facet normal 0.464723 0.885456 0
    outer loop
      vertex 23.4555 9.41613 8
      vertex 25.1632 8.51987 -8
      vertex 23.4555 9.41613 -8
    endloop
  endfacet
  facet normal 0.663123 0.748511 0
    outer loop
      vertex 23.4555 9.41613 8
      vertex 23.4555 9.41613 -8
      vertex 22.0119 10.695 8
    endloop
  endfacet
  facet normal 0.663123 0.748511 0
    outer loop
      vertex 22.0119 10.695 8
      vertex 23.4555 9.41613 -8
      vertex 22.0119 10.695 -8
    endloop
  endfacet
  facet normal 0.822984 0.568065 0
    outer loop
      vertex 20.9164 12.2822 8
      vertex 22.0119 10.695 8
      vertex 22.0119 10.695 -8
    endloop
  endfacet
  facet normal 0.822984 0.568065 0
    outer loop
      vertex 20.9164 12.2822 -8
      vertex 20.9164 12.2822 8
      vertex 22.0119 10.695 -8
    endloop
  endfacet
  facet normal 0.935016 0.354605 0
    outer loop
      vertex 20.2325 14.0855 8
      vertex 20.9164 12.2822 8
      vertex 20.9164 12.2822 -8
    endloop
  endfacet
  facet normal 0.935016 0.354605 0
    outer loop
      vertex 20.2325 14.0855 -8
      vertex 20.2325 14.0855 8
      vertex 20.9164 12.2822 -8
    endloop
  endfacet
  facet normal 1 0 0
    outer loop
      vertex 40 1 8
      vertex 40 1 -8
      vertex 40 19 -8
    endloop
  endfacet
  facet normal 1 0 0
    outer loop
      vertex 40 19 8
      vertex 40 1 8
      vertex 40 19 -8
    endloop
  endfacet
  facet normal 0 -1 0
    outer loop
      vertex 40 19 8
      vertex 40 19 -8
      vertex 113 19 -8
    endloop
  endfacet
  facet normal 0 -1 0
    outer loop
      vertex 113 19 8
      vertex 40 19 8
      vertex 113 19 -8
    endloop
  endfacet
  facet normal -1 0 0
    outer loop
      vertex 113 1 -8
      vertex 113 1 8
      vertex 113 19 -8
    endloop
  endfacet
  facet normal -1 0 0
    outer loop
      vertex 113 19 -8
      vertex 113 1 8
      vertex 113 19 8
    endloop
  endfacet
  facet normal 0 1 0
    outer loop
      vertex 40 1 -8
      vertex 40 1 8
      vertex 113 1 -8
    endloop
  endfacet
  facet normal 0 1 0
    outer loop
      vertex 113 1 -8
      vertex 40 1 8
      vertex 113 1 8
    endloop
  endfacet
  facet normal 0 0 1
    outer loop
      vertex -25.4318 5.4057 8
      vertex -26 0 8
      vertex -25.4318 -5.4057 8
    endloop
  endfacet
  facet normal 0 0 1
    outer loop
      vertex -21.0344 -15.2824 8
      vertex -25.4318 5.4057 8
      vertex -23.7522 -10.5752 8
    endloop
  endfacet
  facet normal 0 0 1
    outer loop
      vertex -23.7522 -10.5752 8
      vertex -25.4318 5.4057 8
      vertex -25.4318 -5.4057 8
    endloop
  endfacet
  facet normal 0 0 1
    outer loop
      vertex -17.3974 -19.3218 8
      vertex -25.4318 5.4057 8
      vertex -21.0344 -15.2824 8
    endloop
  endfacet
  facet normal 0 0 1
    outer loop
      vertex -13 -22.5167 8
      vertex -25.4318 5.4057 8
      vertex -17.3974 -19.3218 8
    endloop
  endfacet
  facet normal 0 0 1
    outer loop
      vertex -8.03444 -24.7275 8
      vertex -25.4318 5.4057 8
      vertex -13 -22.5167 8
    endloop
  endfacet
  facet normal 0 0 1
    outer loop
      vertex -2.71774 -25.8576 8
      vertex -25.4318 5.4057 8
      vertex -8.03444 -24.7275 8
    endloop
  endfacet
  facet normal 0 0 1
    outer loop
      vertex 0 -25.8576 8
      vertex -25.4318 5.4057 8
      vertex -2.71774 -25.8576 8
    endloop
  endfacet
  facet normal 0 0 1
    outer loop
      vertex -12.9443 -9.40456 8
      vertex -25.4318 5.4057 8
      vertex 0 -25.8576 8
    endloop
  endfacet
  facet normal 0 0 1
    outer loop
      vertex 40 -26 8
      vertex 0 -25.8576 8
      vertex 0 -26 8
    endloop
  endfacet
  facet normal 0 0 1
    outer loop
      vertex 40 -23.1616 8
      vertex 38.3877 -23.5613 8
      vertex 40 -26 8
    endloop
  endfacet
  facet normal 0 0 1
    outer loop
      vertex 8 13.8564 8
      vertex 10.7061 11.8903 8
      vertex 20 16 8
    endloop
  endfacet
  facet normal 0 0 1
    outer loop
      vertex 40 -26 8
      vertex 33.8604 -23.7734 8
      vertex 0 -25.8576 8
    endloop
  endfacet
  facet normal 0 0 1
    outer loop
      vertex 33.8604 -23.7734 8
      vertex 29.4566 -23.143 8
      vertex 0 -25.8576 8
    endloop
  endfacet
  facet normal 0 0 1
    outer loop
      vertex 29.4566 -23.143 8
      vertex 25.6535 -21.7386 8
      vertex 0 -25.8576 8
    endloop
  endfacet
  facet normal 0 0 1
    outer loop
      vertex -14.6167 6.50779 8
      vertex -12.9443 9.40456 8
      vertex -25.4318 5.4057 8
    endloop
  endfacet
  facet normal 0 0 1
    outer loop
      vertex 40 1 8
      vertex 35.7675 17.9145 8
      vertex 36 16 8
    endloop
  endfacet
  facet normal 0 0 1
    outer loop
      vertex -15.6504 3.32659 8
      vertex -14.6167 6.50779 8
      vertex -25.4318 5.4057 8
    endloop
  endfacet
  facet normal 0 0 1
    outer loop
      vertex 15.6504 -3.32659 8
      vertex 33.8604 -8.22664 8
      vertex 38.3877 -8.43868 8
    endloop
  endfacet
  facet normal 0 0 1
    outer loop
      vertex 15.6504 3.32659 8
      vertex 16 0 8
      vertex 40 -1 8
    endloop
  endfacet
  facet normal 0 0 1
    outer loop
      vertex 40 -1 8
      vertex 38.3877 -8.43868 8
      vertex 40 -8.83841 8
    endloop
  endfacet
  facet normal 0 0 1
    outer loop
      vertex 20.9164 19.7178 8
      vertex 1.67246 15.9124 8
      vertex 4.94427 15.2169 8
    endloop
  endfacet
  facet normal 0 0 1
    outer loop
      vertex 115.5 1 8
      vertex 115 1 8
      vertex 115.5 -1 8
    endloop
  endfacet
  facet normal 0 0 1
    outer loop
      vertex 20.9164 12.2822 8
      vertex 20.2325 14.0855 8
      vertex 10.7061 11.8903 8
    endloop
  endfacet
  facet normal 0 0 1
    outer loop
      vertex 40 1 8
      vertex 35.7675 14.0855 8
      vertex 35.0836 12.2822 8
    endloop
  endfacet
  facet normal 0 0 1
    outer loop
      vertex 10.7061 11.8903 8
      vertex 12.9443 9.40456 8
      vertex 22.0119 10.695 8
    endloop
  endfacet
  facet normal 0 0 1
    outer loop
      vertex 14.6167 -6.50779 8
      vertex 12.9443 -9.40456 8
      vertex 22.8633 -12.2876 8
    endloop
  endfacet
  facet normal 0 0 1
    outer loop
      vertex 0 26 8
      vertex 0 25.8576 8
      vertex 40 26 8
    endloop
  endfacet
  facet normal 0 0 1
    outer loop
      vertex 14.6167 -6.50779 8
      vertex 22.8633 -12.2876 8
      vertex 25.6535 -10.2614 8
    endloop
  endfacet
  facet normal 0 0 1
    outer loop
      vertex -8.03444 24.7275 8
      vertex -25.4318 5.4057 8
      vertex -2.71774 25.8576 8
    endloop
  endfacet
  facet normal 0 0 1
    outer loop
      vertex -13 22.5167 8
      vertex -25.4318 5.4057 8
      vertex -8.03444 24.7275 8
    endloop
  endfacet
  facet normal 0 0 1
    outer loop
      vertex -17.3974 19.3218 8
      vertex -25.4318 5.4057 8
      vertex -13 22.5167 8
    endloop
  endfacet
  facet normal 0 0 1
    outer loop
      vertex -21.0344 15.2824 8
      vertex -25.4318 5.4057 8
      vertex -17.3974 19.3218 8
    endloop
  endfacet
  facet normal 0 0 1
    outer loop
      vertex -23.7522 10.5752 8
      vertex -25.4318 5.4057 8
      vertex -21.0344 15.2824 8
    endloop
  endfacet
  facet normal 0 0 1
    outer loop
      vertex -12.9443 -9.40456 8
      vertex -14.6167 -6.50779 8
      vertex -25.4318 5.4057 8
    endloop
  endfacet
  facet normal 0 0 1
    outer loop
      vertex -16 0 8
      vertex -25.4318 5.4057 8
      vertex -15.6504 -3.32659 8
    endloop
  endfacet
  facet normal 0 0 1
    outer loop
      vertex 40 1 8
      vertex 40 19 8
      vertex 35.7675 17.9145 8
    endloop
  endfacet
  facet normal 0 0 1
    outer loop
      vertex 10.7061 -11.8903 8
      vertex 8 -13.8564 8
      vertex 25.6535 -21.7386 8
    endloop
  endfacet
  facet normal 0 0 1
    outer loop
      vertex 10.7061 -11.8903 8
      vertex 22.8633 -19.7124 8
      vertex 21.3882 -17.2838 8
    endloop
  endfacet
  facet normal 0 0 1
    outer loop
      vertex 40 1 8
      vertex 36 16 8
      vertex 35.7675 14.0855 8
    endloop
  endfacet
  facet normal 0 0 1
    outer loop
      vertex 0 25.8576 8
      vertex -25.4318 5.4057 8
      vertex -12.9443 9.40456 8
    endloop
  endfacet
  facet normal 0 0 1
    outer loop
      vertex 40 1 8
      vertex 28.9643 8.05833 8
      vertex 14.6167 6.50779 8
    endloop
  endfacet
  facet normal 0 0 1
    outer loop
      vertex 0 25.8576 8
      vertex -12.9443 9.40456 8
      vertex -10.7061 11.8903 8
    endloop
  endfacet
  facet normal 0 0 1
    outer loop
      vertex 22.0119 21.305 8
      vertex 23.4555 22.5839 8
      vertex -4.94427 15.2169 8
    endloop
  endfacet
  facet normal 0 0 1
    outer loop
      vertex 0 25.8576 8
      vertex -10.7061 11.8903 8
      vertex -8 13.8564 8
    endloop
  endfacet
  facet normal 0 0 1
    outer loop
      vertex 0 25.8576 8
      vertex -8 13.8564 8
      vertex -4.94427 15.2169 8
    endloop
  endfacet
  facet normal 0 0 1
    outer loop
      vertex 27.0357 23.9417 8
      vertex 28.9643 23.9417 8
      vertex 40 26 8
    endloop
  endfacet
  facet normal 0 0 1
    outer loop
      vertex 33.9881 21.305 8
      vertex 35 19.839 8
      vertex 40 21 8
    endloop
  endfacet
  facet normal 0 0 1
    outer loop
      vertex -1.67246 15.9124 8
      vertex 1.67246 15.9124 8
      vertex 22.0119 21.305 8
    endloop
  endfacet
  facet normal 0 0 1
    outer loop
      vertex 20.2325 14.0855 8
      vertex 20 16 8
      vertex 10.7061 11.8903 8
    endloop
  endfacet
  facet normal 0 0 1
    outer loop
      vertex 40 1 8
      vertex 32.5445 9.41613 8
      vertex 30.8368 8.51987 8
    endloop
  endfacet
  facet normal 0 0 1
    outer loop
      vertex 40 1 8
      vertex 15.6504 3.32659 8
      vertex 40 -1 8
    endloop
  endfacet
  facet normal 0 0 1
    outer loop
      vertex 40 -1 8
      vertex 16 0 8
      vertex 38.3877 -8.43868 8
    endloop
  endfacet
  facet normal 0 0 1
    outer loop
      vertex 16 0 8
      vertex 15.6504 -3.32659 8
      vertex 38.3877 -8.43868 8
    endloop
  endfacet
  facet normal 0 0 1
    outer loop
      vertex 29.4566 -8.85697 8
      vertex 14.6167 -6.50779 8
      vertex 25.6535 -10.2614 8
    endloop
  endfacet
  facet normal 0 0 1
    outer loop
      vertex 15.6504 -3.32659 8
      vertex 29.4566 -8.85697 8
      vertex 33.8604 -8.22664 8
    endloop
  endfacet
  facet normal 0 0 1
    outer loop
      vertex 22.8633 -12.2876 8
      vertex 12.9443 -9.40456 8
      vertex 21.3882 -14.7162 8
    endloop
  endfacet
  facet normal 0 0 1
    outer loop
      vertex 20.9164 19.7178 8
      vertex 22.0119 21.305 8
      vertex 1.67246 15.9124 8
    endloop
  endfacet
  facet normal 0 0 1
    outer loop
      vertex 21.3882 -17.2838 8
      vertex 21.3882 -14.7162 8
      vertex 10.7061 -11.8903 8
    endloop
  endfacet
  facet normal 0 0 1
    outer loop
      vertex 15.6504 -3.32659 8
      vertex 14.6167 -6.50779 8
      vertex 29.4566 -8.85697 8
    endloop
  endfacet
  facet normal 0 0 1
    outer loop
      vertex -8 -13.8564 8
      vertex -10.7061 -11.8903 8
      vertex 0 -25.8576 8
    endloop
  endfacet
  facet normal 0 0 1
    outer loop
      vertex 25.6535 -21.7386 8
      vertex 4.94427 -15.2169 8
      vertex 0 -25.8576 8
    endloop
  endfacet
  facet normal 0 0 1
    outer loop
      vertex 4.94427 -15.2169 8
      vertex 1.67246 -15.9124 8
      vertex 0 -25.8576 8
    endloop
  endfacet
  facet normal 0 0 1
    outer loop
      vertex 1.67246 -15.9124 8
      vertex -1.67246 -15.9124 8
      vertex 0 -25.8576 8
    endloop
  endfacet
  facet normal 0 0 1
    outer loop
      vertex -1.67246 -15.9124 8
      vertex -4.94427 -15.2169 8
      vertex 0 -25.8576 8
    endloop
  endfacet
  facet normal 0 0 1
    outer loop
      vertex -4.94427 -15.2169 8
      vertex -8 -13.8564 8
      vertex 0 -25.8576 8
    endloop
  endfacet
  facet normal 0 0 1
    outer loop
      vertex -10.7061 -11.8903 8
      vertex -12.9443 -9.40456 8
      vertex 0 -25.8576 8
    endloop
  endfacet
  facet normal 0 0 1
    outer loop
      vertex -15.6504 -3.32659 8
      vertex -25.4318 5.4057 8
      vertex -14.6167 -6.50779 8
    endloop
  endfacet
  facet normal 0 0 1
    outer loop
      vertex 40 1 8
      vertex 30.8368 8.51987 8
      vertex 28.9643 8.05833 8
    endloop
  endfacet
  facet normal 0 0 1
    outer loop
      vertex 35 19.839 8
      vertex 35 19 8
      vertex 40 21 8
    endloop
  endfacet
  facet normal 0 0 1
    outer loop
      vertex 28.9643 23.9417 8
      vertex 30.8368 23.4801 8
      vertex 40 26 8
    endloop
  endfacet
  facet normal 0 0 1
    outer loop
      vertex 30.8368 23.4801 8
      vertex 32.5445 22.5839 8
      vertex 40 26 8
    endloop
  endfacet
  facet normal 0 0 1
    outer loop
      vertex 0 25.8576 8
      vertex -4.94427 15.2169 8
      vertex 23.4555 22.5839 8
    endloop
  endfacet
  facet normal 0 0 1
    outer loop
      vertex 0 25.8576 8
      vertex 23.4555 22.5839 8
      vertex 25.1632 23.4801 8
    endloop
  endfacet
  facet normal 0 0 1
    outer loop
      vertex 0 25.8576 8
      vertex 27.0357 23.9417 8
      vertex 40 26 8
    endloop
  endfacet
  facet normal 0 0 1
    outer loop
      vertex 0 25.8576 8
      vertex 25.1632 23.4801 8
      vertex 27.0357 23.9417 8
    endloop
  endfacet
  facet normal 0 0 1
    outer loop
      vertex 22.0119 21.305 8
      vertex -4.94427 15.2169 8
      vertex -1.67246 15.9124 8
    endloop
  endfacet
  facet normal 0 0 1
    outer loop
      vertex 4.94427 15.2169 8
      vertex 8 13.8564 8
      vertex 20.9164 19.7178 8
    endloop
  endfacet
  facet normal 0 0 1
    outer loop
      vertex 40 26 8
      vertex 32.5445 22.5839 8
      vertex 40 21 8
    endloop
  endfacet
  facet normal 0 0 1
    outer loop
      vertex 32.5445 22.5839 8
      vertex 33.9881 21.305 8
      vertex 40 21 8
    endloop
  endfacet
  facet normal 0 0 1
    outer loop
      vertex 20.2325 17.9145 8
      vertex 20.9164 19.7178 8
      vertex 8 13.8564 8
    endloop
  endfacet
  facet normal 0 0 1
    outer loop
      vertex 40 21 8
      vertex 35 19 8
      vertex 115 21 8
    endloop
  endfacet
  facet normal 0 0 1
    outer loop
      vertex 35 19 8
      vertex 35.3559 19 8
      vertex 115 21 8
    endloop
  endfacet
  facet normal 0 0 1
    outer loop
      vertex 113 19 8
      vertex 113 1 8
      vertex 115 1 8
    endloop
  endfacet
  facet normal 0 0 1
    outer loop
      vertex 40 1 8
      vertex 33.9881 10.695 8
      vertex 32.5445 9.41613 8
    endloop
  endfacet
  facet normal 0 0 1
    outer loop
      vertex 0 25.8576 8
      vertex -2.71774 25.8576 8
      vertex -25.4318 5.4057 8
    endloop
  endfacet
  facet normal 0 0 1
    outer loop
      vertex 10.7061 -11.8903 8
      vertex 25.6535 -21.7386 8
      vertex 22.8633 -19.7124 8
    endloop
  endfacet
  facet normal 0 0 1
    outer loop
      vertex 23.4555 9.41613 8
      vertex 22.0119 10.695 8
      vertex 12.9443 9.40456 8
    endloop
  endfacet
  facet normal 0 0 1
    outer loop
      vertex 27.0357 8.05833 8
      vertex 14.6167 6.50779 8
      vertex 28.9643 8.05833 8
    endloop
  endfacet
  facet normal 0 0 1
    outer loop
      vertex 12.9443 9.40456 8
      vertex 14.6167 6.50779 8
      vertex 27.0357 8.05833 8
    endloop
  endfacet
  facet normal 0 0 1
    outer loop
      vertex 12.9443 -9.40456 8
      vertex 10.7061 -11.8903 8
      vertex 21.3882 -14.7162 8
    endloop
  endfacet
  facet normal 0 0 1
    outer loop
      vertex 113 1 8
      vertex 40 1 8
      vertex 115.5 -1 8
    endloop
  endfacet
  facet normal 0 0 1
    outer loop
      vertex 22.0119 10.695 8
      vertex 20.9164 12.2822 8
      vertex 10.7061 11.8903 8
    endloop
  endfacet
  facet normal 0 0 1
    outer loop
      vertex 40 1 8
      vertex 35.0836 12.2822 8
      vertex 33.9881 10.695 8
    endloop
  endfacet
  facet normal 0 0 1
    outer loop
      vertex 20 16 8
      vertex 20.2325 17.9145 8
      vertex 8 13.8564 8
    endloop
  endfacet
  facet normal 0 0 1
    outer loop
      vertex 40 1 8
      vertex 14.6167 6.50779 8
      vertex 15.6504 3.32659 8
    endloop
  endfacet
  facet normal 0 0 1
    outer loop
      vertex 115.5 -1 8
      vertex 40 1 8
      vertex 40 -1 8
    endloop
  endfacet
  facet normal 0 0 1
    outer loop
      vertex 40 19 8
      vertex 113 19 8
      vertex 115 21 8
    endloop
  endfacet
  facet normal 0 0 1
    outer loop
      vertex 35.3559 19 8
      vertex 40 19 8
      vertex 115 21 8
    endloop
  endfacet
  facet normal 0 0 1
    outer loop
      vertex 35.3559 19 8
      vertex 35.7675 17.9145 8
      vertex 40 19 8
    endloop
  endfacet
  facet normal 0 0 1
    outer loop
      vertex 115 1 8
      vertex 113 1 8
      vertex 115.5 -1 8
    endloop
  endfacet
  facet normal 0 0 1
    outer loop
      vertex 38.3877 -23.5613 8
      vertex 33.8604 -23.7734 8
      vertex 40 -26 8
    endloop
  endfacet
  facet normal 0 0 1
    outer loop
      vertex 27.0357 8.05833 8
      vertex 25.1632 8.51987 8
      vertex 12.9443 9.40456 8
    endloop
  endfacet
  facet normal 0 0 1
    outer loop
      vertex 25.1632 8.51987 8
      vertex 23.4555 9.41613 8
      vertex 12.9443 9.40456 8
    endloop
  endfacet
  facet normal 0 0 1
    outer loop
      vertex 115 1 8
      vertex 115 21 8
      vertex 113 19 8
    endloop
  endfacet
  facet normal 0 0 1
    outer loop
      vertex 8 -13.8564 8
      vertex 4.94427 -15.2169 8
      vertex 25.6535 -21.7386 8
    endloop
  endfacet
  facet normal 0 0 1
    outer loop
      vertex -16 0 8
      vertex -15.6504 3.32659 8
      vertex -25.4318 5.4057 8
    endloop
  endfacet
endsolid OpenSCAD_Model
